{
  "header": {
    "PPQ": 480,
    "timeSignature": [
      4,
      4
    ],
    "bpm": 130.00013000013
  },
  "startTime": 0,
  "duration": 14.749985250000119,
  "tracks": [
    {
      "startTime": 0,
      "duration": 0,
      "length": 0,
      "id": 0
    },
    {
      "startTime": 0.46153799999999995,
      "duration": 14.538446999999996,
      "length": 16,
      "id": 1,
      "name": "1/4 Off",
      "channelNumber": 0,
      "isPercussion": false,
      "notes": [
        {
          "name": "E3",
          "midi": 52,
          "time": 0.46153799999999995,
          "velocity": 0.7637795275590551,
          "duration": 0.23076899999999995
        },
        {
          "name": "E3",
          "midi": 52,
          "time": 1.3846139999999998,
          "velocity": 0.7637795275590551,
          "duration": 0.230769
        },
        {
          "name": "E3",
          "midi": 52,
          "time": 2.3076899999999996,
          "velocity": 0.7637795275590551,
          "duration": 0.230769
        },
        {
          "name": "E3",
          "midi": 52,
          "time": 3.2307659999999996,
          "velocity": 0.7637795275590551,
          "duration": 0.230769
        },
        {
          "name": "E3",
          "midi": 52,
          "time": 4.153841999999999,
          "velocity": 0.7637795275590551,
          "duration": 0.23076899999999956
        },
        {
          "name": "E3",
          "midi": 52,
          "time": 5.076917999999998,
          "velocity": 0.7637795275590551,
          "duration": 0.23076899999999956
        },
        {
          "name": "E3",
          "midi": 52,
          "time": 5.999993999999997,
          "velocity": 0.7637795275590551,
          "duration": 0.23076899999999956
        },
        {
          "name": "E3",
          "midi": 52,
          "time": 6.9230699999999965,
          "velocity": 0.7637795275590551,
          "duration": 0.23076899999999956
        },
        {
          "name": "E3",
          "midi": 52,
          "time": 7.846145999999996,
          "velocity": 0.7637795275590551,
          "duration": 0.23076900000000045
        },
        {
          "name": "E3",
          "midi": 52,
          "time": 8.769221999999996,
          "velocity": 0.7637795275590551,
          "duration": 0.23076900000000045
        },
        {
          "name": "E3",
          "midi": 52,
          "time": 9.692297999999996,
          "velocity": 0.7637795275590551,
          "duration": 0.23076900000000045
        },
        {
          "name": "E3",
          "midi": 52,
          "time": 10.615373999999996,
          "velocity": 0.7637795275590551,
          "duration": 0.23076900000000045
        },
        {
          "name": "E3",
          "midi": 52,
          "time": 11.538449999999996,
          "velocity": 0.7637795275590551,
          "duration": 0.23076900000000045
        },
        {
          "name": "E3",
          "midi": 52,
          "time": 12.461525999999996,
          "velocity": 0.7637795275590551,
          "duration": 0.23076900000000045
        },
        {
          "name": "E3",
          "midi": 52,
          "time": 13.384601999999996,
          "velocity": 0.7637795275590551,
          "duration": 0.23076900000000045
        },
        {
          "name": "E3",
          "midi": 52,
          "time": 14.307677999999996,
          "velocity": 0.7637795275590551,
          "duration": 0.23076900000000045
        }
      ]
    },
    {
      "startTime": 0.46153799999999995,
      "duration": 14.538446999999996,
      "length": 16,
      "id": 2,
      "name": "1/4 Off",
      "channelNumber": 0,
      "isPercussion": false,
      "notes": [
        {
          "name": "E3",
          "midi": 52,
          "time": 0.46153799999999995,
          "velocity": 0.8346456692913385,
          "duration": 0.23076899999999995
        },
        {
          "name": "E3",
          "midi": 52,
          "time": 1.3846139999999998,
          "velocity": 0.8346456692913385,
          "duration": 0.230769
        },
        {
          "name": "E3",
          "midi": 52,
          "time": 2.3076899999999996,
          "velocity": 0.8346456692913385,
          "duration": 0.230769
        },
        {
          "name": "E3",
          "midi": 52,
          "time": 3.2307659999999996,
          "velocity": 0.8346456692913385,
          "duration": 0.230769
        },
        {
          "name": "E3",
          "midi": 52,
          "time": 4.153841999999999,
          "velocity": 0.8346456692913385,
          "duration": 0.23076899999999956
        },
        {
          "name": "E3",
          "midi": 52,
          "time": 5.076917999999998,
          "velocity": 0.8346456692913385,
          "duration": 0.23076899999999956
        },
        {
          "name": "E3",
          "midi": 52,
          "time": 5.999993999999997,
          "velocity": 0.8346456692913385,
          "duration": 0.23076899999999956
        },
        {
          "name": "E3",
          "midi": 52,
          "time": 6.9230699999999965,
          "velocity": 0.8346456692913385,
          "duration": 0.23076899999999956
        },
        {
          "name": "E3",
          "midi": 52,
          "time": 7.846145999999996,
          "velocity": 0.8346456692913385,
          "duration": 0.23076900000000045
        },
        {
          "name": "E3",
          "midi": 52,
          "time": 8.769221999999996,
          "velocity": 0.8346456692913385,
          "duration": 0.23076900000000045
        },
        {
          "name": "E3",
          "midi": 52,
          "time": 9.692297999999996,
          "velocity": 0.8346456692913385,
          "duration": 0.23076900000000045
        },
        {
          "name": "E3",
          "midi": 52,
          "time": 10.615373999999996,
          "velocity": 0.8346456692913385,
          "duration": 0.23076900000000045
        },
        {
          "name": "E3",
          "midi": 52,
          "time": 11.538449999999996,
          "velocity": 0.8346456692913385,
          "duration": 0.23076900000000045
        },
        {
          "name": "E3",
          "midi": 52,
          "time": 12.461525999999996,
          "velocity": 0.8346456692913385,
          "duration": 0.23076900000000045
        },
        {
          "name": "E3",
          "midi": 52,
          "time": 13.384601999999996,
          "velocity": 0.8346456692913385,
          "duration": 0.23076900000000045
        },
        {
          "name": "E3",
          "midi": 52,
          "time": 14.307677999999996,
          "velocity": 0.8346456692913385,
          "duration": 0.23076900000000045
        }
      ]
    },
    {
      "startTime": 0,
      "duration": 14.480754749999987,
      "length": 32,
      "id": 3,
      "name": "1/4",
      "channelNumber": 0,
      "isPercussion": false,
      "notes": [
        {
          "name": "E3",
          "midi": 52,
          "time": 0,
          "velocity": 1,
          "duration": 0.17307674999999997
        },
        {
          "name": "E3",
          "midi": 52,
          "time": 0.4615379999999999,
          "velocity": 1,
          "duration": 0.17307675
        },
        {
          "name": "E3",
          "midi": 52,
          "time": 0.9230759999999998,
          "velocity": 1,
          "duration": 0.1730767499999999
        },
        {
          "name": "E3",
          "midi": 52,
          "time": 1.3846139999999996,
          "velocity": 1,
          "duration": 0.1730767499999999
        },
        {
          "name": "E3",
          "midi": 52,
          "time": 1.8461519999999993,
          "velocity": 1,
          "duration": 0.1730767500000001
        },
        {
          "name": "E3",
          "midi": 52,
          "time": 2.3076899999999996,
          "velocity": 1,
          "duration": 0.1730767499999999
        },
        {
          "name": "E3",
          "midi": 52,
          "time": 2.7692279999999996,
          "velocity": 1,
          "duration": 0.1730767499999999
        },
        {
          "name": "E3",
          "midi": 52,
          "time": 3.2307659999999996,
          "velocity": 1,
          "duration": 0.1730767499999999
        },
        {
          "name": "E3",
          "midi": 52,
          "time": 3.6923039999999996,
          "velocity": 1,
          "duration": 0.1730767499999999
        },
        {
          "name": "E3",
          "midi": 52,
          "time": 4.153841999999999,
          "velocity": 1,
          "duration": 0.1730767499999999
        },
        {
          "name": "E3",
          "midi": 52,
          "time": 4.615379999999999,
          "velocity": 1,
          "duration": 0.1730767499999999
        },
        {
          "name": "E3",
          "midi": 52,
          "time": 5.076917999999999,
          "velocity": 1,
          "duration": 0.1730767499999999
        },
        {
          "name": "E3",
          "midi": 52,
          "time": 5.538455999999999,
          "velocity": 1,
          "duration": 0.1730767499999999
        },
        {
          "name": "E3",
          "midi": 52,
          "time": 5.999993999999999,
          "velocity": 1,
          "duration": 0.1730767499999999
        },
        {
          "name": "E3",
          "midi": 52,
          "time": 6.461531999999999,
          "velocity": 1,
          "duration": 0.1730767499999999
        },
        {
          "name": "E3",
          "midi": 52,
          "time": 6.923069999999999,
          "velocity": 1,
          "duration": 0.1730767499999999
        },
        {
          "name": "E3",
          "midi": 52,
          "time": 7.384607999999999,
          "velocity": 1,
          "duration": 0.1730767499999999
        },
        {
          "name": "E3",
          "midi": 52,
          "time": 7.846145999999999,
          "velocity": 1,
          "duration": 0.1730767499999999
        },
        {
          "name": "E3",
          "midi": 52,
          "time": 8.307683999999998,
          "velocity": 1,
          "duration": 0.1730767499999999
        },
        {
          "name": "E3",
          "midi": 52,
          "time": 8.769221999999997,
          "velocity": 1,
          "duration": 0.1730767499999999
        },
        {
          "name": "E3",
          "midi": 52,
          "time": 9.230759999999997,
          "velocity": 1,
          "duration": 0.1730767499999999
        },
        {
          "name": "E3",
          "midi": 52,
          "time": 9.692297999999996,
          "velocity": 1,
          "duration": 0.1730767499999999
        },
        {
          "name": "E3",
          "midi": 52,
          "time": 10.153835999999995,
          "velocity": 1,
          "duration": 0.1730767499999999
        },
        {
          "name": "E3",
          "midi": 52,
          "time": 10.615373999999994,
          "velocity": 1,
          "duration": 0.1730767499999999
        },
        {
          "name": "E3",
          "midi": 52,
          "time": 11.076911999999993,
          "velocity": 1,
          "duration": 0.1730767499999999
        },
        {
          "name": "E3",
          "midi": 52,
          "time": 11.538449999999992,
          "velocity": 1,
          "duration": 0.1730767499999999
        },
        {
          "name": "E3",
          "midi": 52,
          "time": 11.999987999999991,
          "velocity": 1,
          "duration": 0.1730767499999999
        },
        {
          "name": "E3",
          "midi": 52,
          "time": 12.46152599999999,
          "velocity": 1,
          "duration": 0.1730767499999999
        },
        {
          "name": "E3",
          "midi": 52,
          "time": 12.92306399999999,
          "velocity": 1,
          "duration": 0.1730767499999999
        },
        {
          "name": "E3",
          "midi": 52,
          "time": 13.384601999999989,
          "velocity": 1,
          "duration": 0.1730767499999999
        },
        {
          "name": "E3",
          "midi": 52,
          "time": 13.846139999999988,
          "velocity": 1,
          "duration": 0.1730767499999999
        },
        {
          "name": "E3",
          "midi": 52,
          "time": 14.307677999999987,
          "velocity": 1,
          "duration": 0.1730767499999999
        }
      ]
    },
    {
      "startTime": 0,
      "duration": 14.480754749999988,
      "length": 36,
      "id": 4,
      "name": "1/4+",
      "channelNumber": 0,
      "isPercussion": false,
      "notes": [
        {
          "name": "E3",
          "midi": 52,
          "time": 0,
          "velocity": 1,
          "duration": 0.17307674999999997
        },
        {
          "name": "E3",
          "midi": 52,
          "time": 0.4615379999999999,
          "velocity": 1,
          "duration": 0.17307675
        },
        {
          "name": "E3",
          "midi": 52,
          "time": 0.9230759999999998,
          "velocity": 1,
          "duration": 0.1730767499999999
        },
        {
          "name": "E3",
          "midi": 52,
          "time": 1.3846139999999996,
          "velocity": 1,
          "duration": 0.1730767499999999
        },
        {
          "name": "E3",
          "midi": 52,
          "time": 1.8461519999999993,
          "velocity": 1,
          "duration": 0.1730767500000001
        },
        {
          "name": "E3",
          "midi": 52,
          "time": 2.1923054999999994,
          "velocity": 1,
          "duration": 0.07692299999999985
        },
        {
          "name": "E3",
          "midi": 52,
          "time": 2.307689999999999,
          "velocity": 1,
          "duration": 0.1730767499999999
        },
        {
          "name": "E3",
          "midi": 52,
          "time": 2.769227999999999,
          "velocity": 1,
          "duration": 0.1730767499999999
        },
        {
          "name": "E3",
          "midi": 52,
          "time": 3.230765999999999,
          "velocity": 1,
          "duration": 0.1730767499999999
        },
        {
          "name": "E3",
          "midi": 52,
          "time": 3.692303999999999,
          "velocity": 1,
          "duration": 0.1730767499999999
        },
        {
          "name": "E3",
          "midi": 52,
          "time": 4.153841999999999,
          "velocity": 1,
          "duration": 0.1730767499999999
        },
        {
          "name": "E3",
          "midi": 52,
          "time": 4.615379999999999,
          "velocity": 1,
          "duration": 0.1730767499999999
        },
        {
          "name": "E3",
          "midi": 52,
          "time": 5.076917999999999,
          "velocity": 1,
          "duration": 0.1730767499999999
        },
        {
          "name": "E3",
          "midi": 52,
          "time": 5.538455999999999,
          "velocity": 1,
          "duration": 0.1730767499999999
        },
        {
          "name": "E3",
          "midi": 52,
          "time": 5.884609499999999,
          "velocity": 1,
          "duration": 0.0653845500000001
        },
        {
          "name": "E3",
          "midi": 52,
          "time": 5.999993999999999,
          "velocity": 1,
          "duration": 0.1730767499999999
        },
        {
          "name": "E3",
          "midi": 52,
          "time": 6.461531999999999,
          "velocity": 1,
          "duration": 0.1730767499999999
        },
        {
          "name": "E3",
          "midi": 52,
          "time": 6.923069999999999,
          "velocity": 1,
          "duration": 0.1730767499999999
        },
        {
          "name": "E3",
          "midi": 52,
          "time": 7.384607999999999,
          "velocity": 1,
          "duration": 0.1730767499999999
        },
        {
          "name": "E3",
          "midi": 52,
          "time": 7.846145999999999,
          "velocity": 1,
          "duration": 0.1730767499999999
        },
        {
          "name": "E3",
          "midi": 52,
          "time": 8.307683999999998,
          "velocity": 1,
          "duration": 0.1730767499999999
        },
        {
          "name": "E3",
          "midi": 52,
          "time": 8.769221999999997,
          "velocity": 1,
          "duration": 0.1730767499999999
        },
        {
          "name": "E3",
          "midi": 52,
          "time": 9.230759999999997,
          "velocity": 1,
          "duration": 0.1730767499999999
        },
        {
          "name": "E3",
          "midi": 52,
          "time": 9.576913499999996,
          "velocity": 1,
          "duration": 0.07692300000000074
        },
        {
          "name": "E3",
          "midi": 52,
          "time": 9.692297999999997,
          "velocity": 1,
          "duration": 0.1730767499999999
        },
        {
          "name": "E3",
          "midi": 52,
          "time": 10.153835999999997,
          "velocity": 1,
          "duration": 0.1730767499999999
        },
        {
          "name": "E3",
          "midi": 52,
          "time": 10.615373999999996,
          "velocity": 1,
          "duration": 0.1730767499999999
        },
        {
          "name": "E3",
          "midi": 52,
          "time": 11.076911999999995,
          "velocity": 1,
          "duration": 0.1730767499999999
        },
        {
          "name": "E3",
          "midi": 52,
          "time": 11.538449999999994,
          "velocity": 1,
          "duration": 0.1730767499999999
        },
        {
          "name": "E3",
          "midi": 52,
          "time": 11.999987999999993,
          "velocity": 1,
          "duration": 0.1730767499999999
        },
        {
          "name": "E3",
          "midi": 52,
          "time": 12.461525999999992,
          "velocity": 1,
          "duration": 0.1730767499999999
        },
        {
          "name": "E3",
          "midi": 52,
          "time": 12.923063999999991,
          "velocity": 1,
          "duration": 0.1730767499999999
        },
        {
          "name": "E3",
          "midi": 52,
          "time": 13.269217499999991,
          "velocity": 1,
          "duration": 0.06538454999999921
        },
        {
          "name": "E3",
          "midi": 52,
          "time": 13.38460199999999,
          "velocity": 1,
          "duration": 0.1730767499999999
        },
        {
          "name": "E3",
          "midi": 52,
          "time": 13.84613999999999,
          "velocity": 1,
          "duration": 0.1730767499999999
        },
        {
          "name": "E3",
          "midi": 52,
          "time": 14.307677999999989,
          "velocity": 1,
          "duration": 0.1730767499999999
        }
      ]
    },
    {
      "startTime": 0,
      "duration": 14.73075449999999,
      "length": 41,
      "id": 5,
      "name": "1/4++",
      "channelNumber": 0,
      "isPercussion": false,
      "notes": [
        {
          "name": "E3",
          "midi": 52,
          "time": 0,
          "velocity": 1,
          "duration": 0.17307674999999997
        },
        {
          "name": "E3",
          "midi": 52,
          "time": 0.4615379999999999,
          "velocity": 1,
          "duration": 0.17307675
        },
        {
          "name": "E3",
          "midi": 52,
          "time": 0.9230759999999998,
          "velocity": 1,
          "duration": 0.1730767499999999
        },
        {
          "name": "E3",
          "midi": 52,
          "time": 1.3846139999999996,
          "velocity": 1,
          "duration": 0.1730767499999999
        },
        {
          "name": "E3",
          "midi": 52,
          "time": 1.8461519999999993,
          "velocity": 1,
          "duration": 0.1730767500000001
        },
        {
          "name": "E3",
          "midi": 52,
          "time": 2.1923054999999994,
          "velocity": 1,
          "duration": 0.07692299999999985
        },
        {
          "name": "E3",
          "midi": 52,
          "time": 2.307689999999999,
          "velocity": 1,
          "duration": 0.1730767499999999
        },
        {
          "name": "E3",
          "midi": 52,
          "time": 2.769227999999999,
          "velocity": 1,
          "duration": 0.1730767499999999
        },
        {
          "name": "E3",
          "midi": 52,
          "time": 3.230765999999999,
          "velocity": 1,
          "duration": 0.1730767499999999
        },
        {
          "name": "E3",
          "midi": 52,
          "time": 3.692303999999999,
          "velocity": 1,
          "duration": 0.1730767499999999
        },
        {
          "name": "E3",
          "midi": 52,
          "time": 4.153841999999999,
          "velocity": 1,
          "duration": 0.1730767499999999
        },
        {
          "name": "E3",
          "midi": 52,
          "time": 4.615379999999999,
          "velocity": 1,
          "duration": 0.1730767499999999
        },
        {
          "name": "E3",
          "midi": 52,
          "time": 5.076917999999999,
          "velocity": 1,
          "duration": 0.1730767499999999
        },
        {
          "name": "E3",
          "midi": 52,
          "time": 5.538455999999999,
          "velocity": 1,
          "duration": 0.1730767499999999
        },
        {
          "name": "E3",
          "midi": 52,
          "time": 5.884609499999999,
          "velocity": 1,
          "duration": 0.0653845500000001
        },
        {
          "name": "E3",
          "midi": 52,
          "time": 5.999993999999999,
          "velocity": 1,
          "duration": 0.1730767499999999
        },
        {
          "name": "E3",
          "midi": 52,
          "time": 6.461531999999999,
          "velocity": 1,
          "duration": 0.1730767499999999
        },
        {
          "name": "E3",
          "midi": 52,
          "time": 6.807685499999999,
          "velocity": 1,
          "duration": 0.0653845500000001
        },
        {
          "name": "E3",
          "midi": 52,
          "time": 6.923069999999999,
          "velocity": 1,
          "duration": 0.1730767499999999
        },
        {
          "name": "E3",
          "midi": 52,
          "time": 7.153838999999999,
          "velocity": 1,
          "duration": 0.1730767499999999
        },
        {
          "name": "E3",
          "midi": 52,
          "time": 7.384607999999998,
          "velocity": 1,
          "duration": 0.1730767499999999
        },
        {
          "name": "E3",
          "midi": 52,
          "time": 7.846145999999998,
          "velocity": 1,
          "duration": 0.17307675000000078
        },
        {
          "name": "E3",
          "midi": 52,
          "time": 8.307683999999998,
          "velocity": 1,
          "duration": 0.1730767499999999
        },
        {
          "name": "E3",
          "midi": 52,
          "time": 8.769221999999997,
          "velocity": 1,
          "duration": 0.1730767499999999
        },
        {
          "name": "E3",
          "midi": 52,
          "time": 9.230759999999997,
          "velocity": 1,
          "duration": 0.1730767499999999
        },
        {
          "name": "E3",
          "midi": 52,
          "time": 9.576913499999996,
          "velocity": 1,
          "duration": 0.07692300000000074
        },
        {
          "name": "E3",
          "midi": 52,
          "time": 9.692297999999997,
          "velocity": 1,
          "duration": 0.1730767499999999
        },
        {
          "name": "E3",
          "midi": 52,
          "time": 10.153835999999997,
          "velocity": 1,
          "duration": 0.1730767499999999
        },
        {
          "name": "E3",
          "midi": 52,
          "time": 10.615373999999996,
          "velocity": 1,
          "duration": 0.1730767499999999
        },
        {
          "name": "E3",
          "midi": 52,
          "time": 11.076911999999995,
          "velocity": 1,
          "duration": 0.1730767499999999
        },
        {
          "name": "E3",
          "midi": 52,
          "time": 11.538449999999994,
          "velocity": 1,
          "duration": 0.1730767499999999
        },
        {
          "name": "E3",
          "midi": 52,
          "time": 11.999987999999993,
          "velocity": 1,
          "duration": 0.1730767499999999
        },
        {
          "name": "E3",
          "midi": 52,
          "time": 12.461525999999992,
          "velocity": 1,
          "duration": 0.1730767499999999
        },
        {
          "name": "E3",
          "midi": 52,
          "time": 12.923063999999991,
          "velocity": 1,
          "duration": 0.1730767499999999
        },
        {
          "name": "E3",
          "midi": 52,
          "time": 13.269217499999991,
          "velocity": 1,
          "duration": 0.06538454999999921
        },
        {
          "name": "E3",
          "midi": 52,
          "time": 13.38460199999999,
          "velocity": 1,
          "duration": 0.1730767499999999
        },
        {
          "name": "E3",
          "midi": 52,
          "time": 13.84613999999999,
          "velocity": 1,
          "duration": 0.1730767499999999
        },
        {
          "name": "E3",
          "midi": 52,
          "time": 14.19229349999999,
          "velocity": 1,
          "duration": 0.06538454999999921
        },
        {
          "name": "E3",
          "midi": 52,
          "time": 14.307677999999989,
          "velocity": 1,
          "duration": 0.1730767499999999
        },
        {
          "name": "E3",
          "midi": 52,
          "time": 14.538446999999989,
          "velocity": 1,
          "duration": 0.07692300000000074
        },
        {
          "name": "E3",
          "midi": 52,
          "time": 14.65383149999999,
          "velocity": 1,
          "duration": 0.07692300000000074
        }
      ]
    },
    {
      "startTime": 0,
      "duration": 14.57690849999999,
      "length": 48,
      "id": 6,
      "name": "1/4T",
      "channelNumber": 0,
      "isPercussion": false,
      "notes": [
        {
          "name": "E3",
          "midi": 52,
          "time": 0,
          "velocity": 1,
          "duration": 0.11538449999999999
        },
        {
          "name": "E3",
          "midi": 52,
          "time": 0.30769199999999997,
          "velocity": 1,
          "duration": 0.1153845
        },
        {
          "name": "E3",
          "midi": 52,
          "time": 0.6153839999999999,
          "velocity": 1,
          "duration": 0.1153845
        },
        {
          "name": "E3",
          "midi": 52,
          "time": 0.9230759999999999,
          "velocity": 1,
          "duration": 0.11538449999999989
        },
        {
          "name": "E3",
          "midi": 52,
          "time": 1.2307679999999999,
          "velocity": 1,
          "duration": 0.1153845
        },
        {
          "name": "E3",
          "midi": 52,
          "time": 1.53846,
          "velocity": 1,
          "duration": 0.1153845
        },
        {
          "name": "E3",
          "midi": 52,
          "time": 1.846152,
          "velocity": 1,
          "duration": 0.1153845
        },
        {
          "name": "E3",
          "midi": 52,
          "time": 2.153844,
          "velocity": 1,
          "duration": 0.11538449999999978
        },
        {
          "name": "E3",
          "midi": 52,
          "time": 2.4615359999999997,
          "velocity": 1,
          "duration": 0.11538449999999978
        },
        {
          "name": "E3",
          "midi": 52,
          "time": 2.7692279999999996,
          "velocity": 1,
          "duration": 0.11538449999999978
        },
        {
          "name": "E3",
          "midi": 52,
          "time": 3.0769199999999994,
          "velocity": 1,
          "duration": 0.11538449999999978
        },
        {
          "name": "E3",
          "midi": 52,
          "time": 3.3846119999999993,
          "velocity": 1,
          "duration": 0.11538449999999978
        },
        {
          "name": "E3",
          "midi": 52,
          "time": 3.692303999999999,
          "velocity": 1,
          "duration": 0.11538449999999978
        },
        {
          "name": "E3",
          "midi": 52,
          "time": 3.999995999999999,
          "velocity": 1,
          "duration": 0.11538449999999978
        },
        {
          "name": "E3",
          "midi": 52,
          "time": 4.307687999999999,
          "velocity": 1,
          "duration": 0.11538450000000022
        },
        {
          "name": "E3",
          "midi": 52,
          "time": 4.615379999999999,
          "velocity": 1,
          "duration": 0.11538450000000022
        },
        {
          "name": "E3",
          "midi": 52,
          "time": 4.9230719999999994,
          "velocity": 1,
          "duration": 0.11538450000000022
        },
        {
          "name": "E3",
          "midi": 52,
          "time": 5.230764,
          "velocity": 1,
          "duration": 0.11538450000000022
        },
        {
          "name": "E3",
          "midi": 52,
          "time": 5.538456,
          "velocity": 1,
          "duration": 0.11538450000000022
        },
        {
          "name": "E3",
          "midi": 52,
          "time": 5.846148,
          "velocity": 1,
          "duration": 0.11538450000000022
        },
        {
          "name": "E3",
          "midi": 52,
          "time": 6.153840000000001,
          "velocity": 1,
          "duration": 0.11538450000000022
        },
        {
          "name": "E3",
          "midi": 52,
          "time": 6.461532000000001,
          "velocity": 1,
          "duration": 0.11538450000000022
        },
        {
          "name": "E3",
          "midi": 52,
          "time": 6.769224000000001,
          "velocity": 1,
          "duration": 0.11538450000000022
        },
        {
          "name": "E3",
          "midi": 52,
          "time": 7.0769160000000015,
          "velocity": 1,
          "duration": 0.11538450000000022
        },
        {
          "name": "E3",
          "midi": 52,
          "time": 7.384608000000002,
          "velocity": 1,
          "duration": 0.11538450000000022
        },
        {
          "name": "E3",
          "midi": 52,
          "time": 7.692300000000002,
          "velocity": 1,
          "duration": 0.11538450000000022
        },
        {
          "name": "E3",
          "midi": 52,
          "time": 7.999992000000002,
          "velocity": 1,
          "duration": 0.11538449999999933
        },
        {
          "name": "E3",
          "midi": 52,
          "time": 8.307684000000002,
          "velocity": 1,
          "duration": 0.11538449999999933
        },
        {
          "name": "E3",
          "midi": 52,
          "time": 8.615376000000001,
          "velocity": 1,
          "duration": 0.11538449999999933
        },
        {
          "name": "E3",
          "midi": 52,
          "time": 8.923068,
          "velocity": 1,
          "duration": 0.11538449999999933
        },
        {
          "name": "E3",
          "midi": 52,
          "time": 9.23076,
          "velocity": 1,
          "duration": 0.11538449999999933
        },
        {
          "name": "E3",
          "midi": 52,
          "time": 9.538452,
          "velocity": 1,
          "duration": 0.11538449999999933
        },
        {
          "name": "E3",
          "midi": 52,
          "time": 9.846143999999999,
          "velocity": 1,
          "duration": 0.11538449999999933
        },
        {
          "name": "E3",
          "midi": 52,
          "time": 10.153835999999998,
          "velocity": 1,
          "duration": 0.11538449999999933
        },
        {
          "name": "E3",
          "midi": 52,
          "time": 10.461527999999998,
          "velocity": 1,
          "duration": 0.11538449999999933
        },
        {
          "name": "E3",
          "midi": 52,
          "time": 10.769219999999997,
          "velocity": 1,
          "duration": 0.11538449999999933
        },
        {
          "name": "E3",
          "midi": 52,
          "time": 11.076911999999997,
          "velocity": 1,
          "duration": 0.11538449999999933
        },
        {
          "name": "E3",
          "midi": 52,
          "time": 11.384603999999996,
          "velocity": 1,
          "duration": 0.11538449999999933
        },
        {
          "name": "E3",
          "midi": 52,
          "time": 11.692295999999995,
          "velocity": 1,
          "duration": 0.11538449999999933
        },
        {
          "name": "E3",
          "midi": 52,
          "time": 11.999987999999995,
          "velocity": 1,
          "duration": 0.11538449999999933
        },
        {
          "name": "E3",
          "midi": 52,
          "time": 12.307679999999994,
          "velocity": 1,
          "duration": 0.11538449999999933
        },
        {
          "name": "E3",
          "midi": 52,
          "time": 12.615371999999994,
          "velocity": 1,
          "duration": 0.11538449999999933
        },
        {
          "name": "E3",
          "midi": 52,
          "time": 12.923063999999993,
          "velocity": 1,
          "duration": 0.11538449999999933
        },
        {
          "name": "E3",
          "midi": 52,
          "time": 13.230755999999992,
          "velocity": 1,
          "duration": 0.11538449999999933
        },
        {
          "name": "E3",
          "midi": 52,
          "time": 13.538447999999992,
          "velocity": 1,
          "duration": 0.11538449999999933
        },
        {
          "name": "E3",
          "midi": 52,
          "time": 13.846139999999991,
          "velocity": 1,
          "duration": 0.11538449999999933
        },
        {
          "name": "E3",
          "midi": 52,
          "time": 14.15383199999999,
          "velocity": 1,
          "duration": 0.11538449999999933
        },
        {
          "name": "E3",
          "midi": 52,
          "time": 14.46152399999999,
          "velocity": 1,
          "duration": 0.11538449999999933
        }
      ]
    },
    {
      "startTime": 0,
      "duration": 14.653831499999965,
      "length": 64,
      "id": 7,
      "name": "1/8",
      "channelNumber": 0,
      "isPercussion": false,
      "notes": [
        {
          "name": "E3",
          "midi": 52,
          "time": 0,
          "velocity": 1,
          "duration": 0.11538449999999999
        },
        {
          "name": "E3",
          "midi": 52,
          "time": 0.23076899999999997,
          "velocity": 1,
          "duration": 0.11538449999999997
        },
        {
          "name": "E3",
          "midi": 52,
          "time": 0.46153799999999995,
          "velocity": 1,
          "duration": 0.11538449999999995
        },
        {
          "name": "E3",
          "midi": 52,
          "time": 0.6923069999999999,
          "velocity": 1,
          "duration": 0.1153845
        },
        {
          "name": "E3",
          "midi": 52,
          "time": 0.9230759999999999,
          "velocity": 1,
          "duration": 0.11538449999999989
        },
        {
          "name": "E3",
          "midi": 52,
          "time": 1.1538449999999998,
          "velocity": 1,
          "duration": 0.1153845
        },
        {
          "name": "E3",
          "midi": 52,
          "time": 1.3846139999999998,
          "velocity": 1,
          "duration": 0.1153845
        },
        {
          "name": "E3",
          "midi": 52,
          "time": 1.6153829999999998,
          "velocity": 1,
          "duration": 0.1153845
        },
        {
          "name": "E3",
          "midi": 52,
          "time": 1.8461519999999998,
          "velocity": 1,
          "duration": 0.1153845
        },
        {
          "name": "E3",
          "midi": 52,
          "time": 2.0769209999999996,
          "velocity": 1,
          "duration": 0.11538449999999978
        },
        {
          "name": "E3",
          "midi": 52,
          "time": 2.307689999999999,
          "velocity": 1,
          "duration": 0.11538449999999978
        },
        {
          "name": "E3",
          "midi": 52,
          "time": 2.5384589999999987,
          "velocity": 1,
          "duration": 0.11538449999999978
        },
        {
          "name": "E3",
          "midi": 52,
          "time": 2.7692279999999982,
          "velocity": 1,
          "duration": 0.11538449999999978
        },
        {
          "name": "E3",
          "midi": 52,
          "time": 2.999996999999998,
          "velocity": 1,
          "duration": 0.11538449999999978
        },
        {
          "name": "E3",
          "midi": 52,
          "time": 3.2307659999999974,
          "velocity": 1,
          "duration": 0.11538449999999978
        },
        {
          "name": "E3",
          "midi": 52,
          "time": 3.461534999999997,
          "velocity": 1,
          "duration": 0.11538449999999978
        },
        {
          "name": "E3",
          "midi": 52,
          "time": 3.6923039999999965,
          "velocity": 1,
          "duration": 0.11538449999999978
        },
        {
          "name": "E3",
          "midi": 52,
          "time": 3.923072999999996,
          "velocity": 1,
          "duration": 0.11538450000000022
        },
        {
          "name": "E3",
          "midi": 52,
          "time": 4.1538419999999965,
          "velocity": 1,
          "duration": 0.11538450000000022
        },
        {
          "name": "E3",
          "midi": 52,
          "time": 4.384610999999997,
          "velocity": 1,
          "duration": 0.11538450000000022
        },
        {
          "name": "E3",
          "midi": 52,
          "time": 4.615379999999997,
          "velocity": 1,
          "duration": 0.11538450000000022
        },
        {
          "name": "E3",
          "midi": 52,
          "time": 4.846148999999998,
          "velocity": 1,
          "duration": 0.11538450000000022
        },
        {
          "name": "E3",
          "midi": 52,
          "time": 5.076917999999998,
          "velocity": 1,
          "duration": 0.11538450000000022
        },
        {
          "name": "E3",
          "midi": 52,
          "time": 5.307686999999999,
          "velocity": 1,
          "duration": 0.11538450000000022
        },
        {
          "name": "E3",
          "midi": 52,
          "time": 5.538455999999999,
          "velocity": 1,
          "duration": 0.11538450000000022
        },
        {
          "name": "E3",
          "midi": 52,
          "time": 5.769225,
          "velocity": 1,
          "duration": 0.11538450000000022
        },
        {
          "name": "E3",
          "midi": 52,
          "time": 5.999994,
          "velocity": 1,
          "duration": 0.11538450000000022
        },
        {
          "name": "E3",
          "midi": 52,
          "time": 6.2307630000000005,
          "velocity": 1,
          "duration": 0.11538450000000022
        },
        {
          "name": "E3",
          "midi": 52,
          "time": 6.461532000000001,
          "velocity": 1,
          "duration": 0.11538450000000022
        },
        {
          "name": "E3",
          "midi": 52,
          "time": 6.692301000000001,
          "velocity": 1,
          "duration": 0.11538450000000022
        },
        {
          "name": "E3",
          "midi": 52,
          "time": 6.923070000000002,
          "velocity": 1,
          "duration": 0.11538450000000022
        },
        {
          "name": "E3",
          "midi": 52,
          "time": 7.153839000000002,
          "velocity": 1,
          "duration": 0.11538450000000022
        },
        {
          "name": "E3",
          "midi": 52,
          "time": 7.384608000000003,
          "velocity": 1,
          "duration": 0.11538450000000022
        },
        {
          "name": "E3",
          "midi": 52,
          "time": 7.615377000000003,
          "velocity": 1,
          "duration": 0.11538450000000022
        },
        {
          "name": "E3",
          "midi": 52,
          "time": 7.846146000000004,
          "velocity": 1,
          "duration": 0.11538450000000022
        },
        {
          "name": "E3",
          "midi": 52,
          "time": 8.076915000000003,
          "velocity": 1,
          "duration": 0.11538449999999933
        },
        {
          "name": "E3",
          "midi": 52,
          "time": 8.307684000000002,
          "velocity": 1,
          "duration": 0.11538449999999933
        },
        {
          "name": "E3",
          "midi": 52,
          "time": 8.538453,
          "velocity": 1,
          "duration": 0.11538449999999933
        },
        {
          "name": "E3",
          "midi": 52,
          "time": 8.769222,
          "velocity": 1,
          "duration": 0.11538449999999933
        },
        {
          "name": "E3",
          "midi": 52,
          "time": 8.999990999999998,
          "velocity": 1,
          "duration": 0.11538449999999933
        },
        {
          "name": "E3",
          "midi": 52,
          "time": 9.230759999999997,
          "velocity": 1,
          "duration": 0.11538449999999933
        },
        {
          "name": "E3",
          "midi": 52,
          "time": 9.461528999999995,
          "velocity": 1,
          "duration": 0.11538449999999933
        },
        {
          "name": "E3",
          "midi": 52,
          "time": 9.692297999999994,
          "velocity": 1,
          "duration": 0.11538449999999933
        },
        {
          "name": "E3",
          "midi": 52,
          "time": 9.923066999999993,
          "velocity": 1,
          "duration": 0.11538449999999933
        },
        {
          "name": "E3",
          "midi": 52,
          "time": 10.153835999999991,
          "velocity": 1,
          "duration": 0.11538449999999933
        },
        {
          "name": "E3",
          "midi": 52,
          "time": 10.38460499999999,
          "velocity": 1,
          "duration": 0.11538449999999933
        },
        {
          "name": "E3",
          "midi": 52,
          "time": 10.615373999999989,
          "velocity": 1,
          "duration": 0.11538449999999933
        },
        {
          "name": "E3",
          "midi": 52,
          "time": 10.846142999999987,
          "velocity": 1,
          "duration": 0.11538449999999933
        },
        {
          "name": "E3",
          "midi": 52,
          "time": 11.076911999999986,
          "velocity": 1,
          "duration": 0.11538449999999933
        },
        {
          "name": "E3",
          "midi": 52,
          "time": 11.307680999999985,
          "velocity": 1,
          "duration": 0.11538449999999933
        },
        {
          "name": "E3",
          "midi": 52,
          "time": 11.538449999999983,
          "velocity": 1,
          "duration": 0.11538449999999933
        },
        {
          "name": "E3",
          "midi": 52,
          "time": 11.769218999999982,
          "velocity": 1,
          "duration": 0.11538449999999933
        },
        {
          "name": "E3",
          "midi": 52,
          "time": 11.99998799999998,
          "velocity": 1,
          "duration": 0.11538449999999933
        },
        {
          "name": "E3",
          "midi": 52,
          "time": 12.23075699999998,
          "velocity": 1,
          "duration": 0.11538449999999933
        },
        {
          "name": "E3",
          "midi": 52,
          "time": 12.461525999999978,
          "velocity": 1,
          "duration": 0.11538449999999933
        },
        {
          "name": "E3",
          "midi": 52,
          "time": 12.692294999999977,
          "velocity": 1,
          "duration": 0.11538449999999933
        },
        {
          "name": "E3",
          "midi": 52,
          "time": 12.923063999999975,
          "velocity": 1,
          "duration": 0.11538449999999933
        },
        {
          "name": "E3",
          "midi": 52,
          "time": 13.153832999999974,
          "velocity": 1,
          "duration": 0.11538449999999933
        },
        {
          "name": "E3",
          "midi": 52,
          "time": 13.384601999999973,
          "velocity": 1,
          "duration": 0.11538449999999933
        },
        {
          "name": "E3",
          "midi": 52,
          "time": 13.615370999999971,
          "velocity": 1,
          "duration": 0.11538449999999933
        },
        {
          "name": "E3",
          "midi": 52,
          "time": 13.84613999999997,
          "velocity": 1,
          "duration": 0.11538449999999933
        },
        {
          "name": "E3",
          "midi": 52,
          "time": 14.076908999999969,
          "velocity": 1,
          "duration": 0.11538449999999933
        },
        {
          "name": "E3",
          "midi": 52,
          "time": 14.307677999999967,
          "velocity": 1,
          "duration": 0.11538449999999933
        },
        {
          "name": "E3",
          "midi": 52,
          "time": 14.538446999999966,
          "velocity": 1,
          "duration": 0.11538449999999933
        }
      ]
    },
    {
      "startTime": 0,
      "duration": 14.653831499999965,
      "length": 64,
      "id": 8,
      "name": "1/8",
      "channelNumber": 0,
      "isPercussion": false,
      "notes": [
        {
          "name": "E3",
          "midi": 52,
          "time": 0,
          "velocity": 1,
          "duration": 0.11538449999999999
        },
        {
          "name": "E3",
          "midi": 52,
          "time": 0.23076899999999997,
          "velocity": 1,
          "duration": 0.11538449999999997
        },
        {
          "name": "E3",
          "midi": 52,
          "time": 0.46153799999999995,
          "velocity": 1,
          "duration": 0.11538449999999995
        },
        {
          "name": "E3",
          "midi": 52,
          "time": 0.6923069999999999,
          "velocity": 1,
          "duration": 0.1153845
        },
        {
          "name": "E3",
          "midi": 52,
          "time": 0.9230759999999999,
          "velocity": 1,
          "duration": 0.11538449999999989
        },
        {
          "name": "E3",
          "midi": 52,
          "time": 1.1538449999999998,
          "velocity": 1,
          "duration": 0.1153845
        },
        {
          "name": "E3",
          "midi": 52,
          "time": 1.3846139999999998,
          "velocity": 1,
          "duration": 0.1153845
        },
        {
          "name": "E3",
          "midi": 52,
          "time": 1.6153829999999998,
          "velocity": 1,
          "duration": 0.1153845
        },
        {
          "name": "E3",
          "midi": 52,
          "time": 1.8461519999999998,
          "velocity": 1,
          "duration": 0.1153845
        },
        {
          "name": "E3",
          "midi": 52,
          "time": 2.0769209999999996,
          "velocity": 1,
          "duration": 0.11538449999999978
        },
        {
          "name": "E3",
          "midi": 52,
          "time": 2.307689999999999,
          "velocity": 1,
          "duration": 0.11538449999999978
        },
        {
          "name": "E3",
          "midi": 52,
          "time": 2.5384589999999987,
          "velocity": 1,
          "duration": 0.11538449999999978
        },
        {
          "name": "E3",
          "midi": 52,
          "time": 2.7692279999999982,
          "velocity": 1,
          "duration": 0.11538449999999978
        },
        {
          "name": "E3",
          "midi": 52,
          "time": 2.999996999999998,
          "velocity": 1,
          "duration": 0.11538449999999978
        },
        {
          "name": "E3",
          "midi": 52,
          "time": 3.2307659999999974,
          "velocity": 1,
          "duration": 0.11538449999999978
        },
        {
          "name": "E3",
          "midi": 52,
          "time": 3.461534999999997,
          "velocity": 1,
          "duration": 0.11538449999999978
        },
        {
          "name": "E3",
          "midi": 52,
          "time": 3.6923039999999965,
          "velocity": 1,
          "duration": 0.11538449999999978
        },
        {
          "name": "E3",
          "midi": 52,
          "time": 3.923072999999996,
          "velocity": 1,
          "duration": 0.11538450000000022
        },
        {
          "name": "E3",
          "midi": 52,
          "time": 4.1538419999999965,
          "velocity": 1,
          "duration": 0.11538450000000022
        },
        {
          "name": "E3",
          "midi": 52,
          "time": 4.384610999999997,
          "velocity": 1,
          "duration": 0.11538450000000022
        },
        {
          "name": "E3",
          "midi": 52,
          "time": 4.615379999999997,
          "velocity": 1,
          "duration": 0.11538450000000022
        },
        {
          "name": "E3",
          "midi": 52,
          "time": 4.846148999999998,
          "velocity": 1,
          "duration": 0.11538450000000022
        },
        {
          "name": "E3",
          "midi": 52,
          "time": 5.076917999999998,
          "velocity": 1,
          "duration": 0.11538450000000022
        },
        {
          "name": "E3",
          "midi": 52,
          "time": 5.307686999999999,
          "velocity": 1,
          "duration": 0.11538450000000022
        },
        {
          "name": "E3",
          "midi": 52,
          "time": 5.538455999999999,
          "velocity": 1,
          "duration": 0.11538450000000022
        },
        {
          "name": "E3",
          "midi": 52,
          "time": 5.769225,
          "velocity": 1,
          "duration": 0.11538450000000022
        },
        {
          "name": "E3",
          "midi": 52,
          "time": 5.999994,
          "velocity": 1,
          "duration": 0.11538450000000022
        },
        {
          "name": "E3",
          "midi": 52,
          "time": 6.2307630000000005,
          "velocity": 1,
          "duration": 0.11538450000000022
        },
        {
          "name": "E3",
          "midi": 52,
          "time": 6.461532000000001,
          "velocity": 1,
          "duration": 0.11538450000000022
        },
        {
          "name": "E3",
          "midi": 52,
          "time": 6.692301000000001,
          "velocity": 1,
          "duration": 0.11538450000000022
        },
        {
          "name": "E3",
          "midi": 52,
          "time": 6.923070000000002,
          "velocity": 1,
          "duration": 0.11538450000000022
        },
        {
          "name": "E3",
          "midi": 52,
          "time": 7.153839000000002,
          "velocity": 1,
          "duration": 0.11538450000000022
        },
        {
          "name": "E3",
          "midi": 52,
          "time": 7.384608000000003,
          "velocity": 1,
          "duration": 0.11538450000000022
        },
        {
          "name": "E3",
          "midi": 52,
          "time": 7.615377000000003,
          "velocity": 1,
          "duration": 0.11538450000000022
        },
        {
          "name": "E3",
          "midi": 52,
          "time": 7.846146000000004,
          "velocity": 1,
          "duration": 0.11538450000000022
        },
        {
          "name": "E3",
          "midi": 52,
          "time": 8.076915000000003,
          "velocity": 1,
          "duration": 0.11538449999999933
        },
        {
          "name": "E3",
          "midi": 52,
          "time": 8.307684000000002,
          "velocity": 1,
          "duration": 0.11538449999999933
        },
        {
          "name": "E3",
          "midi": 52,
          "time": 8.538453,
          "velocity": 1,
          "duration": 0.11538449999999933
        },
        {
          "name": "E3",
          "midi": 52,
          "time": 8.769222,
          "velocity": 1,
          "duration": 0.11538449999999933
        },
        {
          "name": "E3",
          "midi": 52,
          "time": 8.999990999999998,
          "velocity": 1,
          "duration": 0.11538449999999933
        },
        {
          "name": "E3",
          "midi": 52,
          "time": 9.230759999999997,
          "velocity": 1,
          "duration": 0.11538449999999933
        },
        {
          "name": "E3",
          "midi": 52,
          "time": 9.461528999999995,
          "velocity": 1,
          "duration": 0.11538449999999933
        },
        {
          "name": "E3",
          "midi": 52,
          "time": 9.692297999999994,
          "velocity": 1,
          "duration": 0.11538449999999933
        },
        {
          "name": "E3",
          "midi": 52,
          "time": 9.923066999999993,
          "velocity": 1,
          "duration": 0.11538449999999933
        },
        {
          "name": "E3",
          "midi": 52,
          "time": 10.153835999999991,
          "velocity": 1,
          "duration": 0.11538449999999933
        },
        {
          "name": "E3",
          "midi": 52,
          "time": 10.38460499999999,
          "velocity": 1,
          "duration": 0.11538449999999933
        },
        {
          "name": "E3",
          "midi": 52,
          "time": 10.615373999999989,
          "velocity": 1,
          "duration": 0.11538449999999933
        },
        {
          "name": "E3",
          "midi": 52,
          "time": 10.846142999999987,
          "velocity": 1,
          "duration": 0.11538449999999933
        },
        {
          "name": "E3",
          "midi": 52,
          "time": 11.076911999999986,
          "velocity": 1,
          "duration": 0.11538449999999933
        },
        {
          "name": "E3",
          "midi": 52,
          "time": 11.307680999999985,
          "velocity": 1,
          "duration": 0.11538449999999933
        },
        {
          "name": "E3",
          "midi": 52,
          "time": 11.538449999999983,
          "velocity": 1,
          "duration": 0.11538449999999933
        },
        {
          "name": "E3",
          "midi": 52,
          "time": 11.769218999999982,
          "velocity": 1,
          "duration": 0.11538449999999933
        },
        {
          "name": "E3",
          "midi": 52,
          "time": 11.99998799999998,
          "velocity": 1,
          "duration": 0.11538449999999933
        },
        {
          "name": "E3",
          "midi": 52,
          "time": 12.23075699999998,
          "velocity": 1,
          "duration": 0.11538449999999933
        },
        {
          "name": "E3",
          "midi": 52,
          "time": 12.461525999999978,
          "velocity": 1,
          "duration": 0.11538449999999933
        },
        {
          "name": "E3",
          "midi": 52,
          "time": 12.692294999999977,
          "velocity": 1,
          "duration": 0.11538449999999933
        },
        {
          "name": "E3",
          "midi": 52,
          "time": 12.923063999999975,
          "velocity": 1,
          "duration": 0.11538449999999933
        },
        {
          "name": "E3",
          "midi": 52,
          "time": 13.153832999999974,
          "velocity": 1,
          "duration": 0.11538449999999933
        },
        {
          "name": "E3",
          "midi": 52,
          "time": 13.384601999999973,
          "velocity": 1,
          "duration": 0.11538449999999933
        },
        {
          "name": "E3",
          "midi": 52,
          "time": 13.615370999999971,
          "velocity": 1,
          "duration": 0.11538449999999933
        },
        {
          "name": "E3",
          "midi": 52,
          "time": 13.84613999999997,
          "velocity": 1,
          "duration": 0.11538449999999933
        },
        {
          "name": "E3",
          "midi": 52,
          "time": 14.076908999999969,
          "velocity": 1,
          "duration": 0.11538449999999933
        },
        {
          "name": "E3",
          "midi": 52,
          "time": 14.307677999999967,
          "velocity": 1,
          "duration": 0.11538449999999933
        },
        {
          "name": "E3",
          "midi": 52,
          "time": 14.538446999999966,
          "velocity": 1,
          "duration": 0.11538449999999933
        }
      ]
    },
    {
      "startTime": 0,
      "duration": 14.692293000000053,
      "length": 96,
      "id": 9,
      "name": "1/8T",
      "channelNumber": 0,
      "isPercussion": false,
      "notes": [
        {
          "name": "E3",
          "midi": 52,
          "time": 0,
          "velocity": 1,
          "duration": 0.07692299999999999
        },
        {
          "name": "E3",
          "midi": 52,
          "time": 0.15384599999999998,
          "velocity": 1,
          "duration": 0.07692299999999999
        },
        {
          "name": "E3",
          "midi": 52,
          "time": 0.30769199999999997,
          "velocity": 1,
          "duration": 0.07692299999999996
        },
        {
          "name": "E3",
          "midi": 52,
          "time": 0.4615379999999999,
          "velocity": 1,
          "duration": 0.07692299999999996
        },
        {
          "name": "E3",
          "midi": 52,
          "time": 0.6153839999999998,
          "velocity": 1,
          "duration": 0.07692299999999996
        },
        {
          "name": "E3",
          "midi": 52,
          "time": 0.7692299999999997,
          "velocity": 1,
          "duration": 0.07692299999999996
        },
        {
          "name": "E3",
          "midi": 52,
          "time": 0.9230759999999997,
          "velocity": 1,
          "duration": 0.07692299999999996
        },
        {
          "name": "E3",
          "midi": 52,
          "time": 1.0769219999999997,
          "velocity": 1,
          "duration": 0.07692300000000007
        },
        {
          "name": "E3",
          "midi": 52,
          "time": 1.2307679999999999,
          "velocity": 1,
          "duration": 0.07692300000000007
        },
        {
          "name": "E3",
          "midi": 52,
          "time": 1.384614,
          "velocity": 1,
          "duration": 0.07692300000000007
        },
        {
          "name": "E3",
          "midi": 52,
          "time": 1.5384600000000002,
          "velocity": 1,
          "duration": 0.07692300000000007
        },
        {
          "name": "E3",
          "midi": 52,
          "time": 1.6923060000000003,
          "velocity": 1,
          "duration": 0.07692300000000007
        },
        {
          "name": "E3",
          "midi": 52,
          "time": 1.8461520000000005,
          "velocity": 1,
          "duration": 0.07692300000000007
        },
        {
          "name": "E3",
          "midi": 52,
          "time": 1.9999980000000006,
          "velocity": 1,
          "duration": 0.07692299999999985
        },
        {
          "name": "E3",
          "midi": 52,
          "time": 2.1538440000000003,
          "velocity": 1,
          "duration": 0.07692299999999985
        },
        {
          "name": "E3",
          "midi": 52,
          "time": 2.30769,
          "velocity": 1,
          "duration": 0.07692299999999985
        },
        {
          "name": "E3",
          "midi": 52,
          "time": 2.4615359999999997,
          "velocity": 1,
          "duration": 0.07692299999999985
        },
        {
          "name": "E3",
          "midi": 52,
          "time": 2.6153819999999994,
          "velocity": 1,
          "duration": 0.07692299999999985
        },
        {
          "name": "E3",
          "midi": 52,
          "time": 2.769227999999999,
          "velocity": 1,
          "duration": 0.07692299999999985
        },
        {
          "name": "E3",
          "midi": 52,
          "time": 2.923073999999999,
          "velocity": 1,
          "duration": 0.07692299999999985
        },
        {
          "name": "E3",
          "midi": 52,
          "time": 3.0769199999999985,
          "velocity": 1,
          "duration": 0.07692299999999985
        },
        {
          "name": "E3",
          "midi": 52,
          "time": 3.2307659999999983,
          "velocity": 1,
          "duration": 0.07692299999999985
        },
        {
          "name": "E3",
          "midi": 52,
          "time": 3.384611999999998,
          "velocity": 1,
          "duration": 0.07692299999999985
        },
        {
          "name": "E3",
          "midi": 52,
          "time": 3.5384579999999977,
          "velocity": 1,
          "duration": 0.07692299999999985
        },
        {
          "name": "E3",
          "midi": 52,
          "time": 3.6923039999999974,
          "velocity": 1,
          "duration": 0.07692299999999985
        },
        {
          "name": "E3",
          "midi": 52,
          "time": 3.846149999999997,
          "velocity": 1,
          "duration": 0.07692299999999985
        },
        {
          "name": "E3",
          "midi": 52,
          "time": 3.9999959999999968,
          "velocity": 1,
          "duration": 0.07692299999999985
        },
        {
          "name": "E3",
          "midi": 52,
          "time": 4.1538419999999965,
          "velocity": 1,
          "duration": 0.07692299999999985
        },
        {
          "name": "E3",
          "midi": 52,
          "time": 4.307687999999996,
          "velocity": 1,
          "duration": 0.07692299999999985
        },
        {
          "name": "E3",
          "midi": 52,
          "time": 4.461533999999996,
          "velocity": 1,
          "duration": 0.07692299999999985
        },
        {
          "name": "E3",
          "midi": 52,
          "time": 4.615379999999996,
          "velocity": 1,
          "duration": 0.07692299999999985
        },
        {
          "name": "E3",
          "midi": 52,
          "time": 4.769225999999995,
          "velocity": 1,
          "duration": 0.07692299999999985
        },
        {
          "name": "E3",
          "midi": 52,
          "time": 4.923071999999995,
          "velocity": 1,
          "duration": 0.07692299999999985
        },
        {
          "name": "E3",
          "midi": 52,
          "time": 5.076917999999995,
          "velocity": 1,
          "duration": 0.07692299999999985
        },
        {
          "name": "E3",
          "midi": 52,
          "time": 5.230763999999994,
          "velocity": 1,
          "duration": 0.07692299999999985
        },
        {
          "name": "E3",
          "midi": 52,
          "time": 5.384609999999994,
          "velocity": 1,
          "duration": 0.07692299999999985
        },
        {
          "name": "E3",
          "midi": 52,
          "time": 5.538455999999994,
          "velocity": 1,
          "duration": 0.07692299999999985
        },
        {
          "name": "E3",
          "midi": 52,
          "time": 5.6923019999999935,
          "velocity": 1,
          "duration": 0.07692299999999985
        },
        {
          "name": "E3",
          "midi": 52,
          "time": 5.846147999999993,
          "velocity": 1,
          "duration": 0.07692299999999985
        },
        {
          "name": "E3",
          "midi": 52,
          "time": 5.999993999999993,
          "velocity": 1,
          "duration": 0.07692299999999985
        },
        {
          "name": "E3",
          "midi": 52,
          "time": 6.153839999999993,
          "velocity": 1,
          "duration": 0.07692299999999985
        },
        {
          "name": "E3",
          "midi": 52,
          "time": 6.307685999999992,
          "velocity": 1,
          "duration": 0.07692299999999985
        },
        {
          "name": "E3",
          "midi": 52,
          "time": 6.461531999999992,
          "velocity": 1,
          "duration": 0.07692299999999985
        },
        {
          "name": "E3",
          "midi": 52,
          "time": 6.615377999999992,
          "velocity": 1,
          "duration": 0.07692299999999985
        },
        {
          "name": "E3",
          "midi": 52,
          "time": 6.7692239999999915,
          "velocity": 1,
          "duration": 0.07692299999999985
        },
        {
          "name": "E3",
          "midi": 52,
          "time": 6.923069999999991,
          "velocity": 1,
          "duration": 0.07692299999999985
        },
        {
          "name": "E3",
          "midi": 52,
          "time": 7.076915999999991,
          "velocity": 1,
          "duration": 0.07692299999999985
        },
        {
          "name": "E3",
          "midi": 52,
          "time": 7.230761999999991,
          "velocity": 1,
          "duration": 0.07692299999999985
        },
        {
          "name": "E3",
          "midi": 52,
          "time": 7.38460799999999,
          "velocity": 1,
          "duration": 0.07692299999999985
        },
        {
          "name": "E3",
          "midi": 52,
          "time": 7.53845399999999,
          "velocity": 1,
          "duration": 0.07692299999999985
        },
        {
          "name": "E3",
          "midi": 52,
          "time": 7.69229999999999,
          "velocity": 1,
          "duration": 0.07692299999999985
        },
        {
          "name": "E3",
          "midi": 52,
          "time": 7.846145999999989,
          "velocity": 1,
          "duration": 0.07692299999999985
        },
        {
          "name": "E3",
          "midi": 52,
          "time": 7.999991999999989,
          "velocity": 1,
          "duration": 0.07692299999999985
        },
        {
          "name": "E3",
          "midi": 52,
          "time": 8.15383799999999,
          "velocity": 1,
          "duration": 0.07692300000000074
        },
        {
          "name": "E3",
          "midi": 52,
          "time": 8.307683999999991,
          "velocity": 1,
          "duration": 0.07692300000000074
        },
        {
          "name": "E3",
          "midi": 52,
          "time": 8.461529999999993,
          "velocity": 1,
          "duration": 0.07692300000000074
        },
        {
          "name": "E3",
          "midi": 52,
          "time": 8.615375999999994,
          "velocity": 1,
          "duration": 0.07692300000000074
        },
        {
          "name": "E3",
          "midi": 52,
          "time": 8.769221999999996,
          "velocity": 1,
          "duration": 0.07692300000000074
        },
        {
          "name": "E3",
          "midi": 52,
          "time": 8.923067999999997,
          "velocity": 1,
          "duration": 0.07692300000000074
        },
        {
          "name": "E3",
          "midi": 52,
          "time": 9.076913999999999,
          "velocity": 1,
          "duration": 0.07692300000000074
        },
        {
          "name": "E3",
          "midi": 52,
          "time": 9.23076,
          "velocity": 1,
          "duration": 0.07692300000000074
        },
        {
          "name": "E3",
          "midi": 52,
          "time": 9.384606000000002,
          "velocity": 1,
          "duration": 0.07692300000000074
        },
        {
          "name": "E3",
          "midi": 52,
          "time": 9.538452000000003,
          "velocity": 1,
          "duration": 0.07692300000000074
        },
        {
          "name": "E3",
          "midi": 52,
          "time": 9.692298000000005,
          "velocity": 1,
          "duration": 0.07692300000000074
        },
        {
          "name": "E3",
          "midi": 52,
          "time": 9.846144000000006,
          "velocity": 1,
          "duration": 0.07692300000000074
        },
        {
          "name": "E3",
          "midi": 52,
          "time": 9.999990000000007,
          "velocity": 1,
          "duration": 0.07692300000000074
        },
        {
          "name": "E3",
          "midi": 52,
          "time": 10.153836000000009,
          "velocity": 1,
          "duration": 0.07692300000000074
        },
        {
          "name": "E3",
          "midi": 52,
          "time": 10.30768200000001,
          "velocity": 1,
          "duration": 0.07692300000000074
        },
        {
          "name": "E3",
          "midi": 52,
          "time": 10.461528000000012,
          "velocity": 1,
          "duration": 0.07692300000000074
        },
        {
          "name": "E3",
          "midi": 52,
          "time": 10.615374000000013,
          "velocity": 1,
          "duration": 0.07692300000000074
        },
        {
          "name": "E3",
          "midi": 52,
          "time": 10.769220000000015,
          "velocity": 1,
          "duration": 0.07692300000000074
        },
        {
          "name": "E3",
          "midi": 52,
          "time": 10.923066000000016,
          "velocity": 1,
          "duration": 0.07692300000000074
        },
        {
          "name": "E3",
          "midi": 52,
          "time": 11.076912000000018,
          "velocity": 1,
          "duration": 0.07692300000000074
        },
        {
          "name": "E3",
          "midi": 52,
          "time": 11.23075800000002,
          "velocity": 1,
          "duration": 0.07692300000000074
        },
        {
          "name": "E3",
          "midi": 52,
          "time": 11.38460400000002,
          "velocity": 1,
          "duration": 0.07692300000000074
        },
        {
          "name": "E3",
          "midi": 52,
          "time": 11.538450000000022,
          "velocity": 1,
          "duration": 0.07692300000000074
        },
        {
          "name": "E3",
          "midi": 52,
          "time": 11.692296000000024,
          "velocity": 1,
          "duration": 0.07692300000000074
        },
        {
          "name": "E3",
          "midi": 52,
          "time": 11.846142000000025,
          "velocity": 1,
          "duration": 0.07692300000000074
        },
        {
          "name": "E3",
          "midi": 52,
          "time": 11.999988000000027,
          "velocity": 1,
          "duration": 0.07692300000000074
        },
        {
          "name": "E3",
          "midi": 52,
          "time": 12.153834000000028,
          "velocity": 1,
          "duration": 0.07692300000000074
        },
        {
          "name": "E3",
          "midi": 52,
          "time": 12.30768000000003,
          "velocity": 1,
          "duration": 0.07692300000000074
        },
        {
          "name": "E3",
          "midi": 52,
          "time": 12.461526000000031,
          "velocity": 1,
          "duration": 0.07692300000000074
        },
        {
          "name": "E3",
          "midi": 52,
          "time": 12.615372000000033,
          "velocity": 1,
          "duration": 0.07692300000000074
        },
        {
          "name": "E3",
          "midi": 52,
          "time": 12.769218000000034,
          "velocity": 1,
          "duration": 0.07692300000000074
        },
        {
          "name": "E3",
          "midi": 52,
          "time": 12.923064000000036,
          "velocity": 1,
          "duration": 0.07692300000000074
        },
        {
          "name": "E3",
          "midi": 52,
          "time": 13.076910000000037,
          "velocity": 1,
          "duration": 0.07692300000000074
        },
        {
          "name": "E3",
          "midi": 52,
          "time": 13.230756000000039,
          "velocity": 1,
          "duration": 0.07692300000000074
        },
        {
          "name": "E3",
          "midi": 52,
          "time": 13.38460200000004,
          "velocity": 1,
          "duration": 0.07692300000000074
        },
        {
          "name": "E3",
          "midi": 52,
          "time": 13.538448000000042,
          "velocity": 1,
          "duration": 0.07692300000000074
        },
        {
          "name": "E3",
          "midi": 52,
          "time": 13.692294000000043,
          "velocity": 1,
          "duration": 0.07692300000000074
        },
        {
          "name": "E3",
          "midi": 52,
          "time": 13.846140000000045,
          "velocity": 1,
          "duration": 0.07692300000000074
        },
        {
          "name": "E3",
          "midi": 52,
          "time": 13.999986000000046,
          "velocity": 1,
          "duration": 0.07692300000000074
        },
        {
          "name": "E3",
          "midi": 52,
          "time": 14.153832000000047,
          "velocity": 1,
          "duration": 0.07692300000000074
        },
        {
          "name": "E3",
          "midi": 52,
          "time": 14.307678000000049,
          "velocity": 1,
          "duration": 0.07692300000000074
        },
        {
          "name": "E3",
          "midi": 52,
          "time": 14.46152400000005,
          "velocity": 1,
          "duration": 0.07692300000000074
        },
        {
          "name": "E3",
          "midi": 52,
          "time": 14.615370000000052,
          "velocity": 1,
          "duration": 0.07692300000000074
        }
      ]
    },
    {
      "startTime": 0,
      "duration": 14.696139149999942,
      "length": 128,
      "id": 10,
      "name": "1/16",
      "channelNumber": 0,
      "isPercussion": false,
      "notes": [
        {
          "name": "E3",
          "midi": 52,
          "time": 0,
          "velocity": 1,
          "duration": 0.042307649999999995
        },
        {
          "name": "E3",
          "midi": 52,
          "time": 0.11538449999999997,
          "velocity": 1,
          "duration": 0.04230765
        },
        {
          "name": "E3",
          "midi": 52,
          "time": 0.23076899999999995,
          "velocity": 1,
          "duration": 0.042307649999999974
        },
        {
          "name": "E3",
          "midi": 52,
          "time": 0.3461534999999999,
          "velocity": 1,
          "duration": 0.042307649999999974
        },
        {
          "name": "E3",
          "midi": 52,
          "time": 0.46153799999999984,
          "velocity": 1,
          "duration": 0.042307649999999974
        },
        {
          "name": "E3",
          "midi": 52,
          "time": 0.5769224999999998,
          "velocity": 1,
          "duration": 0.04230765000000003
        },
        {
          "name": "E3",
          "midi": 52,
          "time": 0.6923069999999998,
          "velocity": 1,
          "duration": 0.04230765000000003
        },
        {
          "name": "E3",
          "midi": 52,
          "time": 0.8076914999999998,
          "velocity": 1,
          "duration": 0.04230765000000003
        },
        {
          "name": "E3",
          "midi": 52,
          "time": 0.9230759999999998,
          "velocity": 1,
          "duration": 0.04230765000000003
        },
        {
          "name": "E3",
          "midi": 52,
          "time": 1.0384604999999998,
          "velocity": 1,
          "duration": 0.04230764999999992
        },
        {
          "name": "E3",
          "midi": 52,
          "time": 1.1538449999999998,
          "velocity": 1,
          "duration": 0.04230764999999992
        },
        {
          "name": "E3",
          "midi": 52,
          "time": 1.2692294999999998,
          "velocity": 1,
          "duration": 0.04230764999999992
        },
        {
          "name": "E3",
          "midi": 52,
          "time": 1.3846139999999998,
          "velocity": 1,
          "duration": 0.04230764999999992
        },
        {
          "name": "E3",
          "midi": 52,
          "time": 1.4999984999999998,
          "velocity": 1,
          "duration": 0.04230764999999992
        },
        {
          "name": "E3",
          "midi": 52,
          "time": 1.6153829999999998,
          "velocity": 1,
          "duration": 0.04230764999999992
        },
        {
          "name": "E3",
          "midi": 52,
          "time": 1.7307674999999998,
          "velocity": 1,
          "duration": 0.04230764999999992
        },
        {
          "name": "E3",
          "midi": 52,
          "time": 1.8461519999999998,
          "velocity": 1,
          "duration": 0.04230764999999992
        },
        {
          "name": "E3",
          "midi": 52,
          "time": 1.9615364999999998,
          "velocity": 1,
          "duration": 0.04230765000000014
        },
        {
          "name": "E3",
          "midi": 52,
          "time": 2.076921,
          "velocity": 1,
          "duration": 0.04230765000000014
        },
        {
          "name": "E3",
          "midi": 52,
          "time": 2.1923055000000002,
          "velocity": 1,
          "duration": 0.04230765000000014
        },
        {
          "name": "E3",
          "midi": 52,
          "time": 2.3076900000000005,
          "velocity": 1,
          "duration": 0.04230765000000014
        },
        {
          "name": "E3",
          "midi": 52,
          "time": 2.4230745000000007,
          "velocity": 1,
          "duration": 0.04230765000000014
        },
        {
          "name": "E3",
          "midi": 52,
          "time": 2.538459000000001,
          "velocity": 1,
          "duration": 0.04230765000000014
        },
        {
          "name": "E3",
          "midi": 52,
          "time": 2.653843500000001,
          "velocity": 1,
          "duration": 0.04230765000000014
        },
        {
          "name": "E3",
          "midi": 52,
          "time": 2.7692280000000014,
          "velocity": 1,
          "duration": 0.04230765000000014
        },
        {
          "name": "E3",
          "midi": 52,
          "time": 2.8846125000000016,
          "velocity": 1,
          "duration": 0.04230765000000014
        },
        {
          "name": "E3",
          "midi": 52,
          "time": 2.999997000000002,
          "velocity": 1,
          "duration": 0.04230765000000014
        },
        {
          "name": "E3",
          "midi": 52,
          "time": 3.115381500000002,
          "velocity": 1,
          "duration": 0.04230765000000014
        },
        {
          "name": "E3",
          "midi": 52,
          "time": 3.2307660000000022,
          "velocity": 1,
          "duration": 0.04230765000000014
        },
        {
          "name": "E3",
          "midi": 52,
          "time": 3.3461505000000025,
          "velocity": 1,
          "duration": 0.04230765000000014
        },
        {
          "name": "E3",
          "midi": 52,
          "time": 3.4615350000000027,
          "velocity": 1,
          "duration": 0.04230765000000014
        },
        {
          "name": "E3",
          "midi": 52,
          "time": 3.576919500000003,
          "velocity": 1,
          "duration": 0.04230765000000014
        },
        {
          "name": "E3",
          "midi": 52,
          "time": 3.692304000000003,
          "velocity": 1,
          "duration": 0.04230765000000014
        },
        {
          "name": "E3",
          "midi": 52,
          "time": 3.8076885000000034,
          "velocity": 1,
          "duration": 0.04230765000000014
        },
        {
          "name": "E3",
          "midi": 52,
          "time": 3.9230730000000036,
          "velocity": 1,
          "duration": 0.04230765000000014
        },
        {
          "name": "E3",
          "midi": 52,
          "time": 4.038457500000003,
          "velocity": 1,
          "duration": 0.0423076499999997
        },
        {
          "name": "E3",
          "midi": 52,
          "time": 4.153842000000003,
          "velocity": 1,
          "duration": 0.0423076499999997
        },
        {
          "name": "E3",
          "midi": 52,
          "time": 4.269226500000002,
          "velocity": 1,
          "duration": 0.0423076499999997
        },
        {
          "name": "E3",
          "midi": 52,
          "time": 4.384611000000001,
          "velocity": 1,
          "duration": 0.0423076499999997
        },
        {
          "name": "E3",
          "midi": 52,
          "time": 4.499995500000001,
          "velocity": 1,
          "duration": 0.0423076499999997
        },
        {
          "name": "E3",
          "midi": 52,
          "time": 4.61538,
          "velocity": 1,
          "duration": 0.0423076499999997
        },
        {
          "name": "E3",
          "midi": 52,
          "time": 4.730764499999999,
          "velocity": 1,
          "duration": 0.0423076499999997
        },
        {
          "name": "E3",
          "midi": 52,
          "time": 4.846148999999999,
          "velocity": 1,
          "duration": 0.0423076499999997
        },
        {
          "name": "E3",
          "midi": 52,
          "time": 4.961533499999998,
          "velocity": 1,
          "duration": 0.0423076499999997
        },
        {
          "name": "E3",
          "midi": 52,
          "time": 5.076917999999997,
          "velocity": 1,
          "duration": 0.0423076499999997
        },
        {
          "name": "E3",
          "midi": 52,
          "time": 5.192302499999997,
          "velocity": 1,
          "duration": 0.0423076499999997
        },
        {
          "name": "E3",
          "midi": 52,
          "time": 5.307686999999996,
          "velocity": 1,
          "duration": 0.0423076499999997
        },
        {
          "name": "E3",
          "midi": 52,
          "time": 5.423071499999995,
          "velocity": 1,
          "duration": 0.0423076499999997
        },
        {
          "name": "E3",
          "midi": 52,
          "time": 5.538455999999995,
          "velocity": 1,
          "duration": 0.0423076499999997
        },
        {
          "name": "E3",
          "midi": 52,
          "time": 5.653840499999994,
          "velocity": 1,
          "duration": 0.0423076499999997
        },
        {
          "name": "E3",
          "midi": 52,
          "time": 5.769224999999993,
          "velocity": 1,
          "duration": 0.0423076499999997
        },
        {
          "name": "E3",
          "midi": 52,
          "time": 5.884609499999993,
          "velocity": 1,
          "duration": 0.0423076499999997
        },
        {
          "name": "E3",
          "midi": 52,
          "time": 5.999993999999992,
          "velocity": 1,
          "duration": 0.0423076499999997
        },
        {
          "name": "E3",
          "midi": 52,
          "time": 6.115378499999991,
          "velocity": 1,
          "duration": 0.0423076499999997
        },
        {
          "name": "E3",
          "midi": 52,
          "time": 6.230762999999991,
          "velocity": 1,
          "duration": 0.0423076499999997
        },
        {
          "name": "E3",
          "midi": 52,
          "time": 6.34614749999999,
          "velocity": 1,
          "duration": 0.0423076499999997
        },
        {
          "name": "E3",
          "midi": 52,
          "time": 6.461531999999989,
          "velocity": 1,
          "duration": 0.0423076499999997
        },
        {
          "name": "E3",
          "midi": 52,
          "time": 6.576916499999989,
          "velocity": 1,
          "duration": 0.0423076499999997
        },
        {
          "name": "E3",
          "midi": 52,
          "time": 6.692300999999988,
          "velocity": 1,
          "duration": 0.0423076499999997
        },
        {
          "name": "E3",
          "midi": 52,
          "time": 6.807685499999987,
          "velocity": 1,
          "duration": 0.0423076499999997
        },
        {
          "name": "E3",
          "midi": 52,
          "time": 6.923069999999987,
          "velocity": 1,
          "duration": 0.0423076499999997
        },
        {
          "name": "E3",
          "midi": 52,
          "time": 7.038454499999986,
          "velocity": 1,
          "duration": 0.0423076499999997
        },
        {
          "name": "E3",
          "midi": 52,
          "time": 7.153838999999985,
          "velocity": 1,
          "duration": 0.0423076499999997
        },
        {
          "name": "E3",
          "midi": 52,
          "time": 7.269223499999985,
          "velocity": 1,
          "duration": 0.0423076499999997
        },
        {
          "name": "E3",
          "midi": 52,
          "time": 7.384607999999984,
          "velocity": 1,
          "duration": 0.0423076499999997
        },
        {
          "name": "E3",
          "midi": 52,
          "time": 7.499992499999983,
          "velocity": 1,
          "duration": 0.0423076499999997
        },
        {
          "name": "E3",
          "midi": 52,
          "time": 7.615376999999983,
          "velocity": 1,
          "duration": 0.0423076499999997
        },
        {
          "name": "E3",
          "midi": 52,
          "time": 7.730761499999982,
          "velocity": 1,
          "duration": 0.0423076499999997
        },
        {
          "name": "E3",
          "midi": 52,
          "time": 7.846145999999981,
          "velocity": 1,
          "duration": 0.0423076499999997
        },
        {
          "name": "E3",
          "midi": 52,
          "time": 7.961530499999981,
          "velocity": 1,
          "duration": 0.0423076499999997
        },
        {
          "name": "E3",
          "midi": 52,
          "time": 8.07691499999998,
          "velocity": 1,
          "duration": 0.0423076499999997
        },
        {
          "name": "E3",
          "midi": 52,
          "time": 8.19229949999998,
          "velocity": 1,
          "duration": 0.0423076499999997
        },
        {
          "name": "E3",
          "midi": 52,
          "time": 8.307683999999979,
          "velocity": 1,
          "duration": 0.0423076499999997
        },
        {
          "name": "E3",
          "midi": 52,
          "time": 8.423068499999978,
          "velocity": 1,
          "duration": 0.0423076499999997
        },
        {
          "name": "E3",
          "midi": 52,
          "time": 8.538452999999977,
          "velocity": 1,
          "duration": 0.0423076499999997
        },
        {
          "name": "E3",
          "midi": 52,
          "time": 8.653837499999977,
          "velocity": 1,
          "duration": 0.0423076499999997
        },
        {
          "name": "E3",
          "midi": 52,
          "time": 8.769221999999976,
          "velocity": 1,
          "duration": 0.0423076499999997
        },
        {
          "name": "E3",
          "midi": 52,
          "time": 8.884606499999975,
          "velocity": 1,
          "duration": 0.0423076499999997
        },
        {
          "name": "E3",
          "midi": 52,
          "time": 8.999990999999975,
          "velocity": 1,
          "duration": 0.0423076499999997
        },
        {
          "name": "E3",
          "midi": 52,
          "time": 9.115375499999974,
          "velocity": 1,
          "duration": 0.0423076499999997
        },
        {
          "name": "E3",
          "midi": 52,
          "time": 9.230759999999973,
          "velocity": 1,
          "duration": 0.0423076499999997
        },
        {
          "name": "E3",
          "midi": 52,
          "time": 9.346144499999973,
          "velocity": 1,
          "duration": 0.0423076499999997
        },
        {
          "name": "E3",
          "midi": 52,
          "time": 9.461528999999972,
          "velocity": 1,
          "duration": 0.0423076499999997
        },
        {
          "name": "E3",
          "midi": 52,
          "time": 9.576913499999971,
          "velocity": 1,
          "duration": 0.0423076499999997
        },
        {
          "name": "E3",
          "midi": 52,
          "time": 9.69229799999997,
          "velocity": 1,
          "duration": 0.0423076499999997
        },
        {
          "name": "E3",
          "midi": 52,
          "time": 9.80768249999997,
          "velocity": 1,
          "duration": 0.0423076499999997
        },
        {
          "name": "E3",
          "midi": 52,
          "time": 9.92306699999997,
          "velocity": 1,
          "duration": 0.0423076499999997
        },
        {
          "name": "E3",
          "midi": 52,
          "time": 10.038451499999969,
          "velocity": 1,
          "duration": 0.0423076499999997
        },
        {
          "name": "E3",
          "midi": 52,
          "time": 10.153835999999968,
          "velocity": 1,
          "duration": 0.0423076499999997
        },
        {
          "name": "E3",
          "midi": 52,
          "time": 10.269220499999967,
          "velocity": 1,
          "duration": 0.0423076499999997
        },
        {
          "name": "E3",
          "midi": 52,
          "time": 10.384604999999967,
          "velocity": 1,
          "duration": 0.0423076499999997
        },
        {
          "name": "E3",
          "midi": 52,
          "time": 10.499989499999966,
          "velocity": 1,
          "duration": 0.0423076499999997
        },
        {
          "name": "E3",
          "midi": 52,
          "time": 10.615373999999965,
          "velocity": 1,
          "duration": 0.0423076499999997
        },
        {
          "name": "E3",
          "midi": 52,
          "time": 10.730758499999965,
          "velocity": 1,
          "duration": 0.0423076499999997
        },
        {
          "name": "E3",
          "midi": 52,
          "time": 10.846142999999964,
          "velocity": 1,
          "duration": 0.0423076499999997
        },
        {
          "name": "E3",
          "midi": 52,
          "time": 10.961527499999963,
          "velocity": 1,
          "duration": 0.0423076499999997
        },
        {
          "name": "E3",
          "midi": 52,
          "time": 11.076911999999963,
          "velocity": 1,
          "duration": 0.0423076499999997
        },
        {
          "name": "E3",
          "midi": 52,
          "time": 11.192296499999962,
          "velocity": 1,
          "duration": 0.0423076499999997
        },
        {
          "name": "E3",
          "midi": 52,
          "time": 11.307680999999961,
          "velocity": 1,
          "duration": 0.0423076499999997
        },
        {
          "name": "E3",
          "midi": 52,
          "time": 11.42306549999996,
          "velocity": 1,
          "duration": 0.0423076499999997
        },
        {
          "name": "E3",
          "midi": 52,
          "time": 11.53844999999996,
          "velocity": 1,
          "duration": 0.0423076499999997
        },
        {
          "name": "E3",
          "midi": 52,
          "time": 11.65383449999996,
          "velocity": 1,
          "duration": 0.0423076499999997
        },
        {
          "name": "E3",
          "midi": 52,
          "time": 11.769218999999959,
          "velocity": 1,
          "duration": 0.0423076499999997
        },
        {
          "name": "E3",
          "midi": 52,
          "time": 11.884603499999958,
          "velocity": 1,
          "duration": 0.0423076499999997
        },
        {
          "name": "E3",
          "midi": 52,
          "time": 11.999987999999957,
          "velocity": 1,
          "duration": 0.0423076499999997
        },
        {
          "name": "E3",
          "midi": 52,
          "time": 12.115372499999957,
          "velocity": 1,
          "duration": 0.0423076499999997
        },
        {
          "name": "E3",
          "midi": 52,
          "time": 12.230756999999956,
          "velocity": 1,
          "duration": 0.0423076499999997
        },
        {
          "name": "E3",
          "midi": 52,
          "time": 12.346141499999955,
          "velocity": 1,
          "duration": 0.0423076499999997
        },
        {
          "name": "E3",
          "midi": 52,
          "time": 12.461525999999955,
          "velocity": 1,
          "duration": 0.0423076499999997
        },
        {
          "name": "E3",
          "midi": 52,
          "time": 12.576910499999954,
          "velocity": 1,
          "duration": 0.0423076499999997
        },
        {
          "name": "E3",
          "midi": 52,
          "time": 12.692294999999953,
          "velocity": 1,
          "duration": 0.0423076499999997
        },
        {
          "name": "E3",
          "midi": 52,
          "time": 12.807679499999953,
          "velocity": 1,
          "duration": 0.0423076499999997
        },
        {
          "name": "E3",
          "midi": 52,
          "time": 12.923063999999952,
          "velocity": 1,
          "duration": 0.0423076499999997
        },
        {
          "name": "E3",
          "midi": 52,
          "time": 13.038448499999951,
          "velocity": 1,
          "duration": 0.0423076499999997
        },
        {
          "name": "E3",
          "midi": 52,
          "time": 13.15383299999995,
          "velocity": 1,
          "duration": 0.0423076499999997
        },
        {
          "name": "E3",
          "midi": 52,
          "time": 13.26921749999995,
          "velocity": 1,
          "duration": 0.0423076499999997
        },
        {
          "name": "E3",
          "midi": 52,
          "time": 13.38460199999995,
          "velocity": 1,
          "duration": 0.0423076499999997
        },
        {
          "name": "E3",
          "midi": 52,
          "time": 13.499986499999949,
          "velocity": 1,
          "duration": 0.0423076499999997
        },
        {
          "name": "E3",
          "midi": 52,
          "time": 13.615370999999948,
          "velocity": 1,
          "duration": 0.0423076499999997
        },
        {
          "name": "E3",
          "midi": 52,
          "time": 13.730755499999947,
          "velocity": 1,
          "duration": 0.0423076499999997
        },
        {
          "name": "E3",
          "midi": 52,
          "time": 13.846139999999947,
          "velocity": 1,
          "duration": 0.0423076499999997
        },
        {
          "name": "E3",
          "midi": 52,
          "time": 13.961524499999946,
          "velocity": 1,
          "duration": 0.0423076499999997
        },
        {
          "name": "E3",
          "midi": 52,
          "time": 14.076908999999945,
          "velocity": 1,
          "duration": 0.0423076499999997
        },
        {
          "name": "E3",
          "midi": 52,
          "time": 14.192293499999945,
          "velocity": 1,
          "duration": 0.0423076499999997
        },
        {
          "name": "E3",
          "midi": 52,
          "time": 14.307677999999944,
          "velocity": 1,
          "duration": 0.0423076499999997
        },
        {
          "name": "E3",
          "midi": 52,
          "time": 14.423062499999943,
          "velocity": 1,
          "duration": 0.0423076499999997
        },
        {
          "name": "E3",
          "midi": 52,
          "time": 14.538446999999943,
          "velocity": 1,
          "duration": 0.0423076499999997
        },
        {
          "name": "E3",
          "midi": 52,
          "time": 14.653831499999942,
          "velocity": 1,
          "duration": 0.0423076499999997
        }
      ]
    },
    {
      "startTime": 0,
      "duration": 14.696139149999942,
      "length": 128,
      "id": 11,
      "name": "1/16",
      "channelNumber": 0,
      "isPercussion": false,
      "notes": [
        {
          "name": "E3",
          "midi": 52,
          "time": 0,
          "velocity": 1,
          "duration": 0.042307649999999995
        },
        {
          "name": "E3",
          "midi": 52,
          "time": 0.11538449999999997,
          "velocity": 1,
          "duration": 0.04230765
        },
        {
          "name": "E3",
          "midi": 52,
          "time": 0.23076899999999995,
          "velocity": 1,
          "duration": 0.042307649999999974
        },
        {
          "name": "E3",
          "midi": 52,
          "time": 0.3461534999999999,
          "velocity": 1,
          "duration": 0.042307649999999974
        },
        {
          "name": "E3",
          "midi": 52,
          "time": 0.46153799999999984,
          "velocity": 1,
          "duration": 0.042307649999999974
        },
        {
          "name": "E3",
          "midi": 52,
          "time": 0.5769224999999998,
          "velocity": 1,
          "duration": 0.04230765000000003
        },
        {
          "name": "E3",
          "midi": 52,
          "time": 0.6923069999999998,
          "velocity": 1,
          "duration": 0.04230765000000003
        },
        {
          "name": "E3",
          "midi": 52,
          "time": 0.8076914999999998,
          "velocity": 1,
          "duration": 0.04230765000000003
        },
        {
          "name": "E3",
          "midi": 52,
          "time": 0.9230759999999998,
          "velocity": 1,
          "duration": 0.04230765000000003
        },
        {
          "name": "E3",
          "midi": 52,
          "time": 1.0384604999999998,
          "velocity": 1,
          "duration": 0.04230764999999992
        },
        {
          "name": "E3",
          "midi": 52,
          "time": 1.1538449999999998,
          "velocity": 1,
          "duration": 0.04230764999999992
        },
        {
          "name": "E3",
          "midi": 52,
          "time": 1.2692294999999998,
          "velocity": 1,
          "duration": 0.04230764999999992
        },
        {
          "name": "E3",
          "midi": 52,
          "time": 1.3846139999999998,
          "velocity": 1,
          "duration": 0.04230764999999992
        },
        {
          "name": "E3",
          "midi": 52,
          "time": 1.4999984999999998,
          "velocity": 1,
          "duration": 0.04230764999999992
        },
        {
          "name": "E3",
          "midi": 52,
          "time": 1.6153829999999998,
          "velocity": 1,
          "duration": 0.04230764999999992
        },
        {
          "name": "E3",
          "midi": 52,
          "time": 1.7307674999999998,
          "velocity": 1,
          "duration": 0.04230764999999992
        },
        {
          "name": "E3",
          "midi": 52,
          "time": 1.8461519999999998,
          "velocity": 1,
          "duration": 0.04230764999999992
        },
        {
          "name": "E3",
          "midi": 52,
          "time": 1.9615364999999998,
          "velocity": 1,
          "duration": 0.04230765000000014
        },
        {
          "name": "E3",
          "midi": 52,
          "time": 2.076921,
          "velocity": 1,
          "duration": 0.04230765000000014
        },
        {
          "name": "E3",
          "midi": 52,
          "time": 2.1923055000000002,
          "velocity": 1,
          "duration": 0.04230765000000014
        },
        {
          "name": "E3",
          "midi": 52,
          "time": 2.3076900000000005,
          "velocity": 1,
          "duration": 0.04230765000000014
        },
        {
          "name": "E3",
          "midi": 52,
          "time": 2.4230745000000007,
          "velocity": 1,
          "duration": 0.04230765000000014
        },
        {
          "name": "E3",
          "midi": 52,
          "time": 2.538459000000001,
          "velocity": 1,
          "duration": 0.04230765000000014
        },
        {
          "name": "E3",
          "midi": 52,
          "time": 2.653843500000001,
          "velocity": 1,
          "duration": 0.04230765000000014
        },
        {
          "name": "E3",
          "midi": 52,
          "time": 2.7692280000000014,
          "velocity": 1,
          "duration": 0.04230765000000014
        },
        {
          "name": "E3",
          "midi": 52,
          "time": 2.8846125000000016,
          "velocity": 1,
          "duration": 0.04230765000000014
        },
        {
          "name": "E3",
          "midi": 52,
          "time": 2.999997000000002,
          "velocity": 1,
          "duration": 0.04230765000000014
        },
        {
          "name": "E3",
          "midi": 52,
          "time": 3.115381500000002,
          "velocity": 1,
          "duration": 0.04230765000000014
        },
        {
          "name": "E3",
          "midi": 52,
          "time": 3.2307660000000022,
          "velocity": 1,
          "duration": 0.04230765000000014
        },
        {
          "name": "E3",
          "midi": 52,
          "time": 3.3461505000000025,
          "velocity": 1,
          "duration": 0.04230765000000014
        },
        {
          "name": "E3",
          "midi": 52,
          "time": 3.4615350000000027,
          "velocity": 1,
          "duration": 0.04230765000000014
        },
        {
          "name": "E3",
          "midi": 52,
          "time": 3.576919500000003,
          "velocity": 1,
          "duration": 0.04230765000000014
        },
        {
          "name": "E3",
          "midi": 52,
          "time": 3.692304000000003,
          "velocity": 1,
          "duration": 0.04230765000000014
        },
        {
          "name": "E3",
          "midi": 52,
          "time": 3.8076885000000034,
          "velocity": 1,
          "duration": 0.04230765000000014
        },
        {
          "name": "E3",
          "midi": 52,
          "time": 3.9230730000000036,
          "velocity": 1,
          "duration": 0.04230765000000014
        },
        {
          "name": "E3",
          "midi": 52,
          "time": 4.038457500000003,
          "velocity": 1,
          "duration": 0.0423076499999997
        },
        {
          "name": "E3",
          "midi": 52,
          "time": 4.153842000000003,
          "velocity": 1,
          "duration": 0.0423076499999997
        },
        {
          "name": "E3",
          "midi": 52,
          "time": 4.269226500000002,
          "velocity": 1,
          "duration": 0.0423076499999997
        },
        {
          "name": "E3",
          "midi": 52,
          "time": 4.384611000000001,
          "velocity": 1,
          "duration": 0.0423076499999997
        },
        {
          "name": "E3",
          "midi": 52,
          "time": 4.499995500000001,
          "velocity": 1,
          "duration": 0.0423076499999997
        },
        {
          "name": "E3",
          "midi": 52,
          "time": 4.61538,
          "velocity": 1,
          "duration": 0.0423076499999997
        },
        {
          "name": "E3",
          "midi": 52,
          "time": 4.730764499999999,
          "velocity": 1,
          "duration": 0.0423076499999997
        },
        {
          "name": "E3",
          "midi": 52,
          "time": 4.846148999999999,
          "velocity": 1,
          "duration": 0.0423076499999997
        },
        {
          "name": "E3",
          "midi": 52,
          "time": 4.961533499999998,
          "velocity": 1,
          "duration": 0.0423076499999997
        },
        {
          "name": "E3",
          "midi": 52,
          "time": 5.076917999999997,
          "velocity": 1,
          "duration": 0.0423076499999997
        },
        {
          "name": "E3",
          "midi": 52,
          "time": 5.192302499999997,
          "velocity": 1,
          "duration": 0.0423076499999997
        },
        {
          "name": "E3",
          "midi": 52,
          "time": 5.307686999999996,
          "velocity": 1,
          "duration": 0.0423076499999997
        },
        {
          "name": "E3",
          "midi": 52,
          "time": 5.423071499999995,
          "velocity": 1,
          "duration": 0.0423076499999997
        },
        {
          "name": "E3",
          "midi": 52,
          "time": 5.538455999999995,
          "velocity": 1,
          "duration": 0.0423076499999997
        },
        {
          "name": "E3",
          "midi": 52,
          "time": 5.653840499999994,
          "velocity": 1,
          "duration": 0.0423076499999997
        },
        {
          "name": "E3",
          "midi": 52,
          "time": 5.769224999999993,
          "velocity": 1,
          "duration": 0.0423076499999997
        },
        {
          "name": "E3",
          "midi": 52,
          "time": 5.884609499999993,
          "velocity": 1,
          "duration": 0.0423076499999997
        },
        {
          "name": "E3",
          "midi": 52,
          "time": 5.999993999999992,
          "velocity": 1,
          "duration": 0.0423076499999997
        },
        {
          "name": "E3",
          "midi": 52,
          "time": 6.115378499999991,
          "velocity": 1,
          "duration": 0.0423076499999997
        },
        {
          "name": "E3",
          "midi": 52,
          "time": 6.230762999999991,
          "velocity": 1,
          "duration": 0.0423076499999997
        },
        {
          "name": "E3",
          "midi": 52,
          "time": 6.34614749999999,
          "velocity": 1,
          "duration": 0.0423076499999997
        },
        {
          "name": "E3",
          "midi": 52,
          "time": 6.461531999999989,
          "velocity": 1,
          "duration": 0.0423076499999997
        },
        {
          "name": "E3",
          "midi": 52,
          "time": 6.576916499999989,
          "velocity": 1,
          "duration": 0.0423076499999997
        },
        {
          "name": "E3",
          "midi": 52,
          "time": 6.692300999999988,
          "velocity": 1,
          "duration": 0.0423076499999997
        },
        {
          "name": "E3",
          "midi": 52,
          "time": 6.807685499999987,
          "velocity": 1,
          "duration": 0.0423076499999997
        },
        {
          "name": "E3",
          "midi": 52,
          "time": 6.923069999999987,
          "velocity": 1,
          "duration": 0.0423076499999997
        },
        {
          "name": "E3",
          "midi": 52,
          "time": 7.038454499999986,
          "velocity": 1,
          "duration": 0.0423076499999997
        },
        {
          "name": "E3",
          "midi": 52,
          "time": 7.153838999999985,
          "velocity": 1,
          "duration": 0.0423076499999997
        },
        {
          "name": "E3",
          "midi": 52,
          "time": 7.269223499999985,
          "velocity": 1,
          "duration": 0.0423076499999997
        },
        {
          "name": "E3",
          "midi": 52,
          "time": 7.384607999999984,
          "velocity": 1,
          "duration": 0.0423076499999997
        },
        {
          "name": "E3",
          "midi": 52,
          "time": 7.499992499999983,
          "velocity": 1,
          "duration": 0.0423076499999997
        },
        {
          "name": "E3",
          "midi": 52,
          "time": 7.615376999999983,
          "velocity": 1,
          "duration": 0.0423076499999997
        },
        {
          "name": "E3",
          "midi": 52,
          "time": 7.730761499999982,
          "velocity": 1,
          "duration": 0.0423076499999997
        },
        {
          "name": "E3",
          "midi": 52,
          "time": 7.846145999999981,
          "velocity": 1,
          "duration": 0.0423076499999997
        },
        {
          "name": "E3",
          "midi": 52,
          "time": 7.961530499999981,
          "velocity": 1,
          "duration": 0.0423076499999997
        },
        {
          "name": "E3",
          "midi": 52,
          "time": 8.07691499999998,
          "velocity": 1,
          "duration": 0.0423076499999997
        },
        {
          "name": "E3",
          "midi": 52,
          "time": 8.19229949999998,
          "velocity": 1,
          "duration": 0.0423076499999997
        },
        {
          "name": "E3",
          "midi": 52,
          "time": 8.307683999999979,
          "velocity": 1,
          "duration": 0.0423076499999997
        },
        {
          "name": "E3",
          "midi": 52,
          "time": 8.423068499999978,
          "velocity": 1,
          "duration": 0.0423076499999997
        },
        {
          "name": "E3",
          "midi": 52,
          "time": 8.538452999999977,
          "velocity": 1,
          "duration": 0.0423076499999997
        },
        {
          "name": "E3",
          "midi": 52,
          "time": 8.653837499999977,
          "velocity": 1,
          "duration": 0.0423076499999997
        },
        {
          "name": "E3",
          "midi": 52,
          "time": 8.769221999999976,
          "velocity": 1,
          "duration": 0.0423076499999997
        },
        {
          "name": "E3",
          "midi": 52,
          "time": 8.884606499999975,
          "velocity": 1,
          "duration": 0.0423076499999997
        },
        {
          "name": "E3",
          "midi": 52,
          "time": 8.999990999999975,
          "velocity": 1,
          "duration": 0.0423076499999997
        },
        {
          "name": "E3",
          "midi": 52,
          "time": 9.115375499999974,
          "velocity": 1,
          "duration": 0.0423076499999997
        },
        {
          "name": "E3",
          "midi": 52,
          "time": 9.230759999999973,
          "velocity": 1,
          "duration": 0.0423076499999997
        },
        {
          "name": "E3",
          "midi": 52,
          "time": 9.346144499999973,
          "velocity": 1,
          "duration": 0.0423076499999997
        },
        {
          "name": "E3",
          "midi": 52,
          "time": 9.461528999999972,
          "velocity": 1,
          "duration": 0.0423076499999997
        },
        {
          "name": "E3",
          "midi": 52,
          "time": 9.576913499999971,
          "velocity": 1,
          "duration": 0.0423076499999997
        },
        {
          "name": "E3",
          "midi": 52,
          "time": 9.69229799999997,
          "velocity": 1,
          "duration": 0.0423076499999997
        },
        {
          "name": "E3",
          "midi": 52,
          "time": 9.80768249999997,
          "velocity": 1,
          "duration": 0.0423076499999997
        },
        {
          "name": "E3",
          "midi": 52,
          "time": 9.92306699999997,
          "velocity": 1,
          "duration": 0.0423076499999997
        },
        {
          "name": "E3",
          "midi": 52,
          "time": 10.038451499999969,
          "velocity": 1,
          "duration": 0.0423076499999997
        },
        {
          "name": "E3",
          "midi": 52,
          "time": 10.153835999999968,
          "velocity": 1,
          "duration": 0.0423076499999997
        },
        {
          "name": "E3",
          "midi": 52,
          "time": 10.269220499999967,
          "velocity": 1,
          "duration": 0.0423076499999997
        },
        {
          "name": "E3",
          "midi": 52,
          "time": 10.384604999999967,
          "velocity": 1,
          "duration": 0.0423076499999997
        },
        {
          "name": "E3",
          "midi": 52,
          "time": 10.499989499999966,
          "velocity": 1,
          "duration": 0.0423076499999997
        },
        {
          "name": "E3",
          "midi": 52,
          "time": 10.615373999999965,
          "velocity": 1,
          "duration": 0.0423076499999997
        },
        {
          "name": "E3",
          "midi": 52,
          "time": 10.730758499999965,
          "velocity": 1,
          "duration": 0.0423076499999997
        },
        {
          "name": "E3",
          "midi": 52,
          "time": 10.846142999999964,
          "velocity": 1,
          "duration": 0.0423076499999997
        },
        {
          "name": "E3",
          "midi": 52,
          "time": 10.961527499999963,
          "velocity": 1,
          "duration": 0.0423076499999997
        },
        {
          "name": "E3",
          "midi": 52,
          "time": 11.076911999999963,
          "velocity": 1,
          "duration": 0.0423076499999997
        },
        {
          "name": "E3",
          "midi": 52,
          "time": 11.192296499999962,
          "velocity": 1,
          "duration": 0.0423076499999997
        },
        {
          "name": "E3",
          "midi": 52,
          "time": 11.307680999999961,
          "velocity": 1,
          "duration": 0.0423076499999997
        },
        {
          "name": "E3",
          "midi": 52,
          "time": 11.42306549999996,
          "velocity": 1,
          "duration": 0.0423076499999997
        },
        {
          "name": "E3",
          "midi": 52,
          "time": 11.53844999999996,
          "velocity": 1,
          "duration": 0.0423076499999997
        },
        {
          "name": "E3",
          "midi": 52,
          "time": 11.65383449999996,
          "velocity": 1,
          "duration": 0.0423076499999997
        },
        {
          "name": "E3",
          "midi": 52,
          "time": 11.769218999999959,
          "velocity": 1,
          "duration": 0.0423076499999997
        },
        {
          "name": "E3",
          "midi": 52,
          "time": 11.884603499999958,
          "velocity": 1,
          "duration": 0.0423076499999997
        },
        {
          "name": "E3",
          "midi": 52,
          "time": 11.999987999999957,
          "velocity": 1,
          "duration": 0.0423076499999997
        },
        {
          "name": "E3",
          "midi": 52,
          "time": 12.115372499999957,
          "velocity": 1,
          "duration": 0.0423076499999997
        },
        {
          "name": "E3",
          "midi": 52,
          "time": 12.230756999999956,
          "velocity": 1,
          "duration": 0.0423076499999997
        },
        {
          "name": "E3",
          "midi": 52,
          "time": 12.346141499999955,
          "velocity": 1,
          "duration": 0.0423076499999997
        },
        {
          "name": "E3",
          "midi": 52,
          "time": 12.461525999999955,
          "velocity": 1,
          "duration": 0.0423076499999997
        },
        {
          "name": "E3",
          "midi": 52,
          "time": 12.576910499999954,
          "velocity": 1,
          "duration": 0.0423076499999997
        },
        {
          "name": "E3",
          "midi": 52,
          "time": 12.692294999999953,
          "velocity": 1,
          "duration": 0.0423076499999997
        },
        {
          "name": "E3",
          "midi": 52,
          "time": 12.807679499999953,
          "velocity": 1,
          "duration": 0.0423076499999997
        },
        {
          "name": "E3",
          "midi": 52,
          "time": 12.923063999999952,
          "velocity": 1,
          "duration": 0.0423076499999997
        },
        {
          "name": "E3",
          "midi": 52,
          "time": 13.038448499999951,
          "velocity": 1,
          "duration": 0.0423076499999997
        },
        {
          "name": "E3",
          "midi": 52,
          "time": 13.15383299999995,
          "velocity": 1,
          "duration": 0.0423076499999997
        },
        {
          "name": "E3",
          "midi": 52,
          "time": 13.26921749999995,
          "velocity": 1,
          "duration": 0.0423076499999997
        },
        {
          "name": "E3",
          "midi": 52,
          "time": 13.38460199999995,
          "velocity": 1,
          "duration": 0.0423076499999997
        },
        {
          "name": "E3",
          "midi": 52,
          "time": 13.499986499999949,
          "velocity": 1,
          "duration": 0.0423076499999997
        },
        {
          "name": "E3",
          "midi": 52,
          "time": 13.615370999999948,
          "velocity": 1,
          "duration": 0.0423076499999997
        },
        {
          "name": "E3",
          "midi": 52,
          "time": 13.730755499999947,
          "velocity": 1,
          "duration": 0.0423076499999997
        },
        {
          "name": "E3",
          "midi": 52,
          "time": 13.846139999999947,
          "velocity": 1,
          "duration": 0.0423076499999997
        },
        {
          "name": "E3",
          "midi": 52,
          "time": 13.961524499999946,
          "velocity": 1,
          "duration": 0.0423076499999997
        },
        {
          "name": "E3",
          "midi": 52,
          "time": 14.076908999999945,
          "velocity": 1,
          "duration": 0.0423076499999997
        },
        {
          "name": "E3",
          "midi": 52,
          "time": 14.192293499999945,
          "velocity": 1,
          "duration": 0.0423076499999997
        },
        {
          "name": "E3",
          "midi": 52,
          "time": 14.307677999999944,
          "velocity": 1,
          "duration": 0.0423076499999997
        },
        {
          "name": "E3",
          "midi": 52,
          "time": 14.423062499999943,
          "velocity": 1,
          "duration": 0.0423076499999997
        },
        {
          "name": "E3",
          "midi": 52,
          "time": 14.538446999999943,
          "velocity": 1,
          "duration": 0.0423076499999997
        },
        {
          "name": "E3",
          "midi": 52,
          "time": 14.653831499999942,
          "velocity": 1,
          "duration": 0.0423076499999997
        }
      ]
    },
    {
      "startTime": 0,
      "duration": 14.730754500000097,
      "length": 192,
      "id": 12,
      "name": "1/16T",
      "channelNumber": 0,
      "isPercussion": false,
      "notes": [
        {
          "name": "E3",
          "midi": 52,
          "time": 0,
          "velocity": 1,
          "duration": 0.038461499999999996
        },
        {
          "name": "E3",
          "midi": 52,
          "time": 0.07692299999999999,
          "velocity": 1,
          "duration": 0.038461499999999996
        },
        {
          "name": "E3",
          "midi": 52,
          "time": 0.15384599999999998,
          "velocity": 1,
          "duration": 0.03846149999999998
        },
        {
          "name": "E3",
          "midi": 52,
          "time": 0.23076899999999995,
          "velocity": 1,
          "duration": 0.03846149999999998
        },
        {
          "name": "E3",
          "midi": 52,
          "time": 0.3076919999999999,
          "velocity": 1,
          "duration": 0.03846149999999998
        },
        {
          "name": "E3",
          "midi": 52,
          "time": 0.3846149999999999,
          "velocity": 1,
          "duration": 0.03846149999999998
        },
        {
          "name": "E3",
          "midi": 52,
          "time": 0.46153799999999984,
          "velocity": 1,
          "duration": 0.03846149999999998
        },
        {
          "name": "E3",
          "midi": 52,
          "time": 0.5384609999999999,
          "velocity": 1,
          "duration": 0.03846150000000004
        },
        {
          "name": "E3",
          "midi": 52,
          "time": 0.6153839999999999,
          "velocity": 1,
          "duration": 0.03846150000000004
        },
        {
          "name": "E3",
          "midi": 52,
          "time": 0.692307,
          "velocity": 1,
          "duration": 0.03846150000000004
        },
        {
          "name": "E3",
          "midi": 52,
          "time": 0.7692300000000001,
          "velocity": 1,
          "duration": 0.03846150000000004
        },
        {
          "name": "E3",
          "midi": 52,
          "time": 0.8461530000000002,
          "velocity": 1,
          "duration": 0.03846150000000004
        },
        {
          "name": "E3",
          "midi": 52,
          "time": 0.9230760000000002,
          "velocity": 1,
          "duration": 0.03846150000000004
        },
        {
          "name": "E3",
          "midi": 52,
          "time": 0.9999990000000003,
          "velocity": 1,
          "duration": 0.038461499999999926
        },
        {
          "name": "E3",
          "midi": 52,
          "time": 1.0769220000000002,
          "velocity": 1,
          "duration": 0.038461499999999926
        },
        {
          "name": "E3",
          "midi": 52,
          "time": 1.153845,
          "velocity": 1,
          "duration": 0.038461499999999926
        },
        {
          "name": "E3",
          "midi": 52,
          "time": 1.2307679999999999,
          "velocity": 1,
          "duration": 0.038461499999999926
        },
        {
          "name": "E3",
          "midi": 52,
          "time": 1.3076909999999997,
          "velocity": 1,
          "duration": 0.038461499999999926
        },
        {
          "name": "E3",
          "midi": 52,
          "time": 1.3846139999999996,
          "velocity": 1,
          "duration": 0.038461499999999926
        },
        {
          "name": "E3",
          "midi": 52,
          "time": 1.4615369999999994,
          "velocity": 1,
          "duration": 0.038461499999999926
        },
        {
          "name": "E3",
          "midi": 52,
          "time": 1.5384599999999993,
          "velocity": 1,
          "duration": 0.038461499999999926
        },
        {
          "name": "E3",
          "midi": 52,
          "time": 1.6153829999999991,
          "velocity": 1,
          "duration": 0.038461499999999926
        },
        {
          "name": "E3",
          "midi": 52,
          "time": 1.692305999999999,
          "velocity": 1,
          "duration": 0.038461499999999926
        },
        {
          "name": "E3",
          "midi": 52,
          "time": 1.7692289999999988,
          "velocity": 1,
          "duration": 0.038461499999999926
        },
        {
          "name": "E3",
          "midi": 52,
          "time": 1.8461519999999987,
          "velocity": 1,
          "duration": 0.038461499999999926
        },
        {
          "name": "E3",
          "midi": 52,
          "time": 1.9230749999999985,
          "velocity": 1,
          "duration": 0.038461499999999926
        },
        {
          "name": "E3",
          "midi": 52,
          "time": 1.9999979999999984,
          "velocity": 1,
          "duration": 0.038461499999999926
        },
        {
          "name": "E3",
          "midi": 52,
          "time": 2.0769209999999982,
          "velocity": 1,
          "duration": 0.038461499999999926
        },
        {
          "name": "E3",
          "midi": 52,
          "time": 2.153843999999998,
          "velocity": 1,
          "duration": 0.038461499999999926
        },
        {
          "name": "E3",
          "midi": 52,
          "time": 2.230766999999998,
          "velocity": 1,
          "duration": 0.038461499999999926
        },
        {
          "name": "E3",
          "midi": 52,
          "time": 2.307689999999998,
          "velocity": 1,
          "duration": 0.038461499999999926
        },
        {
          "name": "E3",
          "midi": 52,
          "time": 2.3846129999999977,
          "velocity": 1,
          "duration": 0.038461499999999926
        },
        {
          "name": "E3",
          "midi": 52,
          "time": 2.4615359999999975,
          "velocity": 1,
          "duration": 0.038461499999999926
        },
        {
          "name": "E3",
          "midi": 52,
          "time": 2.5384589999999974,
          "velocity": 1,
          "duration": 0.038461499999999926
        },
        {
          "name": "E3",
          "midi": 52,
          "time": 2.615381999999997,
          "velocity": 1,
          "duration": 0.038461499999999926
        },
        {
          "name": "E3",
          "midi": 52,
          "time": 2.692304999999997,
          "velocity": 1,
          "duration": 0.038461499999999926
        },
        {
          "name": "E3",
          "midi": 52,
          "time": 2.769227999999997,
          "velocity": 1,
          "duration": 0.038461499999999926
        },
        {
          "name": "E3",
          "midi": 52,
          "time": 2.8461509999999968,
          "velocity": 1,
          "duration": 0.038461499999999926
        },
        {
          "name": "E3",
          "midi": 52,
          "time": 2.9230739999999966,
          "velocity": 1,
          "duration": 0.038461499999999926
        },
        {
          "name": "E3",
          "midi": 52,
          "time": 2.9999969999999965,
          "velocity": 1,
          "duration": 0.038461499999999926
        },
        {
          "name": "E3",
          "midi": 52,
          "time": 3.0769199999999963,
          "velocity": 1,
          "duration": 0.038461499999999926
        },
        {
          "name": "E3",
          "midi": 52,
          "time": 3.153842999999996,
          "velocity": 1,
          "duration": 0.038461499999999926
        },
        {
          "name": "E3",
          "midi": 52,
          "time": 3.230765999999996,
          "velocity": 1,
          "duration": 0.038461499999999926
        },
        {
          "name": "E3",
          "midi": 52,
          "time": 3.307688999999996,
          "velocity": 1,
          "duration": 0.038461499999999926
        },
        {
          "name": "E3",
          "midi": 52,
          "time": 3.3846119999999957,
          "velocity": 1,
          "duration": 0.038461499999999926
        },
        {
          "name": "E3",
          "midi": 52,
          "time": 3.4615349999999956,
          "velocity": 1,
          "duration": 0.038461499999999926
        },
        {
          "name": "E3",
          "midi": 52,
          "time": 3.5384579999999954,
          "velocity": 1,
          "duration": 0.038461499999999926
        },
        {
          "name": "E3",
          "midi": 52,
          "time": 3.6153809999999953,
          "velocity": 1,
          "duration": 0.038461499999999926
        },
        {
          "name": "E3",
          "midi": 52,
          "time": 3.692303999999995,
          "velocity": 1,
          "duration": 0.038461499999999926
        },
        {
          "name": "E3",
          "midi": 52,
          "time": 3.769226999999995,
          "velocity": 1,
          "duration": 0.038461499999999926
        },
        {
          "name": "E3",
          "midi": 52,
          "time": 3.846149999999995,
          "velocity": 1,
          "duration": 0.038461499999999926
        },
        {
          "name": "E3",
          "midi": 52,
          "time": 3.9230729999999947,
          "velocity": 1,
          "duration": 0.038461499999999926
        },
        {
          "name": "E3",
          "midi": 52,
          "time": 3.9999959999999946,
          "velocity": 1,
          "duration": 0.038461499999999926
        },
        {
          "name": "E3",
          "midi": 52,
          "time": 4.076918999999995,
          "velocity": 1,
          "duration": 0.03846150000000037
        },
        {
          "name": "E3",
          "midi": 52,
          "time": 4.153841999999996,
          "velocity": 1,
          "duration": 0.03846150000000037
        },
        {
          "name": "E3",
          "midi": 52,
          "time": 4.230764999999996,
          "velocity": 1,
          "duration": 0.03846150000000037
        },
        {
          "name": "E3",
          "midi": 52,
          "time": 4.307687999999997,
          "velocity": 1,
          "duration": 0.03846150000000037
        },
        {
          "name": "E3",
          "midi": 52,
          "time": 4.384610999999998,
          "velocity": 1,
          "duration": 0.03846150000000037
        },
        {
          "name": "E3",
          "midi": 52,
          "time": 4.461533999999999,
          "velocity": 1,
          "duration": 0.03846150000000037
        },
        {
          "name": "E3",
          "midi": 52,
          "time": 4.538456999999999,
          "velocity": 1,
          "duration": 0.03846150000000037
        },
        {
          "name": "E3",
          "midi": 52,
          "time": 4.61538,
          "velocity": 1,
          "duration": 0.03846150000000037
        },
        {
          "name": "E3",
          "midi": 52,
          "time": 4.692303000000001,
          "velocity": 1,
          "duration": 0.03846150000000037
        },
        {
          "name": "E3",
          "midi": 52,
          "time": 4.7692260000000015,
          "velocity": 1,
          "duration": 0.03846150000000037
        },
        {
          "name": "E3",
          "midi": 52,
          "time": 4.846149000000002,
          "velocity": 1,
          "duration": 0.03846150000000037
        },
        {
          "name": "E3",
          "midi": 52,
          "time": 4.923072000000003,
          "velocity": 1,
          "duration": 0.03846150000000037
        },
        {
          "name": "E3",
          "midi": 52,
          "time": 4.999995000000004,
          "velocity": 1,
          "duration": 0.03846150000000037
        },
        {
          "name": "E3",
          "midi": 52,
          "time": 5.0769180000000045,
          "velocity": 1,
          "duration": 0.03846150000000037
        },
        {
          "name": "E3",
          "midi": 52,
          "time": 5.153841000000005,
          "velocity": 1,
          "duration": 0.03846150000000037
        },
        {
          "name": "E3",
          "midi": 52,
          "time": 5.230764000000006,
          "velocity": 1,
          "duration": 0.03846150000000037
        },
        {
          "name": "E3",
          "midi": 52,
          "time": 5.307687000000007,
          "velocity": 1,
          "duration": 0.03846150000000037
        },
        {
          "name": "E3",
          "midi": 52,
          "time": 5.3846100000000074,
          "velocity": 1,
          "duration": 0.03846150000000037
        },
        {
          "name": "E3",
          "midi": 52,
          "time": 5.461533000000008,
          "velocity": 1,
          "duration": 0.03846150000000037
        },
        {
          "name": "E3",
          "midi": 52,
          "time": 5.538456000000009,
          "velocity": 1,
          "duration": 0.03846150000000037
        },
        {
          "name": "E3",
          "midi": 52,
          "time": 5.61537900000001,
          "velocity": 1,
          "duration": 0.03846150000000037
        },
        {
          "name": "E3",
          "midi": 52,
          "time": 5.69230200000001,
          "velocity": 1,
          "duration": 0.03846150000000037
        },
        {
          "name": "E3",
          "midi": 52,
          "time": 5.769225000000011,
          "velocity": 1,
          "duration": 0.03846150000000037
        },
        {
          "name": "E3",
          "midi": 52,
          "time": 5.846148000000012,
          "velocity": 1,
          "duration": 0.03846150000000037
        },
        {
          "name": "E3",
          "midi": 52,
          "time": 5.923071000000013,
          "velocity": 1,
          "duration": 0.03846150000000037
        },
        {
          "name": "E3",
          "midi": 52,
          "time": 5.999994000000013,
          "velocity": 1,
          "duration": 0.03846150000000037
        },
        {
          "name": "E3",
          "midi": 52,
          "time": 6.076917000000014,
          "velocity": 1,
          "duration": 0.03846150000000037
        },
        {
          "name": "E3",
          "midi": 52,
          "time": 6.153840000000015,
          "velocity": 1,
          "duration": 0.03846150000000037
        },
        {
          "name": "E3",
          "midi": 52,
          "time": 6.230763000000016,
          "velocity": 1,
          "duration": 0.03846150000000037
        },
        {
          "name": "E3",
          "midi": 52,
          "time": 6.307686000000016,
          "velocity": 1,
          "duration": 0.03846150000000037
        },
        {
          "name": "E3",
          "midi": 52,
          "time": 6.384609000000017,
          "velocity": 1,
          "duration": 0.03846150000000037
        },
        {
          "name": "E3",
          "midi": 52,
          "time": 6.461532000000018,
          "velocity": 1,
          "duration": 0.03846150000000037
        },
        {
          "name": "E3",
          "midi": 52,
          "time": 6.538455000000019,
          "velocity": 1,
          "duration": 0.03846150000000037
        },
        {
          "name": "E3",
          "midi": 52,
          "time": 6.615378000000019,
          "velocity": 1,
          "duration": 0.03846150000000037
        },
        {
          "name": "E3",
          "midi": 52,
          "time": 6.69230100000002,
          "velocity": 1,
          "duration": 0.03846150000000037
        },
        {
          "name": "E3",
          "midi": 52,
          "time": 6.769224000000021,
          "velocity": 1,
          "duration": 0.03846150000000037
        },
        {
          "name": "E3",
          "midi": 52,
          "time": 6.8461470000000215,
          "velocity": 1,
          "duration": 0.03846150000000037
        },
        {
          "name": "E3",
          "midi": 52,
          "time": 6.923070000000022,
          "velocity": 1,
          "duration": 0.03846150000000037
        },
        {
          "name": "E3",
          "midi": 52,
          "time": 6.999993000000023,
          "velocity": 1,
          "duration": 0.03846150000000037
        },
        {
          "name": "E3",
          "midi": 52,
          "time": 7.076916000000024,
          "velocity": 1,
          "duration": 0.03846150000000037
        },
        {
          "name": "E3",
          "midi": 52,
          "time": 7.1538390000000245,
          "velocity": 1,
          "duration": 0.03846150000000037
        },
        {
          "name": "E3",
          "midi": 52,
          "time": 7.230762000000025,
          "velocity": 1,
          "duration": 0.03846150000000037
        },
        {
          "name": "E3",
          "midi": 52,
          "time": 7.307685000000026,
          "velocity": 1,
          "duration": 0.03846150000000037
        },
        {
          "name": "E3",
          "midi": 52,
          "time": 7.384608000000027,
          "velocity": 1,
          "duration": 0.03846150000000037
        },
        {
          "name": "E3",
          "midi": 52,
          "time": 7.4615310000000274,
          "velocity": 1,
          "duration": 0.03846150000000037
        },
        {
          "name": "E3",
          "midi": 52,
          "time": 7.538454000000028,
          "velocity": 1,
          "duration": 0.03846150000000037
        },
        {
          "name": "E3",
          "midi": 52,
          "time": 7.615377000000029,
          "velocity": 1,
          "duration": 0.03846150000000037
        },
        {
          "name": "E3",
          "midi": 52,
          "time": 7.69230000000003,
          "velocity": 1,
          "duration": 0.03846150000000037
        },
        {
          "name": "E3",
          "midi": 52,
          "time": 7.76922300000003,
          "velocity": 1,
          "duration": 0.03846150000000037
        },
        {
          "name": "E3",
          "midi": 52,
          "time": 7.846146000000031,
          "velocity": 1,
          "duration": 0.03846150000000037
        },
        {
          "name": "E3",
          "midi": 52,
          "time": 7.923069000000032,
          "velocity": 1,
          "duration": 0.03846150000000037
        },
        {
          "name": "E3",
          "midi": 52,
          "time": 7.999992000000033,
          "velocity": 1,
          "duration": 0.03846150000000037
        },
        {
          "name": "E3",
          "midi": 52,
          "time": 8.076915000000033,
          "velocity": 1,
          "duration": 0.03846150000000037
        },
        {
          "name": "E3",
          "midi": 52,
          "time": 8.153838000000034,
          "velocity": 1,
          "duration": 0.03846150000000037
        },
        {
          "name": "E3",
          "midi": 52,
          "time": 8.230761000000035,
          "velocity": 1,
          "duration": 0.03846150000000037
        },
        {
          "name": "E3",
          "midi": 52,
          "time": 8.307684000000036,
          "velocity": 1,
          "duration": 0.03846150000000037
        },
        {
          "name": "E3",
          "midi": 52,
          "time": 8.384607000000036,
          "velocity": 1,
          "duration": 0.03846150000000037
        },
        {
          "name": "E3",
          "midi": 52,
          "time": 8.461530000000037,
          "velocity": 1,
          "duration": 0.03846150000000037
        },
        {
          "name": "E3",
          "midi": 52,
          "time": 8.538453000000038,
          "velocity": 1,
          "duration": 0.03846150000000037
        },
        {
          "name": "E3",
          "midi": 52,
          "time": 8.615376000000039,
          "velocity": 1,
          "duration": 0.03846150000000037
        },
        {
          "name": "E3",
          "midi": 52,
          "time": 8.69229900000004,
          "velocity": 1,
          "duration": 0.03846150000000037
        },
        {
          "name": "E3",
          "midi": 52,
          "time": 8.76922200000004,
          "velocity": 1,
          "duration": 0.03846150000000037
        },
        {
          "name": "E3",
          "midi": 52,
          "time": 8.84614500000004,
          "velocity": 1,
          "duration": 0.03846150000000037
        },
        {
          "name": "E3",
          "midi": 52,
          "time": 8.923068000000042,
          "velocity": 1,
          "duration": 0.03846150000000037
        },
        {
          "name": "E3",
          "midi": 52,
          "time": 8.999991000000042,
          "velocity": 1,
          "duration": 0.03846150000000037
        },
        {
          "name": "E3",
          "midi": 52,
          "time": 9.076914000000043,
          "velocity": 1,
          "duration": 0.03846150000000037
        },
        {
          "name": "E3",
          "midi": 52,
          "time": 9.153837000000044,
          "velocity": 1,
          "duration": 0.03846150000000037
        },
        {
          "name": "E3",
          "midi": 52,
          "time": 9.230760000000044,
          "velocity": 1,
          "duration": 0.03846150000000037
        },
        {
          "name": "E3",
          "midi": 52,
          "time": 9.307683000000045,
          "velocity": 1,
          "duration": 0.03846150000000037
        },
        {
          "name": "E3",
          "midi": 52,
          "time": 9.384606000000046,
          "velocity": 1,
          "duration": 0.03846150000000037
        },
        {
          "name": "E3",
          "midi": 52,
          "time": 9.461529000000047,
          "velocity": 1,
          "duration": 0.03846150000000037
        },
        {
          "name": "E3",
          "midi": 52,
          "time": 9.538452000000047,
          "velocity": 1,
          "duration": 0.03846150000000037
        },
        {
          "name": "E3",
          "midi": 52,
          "time": 9.615375000000048,
          "velocity": 1,
          "duration": 0.03846150000000037
        },
        {
          "name": "E3",
          "midi": 52,
          "time": 9.692298000000049,
          "velocity": 1,
          "duration": 0.03846150000000037
        },
        {
          "name": "E3",
          "midi": 52,
          "time": 9.76922100000005,
          "velocity": 1,
          "duration": 0.03846150000000037
        },
        {
          "name": "E3",
          "midi": 52,
          "time": 9.84614400000005,
          "velocity": 1,
          "duration": 0.03846150000000037
        },
        {
          "name": "E3",
          "midi": 52,
          "time": 9.923067000000051,
          "velocity": 1,
          "duration": 0.03846150000000037
        },
        {
          "name": "E3",
          "midi": 52,
          "time": 9.999990000000052,
          "velocity": 1,
          "duration": 0.03846150000000037
        },
        {
          "name": "E3",
          "midi": 52,
          "time": 10.076913000000053,
          "velocity": 1,
          "duration": 0.03846150000000037
        },
        {
          "name": "E3",
          "midi": 52,
          "time": 10.153836000000053,
          "velocity": 1,
          "duration": 0.03846150000000037
        },
        {
          "name": "E3",
          "midi": 52,
          "time": 10.230759000000054,
          "velocity": 1,
          "duration": 0.03846150000000037
        },
        {
          "name": "E3",
          "midi": 52,
          "time": 10.307682000000055,
          "velocity": 1,
          "duration": 0.03846150000000037
        },
        {
          "name": "E3",
          "midi": 52,
          "time": 10.384605000000056,
          "velocity": 1,
          "duration": 0.03846150000000037
        },
        {
          "name": "E3",
          "midi": 52,
          "time": 10.461528000000056,
          "velocity": 1,
          "duration": 0.03846150000000037
        },
        {
          "name": "E3",
          "midi": 52,
          "time": 10.538451000000057,
          "velocity": 1,
          "duration": 0.03846150000000037
        },
        {
          "name": "E3",
          "midi": 52,
          "time": 10.615374000000058,
          "velocity": 1,
          "duration": 0.03846150000000037
        },
        {
          "name": "E3",
          "midi": 52,
          "time": 10.692297000000059,
          "velocity": 1,
          "duration": 0.03846150000000037
        },
        {
          "name": "E3",
          "midi": 52,
          "time": 10.76922000000006,
          "velocity": 1,
          "duration": 0.03846150000000037
        },
        {
          "name": "E3",
          "midi": 52,
          "time": 10.84614300000006,
          "velocity": 1,
          "duration": 0.03846150000000037
        },
        {
          "name": "E3",
          "midi": 52,
          "time": 10.92306600000006,
          "velocity": 1,
          "duration": 0.03846150000000037
        },
        {
          "name": "E3",
          "midi": 52,
          "time": 10.999989000000062,
          "velocity": 1,
          "duration": 0.03846150000000037
        },
        {
          "name": "E3",
          "midi": 52,
          "time": 11.076912000000062,
          "velocity": 1,
          "duration": 0.03846150000000037
        },
        {
          "name": "E3",
          "midi": 52,
          "time": 11.153835000000063,
          "velocity": 1,
          "duration": 0.03846150000000037
        },
        {
          "name": "E3",
          "midi": 52,
          "time": 11.230758000000064,
          "velocity": 1,
          "duration": 0.03846150000000037
        },
        {
          "name": "E3",
          "midi": 52,
          "time": 11.307681000000064,
          "velocity": 1,
          "duration": 0.03846150000000037
        },
        {
          "name": "E3",
          "midi": 52,
          "time": 11.384604000000065,
          "velocity": 1,
          "duration": 0.03846150000000037
        },
        {
          "name": "E3",
          "midi": 52,
          "time": 11.461527000000066,
          "velocity": 1,
          "duration": 0.03846150000000037
        },
        {
          "name": "E3",
          "midi": 52,
          "time": 11.538450000000067,
          "velocity": 1,
          "duration": 0.03846150000000037
        },
        {
          "name": "E3",
          "midi": 52,
          "time": 11.615373000000067,
          "velocity": 1,
          "duration": 0.03846150000000037
        },
        {
          "name": "E3",
          "midi": 52,
          "time": 11.692296000000068,
          "velocity": 1,
          "duration": 0.03846150000000037
        },
        {
          "name": "E3",
          "midi": 52,
          "time": 11.769219000000069,
          "velocity": 1,
          "duration": 0.03846150000000037
        },
        {
          "name": "E3",
          "midi": 52,
          "time": 11.84614200000007,
          "velocity": 1,
          "duration": 0.03846150000000037
        },
        {
          "name": "E3",
          "midi": 52,
          "time": 11.92306500000007,
          "velocity": 1,
          "duration": 0.03846150000000037
        },
        {
          "name": "E3",
          "midi": 52,
          "time": 11.999988000000071,
          "velocity": 1,
          "duration": 0.03846150000000037
        },
        {
          "name": "E3",
          "midi": 52,
          "time": 12.076911000000072,
          "velocity": 1,
          "duration": 0.03846150000000037
        },
        {
          "name": "E3",
          "midi": 52,
          "time": 12.153834000000073,
          "velocity": 1,
          "duration": 0.03846150000000037
        },
        {
          "name": "E3",
          "midi": 52,
          "time": 12.230757000000073,
          "velocity": 1,
          "duration": 0.03846150000000037
        },
        {
          "name": "E3",
          "midi": 52,
          "time": 12.307680000000074,
          "velocity": 1,
          "duration": 0.03846150000000037
        },
        {
          "name": "E3",
          "midi": 52,
          "time": 12.384603000000075,
          "velocity": 1,
          "duration": 0.03846150000000037
        },
        {
          "name": "E3",
          "midi": 52,
          "time": 12.461526000000076,
          "velocity": 1,
          "duration": 0.03846150000000037
        },
        {
          "name": "E3",
          "midi": 52,
          "time": 12.538449000000076,
          "velocity": 1,
          "duration": 0.03846150000000037
        },
        {
          "name": "E3",
          "midi": 52,
          "time": 12.615372000000077,
          "velocity": 1,
          "duration": 0.03846150000000037
        },
        {
          "name": "E3",
          "midi": 52,
          "time": 12.692295000000078,
          "velocity": 1,
          "duration": 0.03846150000000037
        },
        {
          "name": "E3",
          "midi": 52,
          "time": 12.769218000000079,
          "velocity": 1,
          "duration": 0.03846150000000037
        },
        {
          "name": "E3",
          "midi": 52,
          "time": 12.84614100000008,
          "velocity": 1,
          "duration": 0.03846150000000037
        },
        {
          "name": "E3",
          "midi": 52,
          "time": 12.92306400000008,
          "velocity": 1,
          "duration": 0.03846150000000037
        },
        {
          "name": "E3",
          "midi": 52,
          "time": 12.99998700000008,
          "velocity": 1,
          "duration": 0.03846150000000037
        },
        {
          "name": "E3",
          "midi": 52,
          "time": 13.076910000000082,
          "velocity": 1,
          "duration": 0.03846150000000037
        },
        {
          "name": "E3",
          "midi": 52,
          "time": 13.153833000000082,
          "velocity": 1,
          "duration": 0.03846150000000037
        },
        {
          "name": "E3",
          "midi": 52,
          "time": 13.230756000000083,
          "velocity": 1,
          "duration": 0.03846150000000037
        },
        {
          "name": "E3",
          "midi": 52,
          "time": 13.307679000000084,
          "velocity": 1,
          "duration": 0.03846150000000037
        },
        {
          "name": "E3",
          "midi": 52,
          "time": 13.384602000000084,
          "velocity": 1,
          "duration": 0.03846150000000037
        },
        {
          "name": "E3",
          "midi": 52,
          "time": 13.461525000000085,
          "velocity": 1,
          "duration": 0.03846150000000037
        },
        {
          "name": "E3",
          "midi": 52,
          "time": 13.538448000000086,
          "velocity": 1,
          "duration": 0.03846150000000037
        },
        {
          "name": "E3",
          "midi": 52,
          "time": 13.615371000000087,
          "velocity": 1,
          "duration": 0.03846150000000037
        },
        {
          "name": "E3",
          "midi": 52,
          "time": 13.692294000000087,
          "velocity": 1,
          "duration": 0.03846150000000037
        },
        {
          "name": "E3",
          "midi": 52,
          "time": 13.769217000000088,
          "velocity": 1,
          "duration": 0.03846150000000037
        },
        {
          "name": "E3",
          "midi": 52,
          "time": 13.846140000000089,
          "velocity": 1,
          "duration": 0.03846150000000037
        },
        {
          "name": "E3",
          "midi": 52,
          "time": 13.92306300000009,
          "velocity": 1,
          "duration": 0.03846150000000037
        },
        {
          "name": "E3",
          "midi": 52,
          "time": 13.99998600000009,
          "velocity": 1,
          "duration": 0.03846150000000037
        },
        {
          "name": "E3",
          "midi": 52,
          "time": 14.076909000000091,
          "velocity": 1,
          "duration": 0.03846150000000037
        },
        {
          "name": "E3",
          "midi": 52,
          "time": 14.153832000000092,
          "velocity": 1,
          "duration": 0.03846150000000037
        },
        {
          "name": "E3",
          "midi": 52,
          "time": 14.230755000000093,
          "velocity": 1,
          "duration": 0.03846150000000037
        },
        {
          "name": "E3",
          "midi": 52,
          "time": 14.307678000000093,
          "velocity": 1,
          "duration": 0.03846150000000037
        },
        {
          "name": "E3",
          "midi": 52,
          "time": 14.384601000000094,
          "velocity": 1,
          "duration": 0.03846150000000037
        },
        {
          "name": "E3",
          "midi": 52,
          "time": 14.461524000000095,
          "velocity": 1,
          "duration": 0.03846150000000037
        },
        {
          "name": "E3",
          "midi": 52,
          "time": 14.538447000000096,
          "velocity": 1,
          "duration": 0.03846150000000037
        },
        {
          "name": "E3",
          "midi": 52,
          "time": 14.615370000000096,
          "velocity": 1,
          "duration": 0.03846150000000037
        },
        {
          "name": "E3",
          "midi": 52,
          "time": 14.692293000000097,
          "velocity": 1,
          "duration": 0.03846150000000037
        }
      ]
    },
    {
      "startTime": 0,
      "duration": 14.744216025000046,
      "length": 256,
      "id": 13,
      "name": "1/32",
      "channelNumber": 0,
      "isPercussion": false,
      "notes": [
        {
          "name": "E3",
          "midi": 52,
          "time": 0,
          "velocity": 1,
          "duration": 0.03269227499999999
        },
        {
          "name": "E3",
          "midi": 52,
          "time": 0.05769224999999999,
          "velocity": 1,
          "duration": 0.03269227499999999
        },
        {
          "name": "E3",
          "midi": 52,
          "time": 0.11538449999999997,
          "velocity": 1,
          "duration": 0.03269227499999999
        },
        {
          "name": "E3",
          "midi": 52,
          "time": 0.17307674999999997,
          "velocity": 1,
          "duration": 0.03269227499999999
        },
        {
          "name": "E3",
          "midi": 52,
          "time": 0.23076899999999997,
          "velocity": 1,
          "duration": 0.032692274999999965
        },
        {
          "name": "E3",
          "midi": 52,
          "time": 0.28846124999999995,
          "velocity": 1,
          "duration": 0.03269227499999999
        },
        {
          "name": "E3",
          "midi": 52,
          "time": 0.34615349999999995,
          "velocity": 1,
          "duration": 0.03269227499999999
        },
        {
          "name": "E3",
          "midi": 52,
          "time": 0.40384574999999995,
          "velocity": 1,
          "duration": 0.03269227499999999
        },
        {
          "name": "E3",
          "midi": 52,
          "time": 0.46153799999999995,
          "velocity": 1,
          "duration": 0.03269227499999999
        },
        {
          "name": "E3",
          "midi": 52,
          "time": 0.5192302499999999,
          "velocity": 1,
          "duration": 0.03269227500000005
        },
        {
          "name": "E3",
          "midi": 52,
          "time": 0.5769224999999999,
          "velocity": 1,
          "duration": 0.03269227499999994
        },
        {
          "name": "E3",
          "midi": 52,
          "time": 0.6346147499999998,
          "velocity": 1,
          "duration": 0.03269227499999994
        },
        {
          "name": "E3",
          "midi": 52,
          "time": 0.6923069999999997,
          "velocity": 1,
          "duration": 0.03269227499999994
        },
        {
          "name": "E3",
          "midi": 52,
          "time": 0.7499992499999996,
          "velocity": 1,
          "duration": 0.03269227499999994
        },
        {
          "name": "E3",
          "midi": 52,
          "time": 0.8076914999999995,
          "velocity": 1,
          "duration": 0.03269227499999994
        },
        {
          "name": "E3",
          "midi": 52,
          "time": 0.8653837499999993,
          "velocity": 1,
          "duration": 0.03269227499999994
        },
        {
          "name": "E3",
          "midi": 52,
          "time": 0.9230759999999992,
          "velocity": 1,
          "duration": 0.03269227499999994
        },
        {
          "name": "E3",
          "midi": 52,
          "time": 0.9807682499999991,
          "velocity": 1,
          "duration": 0.03269227499999994
        },
        {
          "name": "E3",
          "midi": 52,
          "time": 1.0384604999999991,
          "velocity": 1,
          "duration": 0.03269227500000005
        },
        {
          "name": "E3",
          "midi": 52,
          "time": 1.0961527499999992,
          "velocity": 1,
          "duration": 0.03269227500000005
        },
        {
          "name": "E3",
          "midi": 52,
          "time": 1.1538449999999993,
          "velocity": 1,
          "duration": 0.03269227500000005
        },
        {
          "name": "E3",
          "midi": 52,
          "time": 1.2115372499999995,
          "velocity": 1,
          "duration": 0.03269227500000005
        },
        {
          "name": "E3",
          "midi": 52,
          "time": 1.2692294999999996,
          "velocity": 1,
          "duration": 0.03269227500000005
        },
        {
          "name": "E3",
          "midi": 52,
          "time": 1.3269217499999997,
          "velocity": 1,
          "duration": 0.03269227500000005
        },
        {
          "name": "E3",
          "midi": 52,
          "time": 1.3846139999999998,
          "velocity": 1,
          "duration": 0.03269227500000005
        },
        {
          "name": "E3",
          "midi": 52,
          "time": 1.44230625,
          "velocity": 1,
          "duration": 0.03269227500000005
        },
        {
          "name": "E3",
          "midi": 52,
          "time": 1.4999985,
          "velocity": 1,
          "duration": 0.03269227500000005
        },
        {
          "name": "E3",
          "midi": 52,
          "time": 1.5576907500000001,
          "velocity": 1,
          "duration": 0.03269227500000005
        },
        {
          "name": "E3",
          "midi": 52,
          "time": 1.6153830000000002,
          "velocity": 1,
          "duration": 0.03269227500000005
        },
        {
          "name": "E3",
          "midi": 52,
          "time": 1.6730752500000003,
          "velocity": 1,
          "duration": 0.03269227500000005
        },
        {
          "name": "E3",
          "midi": 52,
          "time": 1.7307675000000005,
          "velocity": 1,
          "duration": 0.03269227500000005
        },
        {
          "name": "E3",
          "midi": 52,
          "time": 1.7884597500000006,
          "velocity": 1,
          "duration": 0.03269227500000005
        },
        {
          "name": "E3",
          "midi": 52,
          "time": 1.8461520000000007,
          "velocity": 1,
          "duration": 0.03269227500000005
        },
        {
          "name": "E3",
          "midi": 52,
          "time": 1.9038442500000008,
          "velocity": 1,
          "duration": 0.03269227500000005
        },
        {
          "name": "E3",
          "midi": 52,
          "time": 1.961536500000001,
          "velocity": 1,
          "duration": 0.03269227500000005
        },
        {
          "name": "E3",
          "midi": 52,
          "time": 2.019228750000001,
          "velocity": 1,
          "duration": 0.03269227500000005
        },
        {
          "name": "E3",
          "midi": 52,
          "time": 2.076921000000001,
          "velocity": 1,
          "duration": 0.03269227500000005
        },
        {
          "name": "E3",
          "midi": 52,
          "time": 2.134613250000001,
          "velocity": 1,
          "duration": 0.03269227500000005
        },
        {
          "name": "E3",
          "midi": 52,
          "time": 2.192305500000001,
          "velocity": 1,
          "duration": 0.03269227500000005
        },
        {
          "name": "E3",
          "midi": 52,
          "time": 2.2499977500000012,
          "velocity": 1,
          "duration": 0.03269227500000005
        },
        {
          "name": "E3",
          "midi": 52,
          "time": 2.3076900000000014,
          "velocity": 1,
          "duration": 0.03269227500000005
        },
        {
          "name": "E3",
          "midi": 52,
          "time": 2.3653822500000015,
          "velocity": 1,
          "duration": 0.03269227500000005
        },
        {
          "name": "E3",
          "midi": 52,
          "time": 2.4230745000000016,
          "velocity": 1,
          "duration": 0.03269227500000005
        },
        {
          "name": "E3",
          "midi": 52,
          "time": 2.4807667500000017,
          "velocity": 1,
          "duration": 0.03269227500000005
        },
        {
          "name": "E3",
          "midi": 52,
          "time": 2.538459000000002,
          "velocity": 1,
          "duration": 0.03269227500000005
        },
        {
          "name": "E3",
          "midi": 52,
          "time": 2.596151250000002,
          "velocity": 1,
          "duration": 0.03269227500000005
        },
        {
          "name": "E3",
          "midi": 52,
          "time": 2.653843500000002,
          "velocity": 1,
          "duration": 0.03269227500000005
        },
        {
          "name": "E3",
          "midi": 52,
          "time": 2.711535750000002,
          "velocity": 1,
          "duration": 0.03269227500000005
        },
        {
          "name": "E3",
          "midi": 52,
          "time": 2.7692280000000022,
          "velocity": 1,
          "duration": 0.03269227500000005
        },
        {
          "name": "E3",
          "midi": 52,
          "time": 2.8269202500000024,
          "velocity": 1,
          "duration": 0.03269227500000005
        },
        {
          "name": "E3",
          "midi": 52,
          "time": 2.8846125000000025,
          "velocity": 1,
          "duration": 0.03269227500000005
        },
        {
          "name": "E3",
          "midi": 52,
          "time": 2.9423047500000026,
          "velocity": 1,
          "duration": 0.03269227500000005
        },
        {
          "name": "E3",
          "midi": 52,
          "time": 2.9999970000000027,
          "velocity": 1,
          "duration": 0.03269227500000005
        },
        {
          "name": "E3",
          "midi": 52,
          "time": 3.057689250000003,
          "velocity": 1,
          "duration": 0.03269227500000005
        },
        {
          "name": "E3",
          "midi": 52,
          "time": 3.115381500000003,
          "velocity": 1,
          "duration": 0.03269227500000005
        },
        {
          "name": "E3",
          "midi": 52,
          "time": 3.173073750000003,
          "velocity": 1,
          "duration": 0.03269227500000005
        },
        {
          "name": "E3",
          "midi": 52,
          "time": 3.230766000000003,
          "velocity": 1,
          "duration": 0.03269227500000005
        },
        {
          "name": "E3",
          "midi": 52,
          "time": 3.2884582500000032,
          "velocity": 1,
          "duration": 0.03269227500000005
        },
        {
          "name": "E3",
          "midi": 52,
          "time": 3.3461505000000034,
          "velocity": 1,
          "duration": 0.03269227500000005
        },
        {
          "name": "E3",
          "midi": 52,
          "time": 3.4038427500000035,
          "velocity": 1,
          "duration": 0.03269227500000005
        },
        {
          "name": "E3",
          "midi": 52,
          "time": 3.4615350000000036,
          "velocity": 1,
          "duration": 0.03269227500000005
        },
        {
          "name": "E3",
          "midi": 52,
          "time": 3.5192272500000037,
          "velocity": 1,
          "duration": 0.03269227500000005
        },
        {
          "name": "E3",
          "midi": 52,
          "time": 3.576919500000004,
          "velocity": 1,
          "duration": 0.03269227500000005
        },
        {
          "name": "E3",
          "midi": 52,
          "time": 3.634611750000004,
          "velocity": 1,
          "duration": 0.03269227500000005
        },
        {
          "name": "E3",
          "midi": 52,
          "time": 3.692304000000004,
          "velocity": 1,
          "duration": 0.03269227500000005
        },
        {
          "name": "E3",
          "midi": 52,
          "time": 3.749996250000004,
          "velocity": 1,
          "duration": 0.03269227500000005
        },
        {
          "name": "E3",
          "midi": 52,
          "time": 3.8076885000000043,
          "velocity": 1,
          "duration": 0.03269227500000005
        },
        {
          "name": "E3",
          "midi": 52,
          "time": 3.8653807500000044,
          "velocity": 1,
          "duration": 0.03269227500000005
        },
        {
          "name": "E3",
          "midi": 52,
          "time": 3.9230730000000045,
          "velocity": 1,
          "duration": 0.03269227500000005
        },
        {
          "name": "E3",
          "midi": 52,
          "time": 3.9807652500000046,
          "velocity": 1,
          "duration": 0.032692274999999604
        },
        {
          "name": "E3",
          "midi": 52,
          "time": 4.038457500000004,
          "velocity": 1,
          "duration": 0.032692274999999604
        },
        {
          "name": "E3",
          "midi": 52,
          "time": 4.096149750000004,
          "velocity": 1,
          "duration": 0.032692274999999604
        },
        {
          "name": "E3",
          "midi": 52,
          "time": 4.153842000000004,
          "velocity": 1,
          "duration": 0.032692274999999604
        },
        {
          "name": "E3",
          "midi": 52,
          "time": 4.211534250000003,
          "velocity": 1,
          "duration": 0.032692274999999604
        },
        {
          "name": "E3",
          "midi": 52,
          "time": 4.269226500000003,
          "velocity": 1,
          "duration": 0.032692274999999604
        },
        {
          "name": "E3",
          "midi": 52,
          "time": 4.326918750000003,
          "velocity": 1,
          "duration": 0.032692274999999604
        },
        {
          "name": "E3",
          "midi": 52,
          "time": 4.384611000000002,
          "velocity": 1,
          "duration": 0.032692274999999604
        },
        {
          "name": "E3",
          "midi": 52,
          "time": 4.442303250000002,
          "velocity": 1,
          "duration": 0.032692274999999604
        },
        {
          "name": "E3",
          "midi": 52,
          "time": 4.499995500000002,
          "velocity": 1,
          "duration": 0.032692274999999604
        },
        {
          "name": "E3",
          "midi": 52,
          "time": 4.557687750000001,
          "velocity": 1,
          "duration": 0.032692274999999604
        },
        {
          "name": "E3",
          "midi": 52,
          "time": 4.615380000000001,
          "velocity": 1,
          "duration": 0.032692274999999604
        },
        {
          "name": "E3",
          "midi": 52,
          "time": 4.673072250000001,
          "velocity": 1,
          "duration": 0.032692274999999604
        },
        {
          "name": "E3",
          "midi": 52,
          "time": 4.7307645,
          "velocity": 1,
          "duration": 0.032692274999999604
        },
        {
          "name": "E3",
          "midi": 52,
          "time": 4.78845675,
          "velocity": 1,
          "duration": 0.032692274999999604
        },
        {
          "name": "E3",
          "midi": 52,
          "time": 4.846149,
          "velocity": 1,
          "duration": 0.032692274999999604
        },
        {
          "name": "E3",
          "midi": 52,
          "time": 4.903841249999999,
          "velocity": 1,
          "duration": 0.032692274999999604
        },
        {
          "name": "E3",
          "midi": 52,
          "time": 4.961533499999999,
          "velocity": 1,
          "duration": 0.032692274999999604
        },
        {
          "name": "E3",
          "midi": 52,
          "time": 5.019225749999999,
          "velocity": 1,
          "duration": 0.032692274999999604
        },
        {
          "name": "E3",
          "midi": 52,
          "time": 5.076917999999998,
          "velocity": 1,
          "duration": 0.032692274999999604
        },
        {
          "name": "E3",
          "midi": 52,
          "time": 5.134610249999998,
          "velocity": 1,
          "duration": 0.032692274999999604
        },
        {
          "name": "E3",
          "midi": 52,
          "time": 5.192302499999998,
          "velocity": 1,
          "duration": 0.032692274999999604
        },
        {
          "name": "E3",
          "midi": 52,
          "time": 5.249994749999997,
          "velocity": 1,
          "duration": 0.032692274999999604
        },
        {
          "name": "E3",
          "midi": 52,
          "time": 5.307686999999997,
          "velocity": 1,
          "duration": 0.032692274999999604
        },
        {
          "name": "E3",
          "midi": 52,
          "time": 5.365379249999997,
          "velocity": 1,
          "duration": 0.032692274999999604
        },
        {
          "name": "E3",
          "midi": 52,
          "time": 5.423071499999996,
          "velocity": 1,
          "duration": 0.032692274999999604
        },
        {
          "name": "E3",
          "midi": 52,
          "time": 5.480763749999996,
          "velocity": 1,
          "duration": 0.032692274999999604
        },
        {
          "name": "E3",
          "midi": 52,
          "time": 5.538455999999996,
          "velocity": 1,
          "duration": 0.032692274999999604
        },
        {
          "name": "E3",
          "midi": 52,
          "time": 5.596148249999995,
          "velocity": 1,
          "duration": 0.032692274999999604
        },
        {
          "name": "E3",
          "midi": 52,
          "time": 5.653840499999995,
          "velocity": 1,
          "duration": 0.032692274999999604
        },
        {
          "name": "E3",
          "midi": 52,
          "time": 5.711532749999995,
          "velocity": 1,
          "duration": 0.032692274999999604
        },
        {
          "name": "E3",
          "midi": 52,
          "time": 5.769224999999994,
          "velocity": 1,
          "duration": 0.032692274999999604
        },
        {
          "name": "E3",
          "midi": 52,
          "time": 5.826917249999994,
          "velocity": 1,
          "duration": 0.032692274999999604
        },
        {
          "name": "E3",
          "midi": 52,
          "time": 5.884609499999994,
          "velocity": 1,
          "duration": 0.032692274999999604
        },
        {
          "name": "E3",
          "midi": 52,
          "time": 5.942301749999993,
          "velocity": 1,
          "duration": 0.032692274999999604
        },
        {
          "name": "E3",
          "midi": 52,
          "time": 5.999993999999993,
          "velocity": 1,
          "duration": 0.032692274999999604
        },
        {
          "name": "E3",
          "midi": 52,
          "time": 6.057686249999993,
          "velocity": 1,
          "duration": 0.032692274999999604
        },
        {
          "name": "E3",
          "midi": 52,
          "time": 6.115378499999992,
          "velocity": 1,
          "duration": 0.032692274999999604
        },
        {
          "name": "E3",
          "midi": 52,
          "time": 6.173070749999992,
          "velocity": 1,
          "duration": 0.032692274999999604
        },
        {
          "name": "E3",
          "midi": 52,
          "time": 6.230762999999992,
          "velocity": 1,
          "duration": 0.032692274999999604
        },
        {
          "name": "E3",
          "midi": 52,
          "time": 6.288455249999991,
          "velocity": 1,
          "duration": 0.032692274999999604
        },
        {
          "name": "E3",
          "midi": 52,
          "time": 6.346147499999991,
          "velocity": 1,
          "duration": 0.032692274999999604
        },
        {
          "name": "E3",
          "midi": 52,
          "time": 6.403839749999991,
          "velocity": 1,
          "duration": 0.032692274999999604
        },
        {
          "name": "E3",
          "midi": 52,
          "time": 6.46153199999999,
          "velocity": 1,
          "duration": 0.032692274999999604
        },
        {
          "name": "E3",
          "midi": 52,
          "time": 6.51922424999999,
          "velocity": 1,
          "duration": 0.032692274999999604
        },
        {
          "name": "E3",
          "midi": 52,
          "time": 6.57691649999999,
          "velocity": 1,
          "duration": 0.032692274999999604
        },
        {
          "name": "E3",
          "midi": 52,
          "time": 6.634608749999989,
          "velocity": 1,
          "duration": 0.032692274999999604
        },
        {
          "name": "E3",
          "midi": 52,
          "time": 6.692300999999989,
          "velocity": 1,
          "duration": 0.032692274999999604
        },
        {
          "name": "E3",
          "midi": 52,
          "time": 6.749993249999989,
          "velocity": 1,
          "duration": 0.032692274999999604
        },
        {
          "name": "E3",
          "midi": 52,
          "time": 6.807685499999988,
          "velocity": 1,
          "duration": 0.032692274999999604
        },
        {
          "name": "E3",
          "midi": 52,
          "time": 6.865377749999988,
          "velocity": 1,
          "duration": 0.032692274999999604
        },
        {
          "name": "E3",
          "midi": 52,
          "time": 6.923069999999988,
          "velocity": 1,
          "duration": 0.032692274999999604
        },
        {
          "name": "E3",
          "midi": 52,
          "time": 6.980762249999987,
          "velocity": 1,
          "duration": 0.032692274999999604
        },
        {
          "name": "E3",
          "midi": 52,
          "time": 7.038454499999987,
          "velocity": 1,
          "duration": 0.032692274999999604
        },
        {
          "name": "E3",
          "midi": 52,
          "time": 7.096146749999987,
          "velocity": 1,
          "duration": 0.032692274999999604
        },
        {
          "name": "E3",
          "midi": 52,
          "time": 7.153838999999986,
          "velocity": 1,
          "duration": 0.032692274999999604
        },
        {
          "name": "E3",
          "midi": 52,
          "time": 7.211531249999986,
          "velocity": 1,
          "duration": 0.032692274999999604
        },
        {
          "name": "E3",
          "midi": 52,
          "time": 7.269223499999986,
          "velocity": 1,
          "duration": 0.032692274999999604
        },
        {
          "name": "E3",
          "midi": 52,
          "time": 7.326915749999985,
          "velocity": 1,
          "duration": 0.032692274999999604
        },
        {
          "name": "E3",
          "midi": 52,
          "time": 7.384607999999985,
          "velocity": 1,
          "duration": 0.032692274999999604
        },
        {
          "name": "E3",
          "midi": 52,
          "time": 7.442300249999985,
          "velocity": 1,
          "duration": 0.032692274999999604
        },
        {
          "name": "E3",
          "midi": 52,
          "time": 7.499992499999984,
          "velocity": 1,
          "duration": 0.032692274999999604
        },
        {
          "name": "E3",
          "midi": 52,
          "time": 7.557684749999984,
          "velocity": 1,
          "duration": 0.032692274999999604
        },
        {
          "name": "E3",
          "midi": 52,
          "time": 7.615376999999984,
          "velocity": 1,
          "duration": 0.032692274999999604
        },
        {
          "name": "E3",
          "midi": 52,
          "time": 7.673069249999983,
          "velocity": 1,
          "duration": 0.032692274999999604
        },
        {
          "name": "E3",
          "midi": 52,
          "time": 7.730761499999983,
          "velocity": 1,
          "duration": 0.032692274999999604
        },
        {
          "name": "E3",
          "midi": 52,
          "time": 7.788453749999983,
          "velocity": 1,
          "duration": 0.032692274999999604
        },
        {
          "name": "E3",
          "midi": 52,
          "time": 7.846145999999982,
          "velocity": 1,
          "duration": 0.032692274999999604
        },
        {
          "name": "E3",
          "midi": 52,
          "time": 7.903838249999982,
          "velocity": 1,
          "duration": 0.032692274999999604
        },
        {
          "name": "E3",
          "midi": 52,
          "time": 7.961530499999982,
          "velocity": 1,
          "duration": 0.032692274999999604
        },
        {
          "name": "E3",
          "midi": 52,
          "time": 8.019222749999981,
          "velocity": 1,
          "duration": 0.03269227500000049
        },
        {
          "name": "E3",
          "midi": 52,
          "time": 8.076914999999982,
          "velocity": 1,
          "duration": 0.03269227500000049
        },
        {
          "name": "E3",
          "midi": 52,
          "time": 8.134607249999982,
          "velocity": 1,
          "duration": 0.03269227500000049
        },
        {
          "name": "E3",
          "midi": 52,
          "time": 8.192299499999983,
          "velocity": 1,
          "duration": 0.03269227500000049
        },
        {
          "name": "E3",
          "midi": 52,
          "time": 8.249991749999984,
          "velocity": 1,
          "duration": 0.03269227500000049
        },
        {
          "name": "E3",
          "midi": 52,
          "time": 8.307683999999984,
          "velocity": 1,
          "duration": 0.03269227500000049
        },
        {
          "name": "E3",
          "midi": 52,
          "time": 8.365376249999985,
          "velocity": 1,
          "duration": 0.03269227500000049
        },
        {
          "name": "E3",
          "midi": 52,
          "time": 8.423068499999985,
          "velocity": 1,
          "duration": 0.03269227500000049
        },
        {
          "name": "E3",
          "midi": 52,
          "time": 8.480760749999986,
          "velocity": 1,
          "duration": 0.03269227500000049
        },
        {
          "name": "E3",
          "midi": 52,
          "time": 8.538452999999986,
          "velocity": 1,
          "duration": 0.03269227500000049
        },
        {
          "name": "E3",
          "midi": 52,
          "time": 8.596145249999987,
          "velocity": 1,
          "duration": 0.03269227500000049
        },
        {
          "name": "E3",
          "midi": 52,
          "time": 8.653837499999987,
          "velocity": 1,
          "duration": 0.03269227500000049
        },
        {
          "name": "E3",
          "midi": 52,
          "time": 8.711529749999988,
          "velocity": 1,
          "duration": 0.03269227500000049
        },
        {
          "name": "E3",
          "midi": 52,
          "time": 8.769221999999989,
          "velocity": 1,
          "duration": 0.03269227500000049
        },
        {
          "name": "E3",
          "midi": 52,
          "time": 8.826914249999989,
          "velocity": 1,
          "duration": 0.03269227500000049
        },
        {
          "name": "E3",
          "midi": 52,
          "time": 8.88460649999999,
          "velocity": 1,
          "duration": 0.03269227500000049
        },
        {
          "name": "E3",
          "midi": 52,
          "time": 8.94229874999999,
          "velocity": 1,
          "duration": 0.03269227500000049
        },
        {
          "name": "E3",
          "midi": 52,
          "time": 8.99999099999999,
          "velocity": 1,
          "duration": 0.03269227500000049
        },
        {
          "name": "E3",
          "midi": 52,
          "time": 9.057683249999991,
          "velocity": 1,
          "duration": 0.03269227500000049
        },
        {
          "name": "E3",
          "midi": 52,
          "time": 9.115375499999992,
          "velocity": 1,
          "duration": 0.03269227500000049
        },
        {
          "name": "E3",
          "midi": 52,
          "time": 9.173067749999992,
          "velocity": 1,
          "duration": 0.03269227500000049
        },
        {
          "name": "E3",
          "midi": 52,
          "time": 9.230759999999993,
          "velocity": 1,
          "duration": 0.03269227500000049
        },
        {
          "name": "E3",
          "midi": 52,
          "time": 9.288452249999994,
          "velocity": 1,
          "duration": 0.03269227500000049
        },
        {
          "name": "E3",
          "midi": 52,
          "time": 9.346144499999994,
          "velocity": 1,
          "duration": 0.03269227500000049
        },
        {
          "name": "E3",
          "midi": 52,
          "time": 9.403836749999995,
          "velocity": 1,
          "duration": 0.03269227500000049
        },
        {
          "name": "E3",
          "midi": 52,
          "time": 9.461528999999995,
          "velocity": 1,
          "duration": 0.03269227500000049
        },
        {
          "name": "E3",
          "midi": 52,
          "time": 9.519221249999996,
          "velocity": 1,
          "duration": 0.03269227500000049
        },
        {
          "name": "E3",
          "midi": 52,
          "time": 9.576913499999996,
          "velocity": 1,
          "duration": 0.03269227500000049
        },
        {
          "name": "E3",
          "midi": 52,
          "time": 9.634605749999997,
          "velocity": 1,
          "duration": 0.03269227500000049
        },
        {
          "name": "E3",
          "midi": 52,
          "time": 9.692297999999997,
          "velocity": 1,
          "duration": 0.03269227500000049
        },
        {
          "name": "E3",
          "midi": 52,
          "time": 9.749990249999998,
          "velocity": 1,
          "duration": 0.03269227500000049
        },
        {
          "name": "E3",
          "midi": 52,
          "time": 9.807682499999999,
          "velocity": 1,
          "duration": 0.03269227500000049
        },
        {
          "name": "E3",
          "midi": 52,
          "time": 9.865374749999999,
          "velocity": 1,
          "duration": 0.03269227500000049
        },
        {
          "name": "E3",
          "midi": 52,
          "time": 9.923067,
          "velocity": 1,
          "duration": 0.03269227500000049
        },
        {
          "name": "E3",
          "midi": 52,
          "time": 9.98075925,
          "velocity": 1,
          "duration": 0.03269227500000049
        },
        {
          "name": "E3",
          "midi": 52,
          "time": 10.0384515,
          "velocity": 1,
          "duration": 0.03269227500000049
        },
        {
          "name": "E3",
          "midi": 52,
          "time": 10.096143750000001,
          "velocity": 1,
          "duration": 0.03269227500000049
        },
        {
          "name": "E3",
          "midi": 52,
          "time": 10.153836000000002,
          "velocity": 1,
          "duration": 0.03269227500000049
        },
        {
          "name": "E3",
          "midi": 52,
          "time": 10.211528250000002,
          "velocity": 1,
          "duration": 0.03269227500000049
        },
        {
          "name": "E3",
          "midi": 52,
          "time": 10.269220500000003,
          "velocity": 1,
          "duration": 0.03269227500000049
        },
        {
          "name": "E3",
          "midi": 52,
          "time": 10.326912750000004,
          "velocity": 1,
          "duration": 0.03269227500000049
        },
        {
          "name": "E3",
          "midi": 52,
          "time": 10.384605000000004,
          "velocity": 1,
          "duration": 0.03269227500000049
        },
        {
          "name": "E3",
          "midi": 52,
          "time": 10.442297250000005,
          "velocity": 1,
          "duration": 0.03269227500000049
        },
        {
          "name": "E3",
          "midi": 52,
          "time": 10.499989500000005,
          "velocity": 1,
          "duration": 0.03269227500000049
        },
        {
          "name": "E3",
          "midi": 52,
          "time": 10.557681750000006,
          "velocity": 1,
          "duration": 0.03269227500000049
        },
        {
          "name": "E3",
          "midi": 52,
          "time": 10.615374000000006,
          "velocity": 1,
          "duration": 0.03269227500000049
        },
        {
          "name": "E3",
          "midi": 52,
          "time": 10.673066250000007,
          "velocity": 1,
          "duration": 0.03269227500000049
        },
        {
          "name": "E3",
          "midi": 52,
          "time": 10.730758500000007,
          "velocity": 1,
          "duration": 0.03269227500000049
        },
        {
          "name": "E3",
          "midi": 52,
          "time": 10.788450750000008,
          "velocity": 1,
          "duration": 0.03269227500000049
        },
        {
          "name": "E3",
          "midi": 52,
          "time": 10.846143000000009,
          "velocity": 1,
          "duration": 0.03269227500000049
        },
        {
          "name": "E3",
          "midi": 52,
          "time": 10.903835250000009,
          "velocity": 1,
          "duration": 0.03269227500000049
        },
        {
          "name": "E3",
          "midi": 52,
          "time": 10.96152750000001,
          "velocity": 1,
          "duration": 0.03269227500000049
        },
        {
          "name": "E3",
          "midi": 52,
          "time": 11.01921975000001,
          "velocity": 1,
          "duration": 0.03269227500000049
        },
        {
          "name": "E3",
          "midi": 52,
          "time": 11.07691200000001,
          "velocity": 1,
          "duration": 0.03269227500000049
        },
        {
          "name": "E3",
          "midi": 52,
          "time": 11.134604250000011,
          "velocity": 1,
          "duration": 0.03269227500000049
        },
        {
          "name": "E3",
          "midi": 52,
          "time": 11.192296500000012,
          "velocity": 1,
          "duration": 0.03269227500000049
        },
        {
          "name": "E3",
          "midi": 52,
          "time": 11.249988750000012,
          "velocity": 1,
          "duration": 0.03269227500000049
        },
        {
          "name": "E3",
          "midi": 52,
          "time": 11.307681000000013,
          "velocity": 1,
          "duration": 0.03269227500000049
        },
        {
          "name": "E3",
          "midi": 52,
          "time": 11.365373250000014,
          "velocity": 1,
          "duration": 0.03269227500000049
        },
        {
          "name": "E3",
          "midi": 52,
          "time": 11.423065500000014,
          "velocity": 1,
          "duration": 0.03269227500000049
        },
        {
          "name": "E3",
          "midi": 52,
          "time": 11.480757750000015,
          "velocity": 1,
          "duration": 0.03269227500000049
        },
        {
          "name": "E3",
          "midi": 52,
          "time": 11.538450000000015,
          "velocity": 1,
          "duration": 0.03269227500000049
        },
        {
          "name": "E3",
          "midi": 52,
          "time": 11.596142250000016,
          "velocity": 1,
          "duration": 0.03269227500000049
        },
        {
          "name": "E3",
          "midi": 52,
          "time": 11.653834500000016,
          "velocity": 1,
          "duration": 0.03269227500000049
        },
        {
          "name": "E3",
          "midi": 52,
          "time": 11.711526750000017,
          "velocity": 1,
          "duration": 0.03269227500000049
        },
        {
          "name": "E3",
          "midi": 52,
          "time": 11.769219000000017,
          "velocity": 1,
          "duration": 0.03269227500000049
        },
        {
          "name": "E3",
          "midi": 52,
          "time": 11.826911250000018,
          "velocity": 1,
          "duration": 0.03269227500000049
        },
        {
          "name": "E3",
          "midi": 52,
          "time": 11.884603500000019,
          "velocity": 1,
          "duration": 0.03269227500000049
        },
        {
          "name": "E3",
          "midi": 52,
          "time": 11.942295750000019,
          "velocity": 1,
          "duration": 0.03269227500000049
        },
        {
          "name": "E3",
          "midi": 52,
          "time": 11.99998800000002,
          "velocity": 1,
          "duration": 0.03269227500000049
        },
        {
          "name": "E3",
          "midi": 52,
          "time": 12.05768025000002,
          "velocity": 1,
          "duration": 0.03269227500000049
        },
        {
          "name": "E3",
          "midi": 52,
          "time": 12.11537250000002,
          "velocity": 1,
          "duration": 0.03269227500000049
        },
        {
          "name": "E3",
          "midi": 52,
          "time": 12.173064750000021,
          "velocity": 1,
          "duration": 0.03269227500000049
        },
        {
          "name": "E3",
          "midi": 52,
          "time": 12.230757000000022,
          "velocity": 1,
          "duration": 0.03269227500000049
        },
        {
          "name": "E3",
          "midi": 52,
          "time": 12.288449250000022,
          "velocity": 1,
          "duration": 0.03269227500000049
        },
        {
          "name": "E3",
          "midi": 52,
          "time": 12.346141500000023,
          "velocity": 1,
          "duration": 0.03269227500000049
        },
        {
          "name": "E3",
          "midi": 52,
          "time": 12.403833750000024,
          "velocity": 1,
          "duration": 0.03269227500000049
        },
        {
          "name": "E3",
          "midi": 52,
          "time": 12.461526000000024,
          "velocity": 1,
          "duration": 0.03269227500000049
        },
        {
          "name": "E3",
          "midi": 52,
          "time": 12.519218250000025,
          "velocity": 1,
          "duration": 0.03269227500000049
        },
        {
          "name": "E3",
          "midi": 52,
          "time": 12.576910500000025,
          "velocity": 1,
          "duration": 0.03269227500000049
        },
        {
          "name": "E3",
          "midi": 52,
          "time": 12.634602750000026,
          "velocity": 1,
          "duration": 0.03269227500000049
        },
        {
          "name": "E3",
          "midi": 52,
          "time": 12.692295000000026,
          "velocity": 1,
          "duration": 0.03269227500000049
        },
        {
          "name": "E3",
          "midi": 52,
          "time": 12.749987250000027,
          "velocity": 1,
          "duration": 0.03269227500000049
        },
        {
          "name": "E3",
          "midi": 52,
          "time": 12.807679500000027,
          "velocity": 1,
          "duration": 0.03269227500000049
        },
        {
          "name": "E3",
          "midi": 52,
          "time": 12.865371750000028,
          "velocity": 1,
          "duration": 0.03269227500000049
        },
        {
          "name": "E3",
          "midi": 52,
          "time": 12.923064000000029,
          "velocity": 1,
          "duration": 0.03269227500000049
        },
        {
          "name": "E3",
          "midi": 52,
          "time": 12.980756250000029,
          "velocity": 1,
          "duration": 0.03269227500000049
        },
        {
          "name": "E3",
          "midi": 52,
          "time": 13.03844850000003,
          "velocity": 1,
          "duration": 0.03269227500000049
        },
        {
          "name": "E3",
          "midi": 52,
          "time": 13.09614075000003,
          "velocity": 1,
          "duration": 0.03269227500000049
        },
        {
          "name": "E3",
          "midi": 52,
          "time": 13.15383300000003,
          "velocity": 1,
          "duration": 0.03269227500000049
        },
        {
          "name": "E3",
          "midi": 52,
          "time": 13.211525250000031,
          "velocity": 1,
          "duration": 0.03269227500000049
        },
        {
          "name": "E3",
          "midi": 52,
          "time": 13.269217500000032,
          "velocity": 1,
          "duration": 0.03269227500000049
        },
        {
          "name": "E3",
          "midi": 52,
          "time": 13.326909750000032,
          "velocity": 1,
          "duration": 0.03269227500000049
        },
        {
          "name": "E3",
          "midi": 52,
          "time": 13.384602000000033,
          "velocity": 1,
          "duration": 0.03269227500000049
        },
        {
          "name": "E3",
          "midi": 52,
          "time": 13.442294250000034,
          "velocity": 1,
          "duration": 0.03269227500000049
        },
        {
          "name": "E3",
          "midi": 52,
          "time": 13.499986500000034,
          "velocity": 1,
          "duration": 0.03269227500000049
        },
        {
          "name": "E3",
          "midi": 52,
          "time": 13.557678750000035,
          "velocity": 1,
          "duration": 0.03269227500000049
        },
        {
          "name": "E3",
          "midi": 52,
          "time": 13.615371000000035,
          "velocity": 1,
          "duration": 0.03269227500000049
        },
        {
          "name": "E3",
          "midi": 52,
          "time": 13.673063250000036,
          "velocity": 1,
          "duration": 0.03269227500000049
        },
        {
          "name": "E3",
          "midi": 52,
          "time": 13.730755500000036,
          "velocity": 1,
          "duration": 0.03269227500000049
        },
        {
          "name": "E3",
          "midi": 52,
          "time": 13.788447750000037,
          "velocity": 1,
          "duration": 0.03269227500000049
        },
        {
          "name": "E3",
          "midi": 52,
          "time": 13.846140000000037,
          "velocity": 1,
          "duration": 0.03269227500000049
        },
        {
          "name": "E3",
          "midi": 52,
          "time": 13.903832250000038,
          "velocity": 1,
          "duration": 0.03269227500000049
        },
        {
          "name": "E3",
          "midi": 52,
          "time": 13.961524500000039,
          "velocity": 1,
          "duration": 0.03269227500000049
        },
        {
          "name": "E3",
          "midi": 52,
          "time": 14.019216750000039,
          "velocity": 1,
          "duration": 0.03269227500000049
        },
        {
          "name": "E3",
          "midi": 52,
          "time": 14.07690900000004,
          "velocity": 1,
          "duration": 0.03269227500000049
        },
        {
          "name": "E3",
          "midi": 52,
          "time": 14.13460125000004,
          "velocity": 1,
          "duration": 0.03269227500000049
        },
        {
          "name": "E3",
          "midi": 52,
          "time": 14.19229350000004,
          "velocity": 1,
          "duration": 0.03269227500000049
        },
        {
          "name": "E3",
          "midi": 52,
          "time": 14.249985750000041,
          "velocity": 1,
          "duration": 0.03269227500000049
        },
        {
          "name": "E3",
          "midi": 52,
          "time": 14.307678000000042,
          "velocity": 1,
          "duration": 0.03269227500000049
        },
        {
          "name": "E3",
          "midi": 52,
          "time": 14.365370250000042,
          "velocity": 1,
          "duration": 0.03269227500000049
        },
        {
          "name": "E3",
          "midi": 52,
          "time": 14.423062500000043,
          "velocity": 1,
          "duration": 0.03269227500000049
        },
        {
          "name": "E3",
          "midi": 52,
          "time": 14.480754750000044,
          "velocity": 1,
          "duration": 0.03269227500000049
        },
        {
          "name": "E3",
          "midi": 52,
          "time": 14.538447000000044,
          "velocity": 1,
          "duration": 0.03269227500000049
        },
        {
          "name": "E3",
          "midi": 52,
          "time": 14.596139250000045,
          "velocity": 1,
          "duration": 0.03269227500000049
        },
        {
          "name": "E3",
          "midi": 52,
          "time": 14.653831500000045,
          "velocity": 1,
          "duration": 0.03269227500000049
        },
        {
          "name": "E3",
          "midi": 52,
          "time": 14.711523750000046,
          "velocity": 1,
          "duration": 0.03269227500000049
        }
      ]
    },
    {
      "startTime": 0,
      "duration": 14.749985250000119,
      "length": 384,
      "id": 14,
      "name": "1/32T",
      "channelNumber": 0,
      "isPercussion": false,
      "notes": [
        {
          "name": "E3",
          "midi": 52,
          "time": 0,
          "velocity": 1,
          "duration": 0.019230749999999998
        },
        {
          "name": "E3",
          "midi": 52,
          "time": 0.038461499999999996,
          "velocity": 1,
          "duration": 0.019230749999999998
        },
        {
          "name": "E3",
          "midi": 52,
          "time": 0.07692299999999999,
          "velocity": 1,
          "duration": 0.01923074999999999
        },
        {
          "name": "E3",
          "midi": 52,
          "time": 0.11538449999999997,
          "velocity": 1,
          "duration": 0.01923074999999999
        },
        {
          "name": "E3",
          "midi": 52,
          "time": 0.15384599999999996,
          "velocity": 1,
          "duration": 0.01923074999999999
        },
        {
          "name": "E3",
          "midi": 52,
          "time": 0.19230749999999994,
          "velocity": 1,
          "duration": 0.01923074999999999
        },
        {
          "name": "E3",
          "midi": 52,
          "time": 0.23076899999999992,
          "velocity": 1,
          "duration": 0.01923074999999999
        },
        {
          "name": "E3",
          "midi": 52,
          "time": 0.26923049999999993,
          "velocity": 1,
          "duration": 0.01923075000000002
        },
        {
          "name": "E3",
          "midi": 52,
          "time": 0.30769199999999997,
          "velocity": 1,
          "duration": 0.01923075000000002
        },
        {
          "name": "E3",
          "midi": 52,
          "time": 0.3461535,
          "velocity": 1,
          "duration": 0.01923075000000002
        },
        {
          "name": "E3",
          "midi": 52,
          "time": 0.38461500000000004,
          "velocity": 1,
          "duration": 0.01923075000000002
        },
        {
          "name": "E3",
          "midi": 52,
          "time": 0.4230765000000001,
          "velocity": 1,
          "duration": 0.01923075000000002
        },
        {
          "name": "E3",
          "midi": 52,
          "time": 0.4615380000000001,
          "velocity": 1,
          "duration": 0.01923075000000002
        },
        {
          "name": "E3",
          "midi": 52,
          "time": 0.49999950000000015,
          "velocity": 1,
          "duration": 0.019230749999999963
        },
        {
          "name": "E3",
          "midi": 52,
          "time": 0.5384610000000001,
          "velocity": 1,
          "duration": 0.019230749999999963
        },
        {
          "name": "E3",
          "midi": 52,
          "time": 0.5769225,
          "velocity": 1,
          "duration": 0.019230749999999963
        },
        {
          "name": "E3",
          "midi": 52,
          "time": 0.6153839999999999,
          "velocity": 1,
          "duration": 0.019230749999999963
        },
        {
          "name": "E3",
          "midi": 52,
          "time": 0.6538454999999999,
          "velocity": 1,
          "duration": 0.019230749999999963
        },
        {
          "name": "E3",
          "midi": 52,
          "time": 0.6923069999999998,
          "velocity": 1,
          "duration": 0.019230749999999963
        },
        {
          "name": "E3",
          "midi": 52,
          "time": 0.7307684999999997,
          "velocity": 1,
          "duration": 0.019230749999999963
        },
        {
          "name": "E3",
          "midi": 52,
          "time": 0.7692299999999996,
          "velocity": 1,
          "duration": 0.019230749999999963
        },
        {
          "name": "E3",
          "midi": 52,
          "time": 0.8076914999999996,
          "velocity": 1,
          "duration": 0.019230749999999963
        },
        {
          "name": "E3",
          "midi": 52,
          "time": 0.8461529999999995,
          "velocity": 1,
          "duration": 0.019230749999999963
        },
        {
          "name": "E3",
          "midi": 52,
          "time": 0.8846144999999994,
          "velocity": 1,
          "duration": 0.019230749999999963
        },
        {
          "name": "E3",
          "midi": 52,
          "time": 0.9230759999999993,
          "velocity": 1,
          "duration": 0.019230749999999963
        },
        {
          "name": "E3",
          "midi": 52,
          "time": 0.9615374999999993,
          "velocity": 1,
          "duration": 0.019230749999999963
        },
        {
          "name": "E3",
          "midi": 52,
          "time": 0.9999989999999992,
          "velocity": 1,
          "duration": 0.019230749999999963
        },
        {
          "name": "E3",
          "midi": 52,
          "time": 1.0384604999999991,
          "velocity": 1,
          "duration": 0.019230749999999963
        },
        {
          "name": "E3",
          "midi": 52,
          "time": 1.076921999999999,
          "velocity": 1,
          "duration": 0.019230749999999963
        },
        {
          "name": "E3",
          "midi": 52,
          "time": 1.115383499999999,
          "velocity": 1,
          "duration": 0.019230749999999963
        },
        {
          "name": "E3",
          "midi": 52,
          "time": 1.153844999999999,
          "velocity": 1,
          "duration": 0.019230749999999963
        },
        {
          "name": "E3",
          "midi": 52,
          "time": 1.1923064999999988,
          "velocity": 1,
          "duration": 0.019230749999999963
        },
        {
          "name": "E3",
          "midi": 52,
          "time": 1.2307679999999988,
          "velocity": 1,
          "duration": 0.019230749999999963
        },
        {
          "name": "E3",
          "midi": 52,
          "time": 1.2692294999999987,
          "velocity": 1,
          "duration": 0.019230749999999963
        },
        {
          "name": "E3",
          "midi": 52,
          "time": 1.3076909999999986,
          "velocity": 1,
          "duration": 0.019230749999999963
        },
        {
          "name": "E3",
          "midi": 52,
          "time": 1.3461524999999985,
          "velocity": 1,
          "duration": 0.019230749999999963
        },
        {
          "name": "E3",
          "midi": 52,
          "time": 1.3846139999999985,
          "velocity": 1,
          "duration": 0.019230749999999963
        },
        {
          "name": "E3",
          "midi": 52,
          "time": 1.4230754999999984,
          "velocity": 1,
          "duration": 0.019230749999999963
        },
        {
          "name": "E3",
          "midi": 52,
          "time": 1.4615369999999983,
          "velocity": 1,
          "duration": 0.019230749999999963
        },
        {
          "name": "E3",
          "midi": 52,
          "time": 1.4999984999999982,
          "velocity": 1,
          "duration": 0.019230749999999963
        },
        {
          "name": "E3",
          "midi": 52,
          "time": 1.5384599999999982,
          "velocity": 1,
          "duration": 0.019230749999999963
        },
        {
          "name": "E3",
          "midi": 52,
          "time": 1.576921499999998,
          "velocity": 1,
          "duration": 0.019230749999999963
        },
        {
          "name": "E3",
          "midi": 52,
          "time": 1.615382999999998,
          "velocity": 1,
          "duration": 0.019230749999999963
        },
        {
          "name": "E3",
          "midi": 52,
          "time": 1.653844499999998,
          "velocity": 1,
          "duration": 0.019230749999999963
        },
        {
          "name": "E3",
          "midi": 52,
          "time": 1.6923059999999979,
          "velocity": 1,
          "duration": 0.019230749999999963
        },
        {
          "name": "E3",
          "midi": 52,
          "time": 1.7307674999999978,
          "velocity": 1,
          "duration": 0.019230749999999963
        },
        {
          "name": "E3",
          "midi": 52,
          "time": 1.7692289999999977,
          "velocity": 1,
          "duration": 0.019230749999999963
        },
        {
          "name": "E3",
          "midi": 52,
          "time": 1.8076904999999976,
          "velocity": 1,
          "duration": 0.019230749999999963
        },
        {
          "name": "E3",
          "midi": 52,
          "time": 1.8461519999999976,
          "velocity": 1,
          "duration": 0.019230749999999963
        },
        {
          "name": "E3",
          "midi": 52,
          "time": 1.8846134999999975,
          "velocity": 1,
          "duration": 0.019230749999999963
        },
        {
          "name": "E3",
          "midi": 52,
          "time": 1.9230749999999974,
          "velocity": 1,
          "duration": 0.019230749999999963
        },
        {
          "name": "E3",
          "midi": 52,
          "time": 1.9615364999999974,
          "velocity": 1,
          "duration": 0.019230749999999963
        },
        {
          "name": "E3",
          "midi": 52,
          "time": 1.9999979999999973,
          "velocity": 1,
          "duration": 0.019230749999999963
        },
        {
          "name": "E3",
          "midi": 52,
          "time": 2.0384594999999974,
          "velocity": 1,
          "duration": 0.019230750000000185
        },
        {
          "name": "E3",
          "midi": 52,
          "time": 2.076920999999998,
          "velocity": 1,
          "duration": 0.019230750000000185
        },
        {
          "name": "E3",
          "midi": 52,
          "time": 2.115382499999998,
          "velocity": 1,
          "duration": 0.019230750000000185
        },
        {
          "name": "E3",
          "midi": 52,
          "time": 2.1538439999999985,
          "velocity": 1,
          "duration": 0.019230750000000185
        },
        {
          "name": "E3",
          "midi": 52,
          "time": 2.192305499999999,
          "velocity": 1,
          "duration": 0.019230750000000185
        },
        {
          "name": "E3",
          "midi": 52,
          "time": 2.2307669999999993,
          "velocity": 1,
          "duration": 0.019230750000000185
        },
        {
          "name": "E3",
          "midi": 52,
          "time": 2.2692284999999996,
          "velocity": 1,
          "duration": 0.019230750000000185
        },
        {
          "name": "E3",
          "midi": 52,
          "time": 2.30769,
          "velocity": 1,
          "duration": 0.019230750000000185
        },
        {
          "name": "E3",
          "midi": 52,
          "time": 2.3461515000000004,
          "velocity": 1,
          "duration": 0.019230750000000185
        },
        {
          "name": "E3",
          "midi": 52,
          "time": 2.3846130000000008,
          "velocity": 1,
          "duration": 0.019230750000000185
        },
        {
          "name": "E3",
          "midi": 52,
          "time": 2.423074500000001,
          "velocity": 1,
          "duration": 0.019230750000000185
        },
        {
          "name": "E3",
          "midi": 52,
          "time": 2.4615360000000015,
          "velocity": 1,
          "duration": 0.019230750000000185
        },
        {
          "name": "E3",
          "midi": 52,
          "time": 2.499997500000002,
          "velocity": 1,
          "duration": 0.019230750000000185
        },
        {
          "name": "E3",
          "midi": 52,
          "time": 2.5384590000000022,
          "velocity": 1,
          "duration": 0.019230750000000185
        },
        {
          "name": "E3",
          "midi": 52,
          "time": 2.5769205000000026,
          "velocity": 1,
          "duration": 0.019230750000000185
        },
        {
          "name": "E3",
          "midi": 52,
          "time": 2.615382000000003,
          "velocity": 1,
          "duration": 0.019230750000000185
        },
        {
          "name": "E3",
          "midi": 52,
          "time": 2.6538435000000034,
          "velocity": 1,
          "duration": 0.019230750000000185
        },
        {
          "name": "E3",
          "midi": 52,
          "time": 2.6923050000000037,
          "velocity": 1,
          "duration": 0.019230750000000185
        },
        {
          "name": "E3",
          "midi": 52,
          "time": 2.730766500000004,
          "velocity": 1,
          "duration": 0.019230750000000185
        },
        {
          "name": "E3",
          "midi": 52,
          "time": 2.7692280000000045,
          "velocity": 1,
          "duration": 0.019230750000000185
        },
        {
          "name": "E3",
          "midi": 52,
          "time": 2.807689500000005,
          "velocity": 1,
          "duration": 0.019230750000000185
        },
        {
          "name": "E3",
          "midi": 52,
          "time": 2.846151000000005,
          "velocity": 1,
          "duration": 0.019230750000000185
        },
        {
          "name": "E3",
          "midi": 52,
          "time": 2.8846125000000056,
          "velocity": 1,
          "duration": 0.019230750000000185
        },
        {
          "name": "E3",
          "midi": 52,
          "time": 2.923074000000006,
          "velocity": 1,
          "duration": 0.019230750000000185
        },
        {
          "name": "E3",
          "midi": 52,
          "time": 2.9615355000000063,
          "velocity": 1,
          "duration": 0.019230750000000185
        },
        {
          "name": "E3",
          "midi": 52,
          "time": 2.9999970000000067,
          "velocity": 1,
          "duration": 0.019230750000000185
        },
        {
          "name": "E3",
          "midi": 52,
          "time": 3.038458500000007,
          "velocity": 1,
          "duration": 0.019230750000000185
        },
        {
          "name": "E3",
          "midi": 52,
          "time": 3.0769200000000074,
          "velocity": 1,
          "duration": 0.019230750000000185
        },
        {
          "name": "E3",
          "midi": 52,
          "time": 3.115381500000008,
          "velocity": 1,
          "duration": 0.019230750000000185
        },
        {
          "name": "E3",
          "midi": 52,
          "time": 3.153843000000008,
          "velocity": 1,
          "duration": 0.019230750000000185
        },
        {
          "name": "E3",
          "midi": 52,
          "time": 3.1923045000000085,
          "velocity": 1,
          "duration": 0.019230750000000185
        },
        {
          "name": "E3",
          "midi": 52,
          "time": 3.230766000000009,
          "velocity": 1,
          "duration": 0.019230750000000185
        },
        {
          "name": "E3",
          "midi": 52,
          "time": 3.2692275000000093,
          "velocity": 1,
          "duration": 0.019230750000000185
        },
        {
          "name": "E3",
          "midi": 52,
          "time": 3.3076890000000096,
          "velocity": 1,
          "duration": 0.019230750000000185
        },
        {
          "name": "E3",
          "midi": 52,
          "time": 3.34615050000001,
          "velocity": 1,
          "duration": 0.019230750000000185
        },
        {
          "name": "E3",
          "midi": 52,
          "time": 3.3846120000000104,
          "velocity": 1,
          "duration": 0.019230750000000185
        },
        {
          "name": "E3",
          "midi": 52,
          "time": 3.4230735000000108,
          "velocity": 1,
          "duration": 0.019230750000000185
        },
        {
          "name": "E3",
          "midi": 52,
          "time": 3.461535000000011,
          "velocity": 1,
          "duration": 0.019230750000000185
        },
        {
          "name": "E3",
          "midi": 52,
          "time": 3.4999965000000115,
          "velocity": 1,
          "duration": 0.019230750000000185
        },
        {
          "name": "E3",
          "midi": 52,
          "time": 3.538458000000012,
          "velocity": 1,
          "duration": 0.019230750000000185
        },
        {
          "name": "E3",
          "midi": 52,
          "time": 3.5769195000000122,
          "velocity": 1,
          "duration": 0.019230750000000185
        },
        {
          "name": "E3",
          "midi": 52,
          "time": 3.6153810000000126,
          "velocity": 1,
          "duration": 0.019230750000000185
        },
        {
          "name": "E3",
          "midi": 52,
          "time": 3.653842500000013,
          "velocity": 1,
          "duration": 0.019230750000000185
        },
        {
          "name": "E3",
          "midi": 52,
          "time": 3.6923040000000134,
          "velocity": 1,
          "duration": 0.019230750000000185
        },
        {
          "name": "E3",
          "midi": 52,
          "time": 3.7307655000000137,
          "velocity": 1,
          "duration": 0.019230750000000185
        },
        {
          "name": "E3",
          "midi": 52,
          "time": 3.769227000000014,
          "velocity": 1,
          "duration": 0.019230750000000185
        },
        {
          "name": "E3",
          "midi": 52,
          "time": 3.8076885000000145,
          "velocity": 1,
          "duration": 0.019230750000000185
        },
        {
          "name": "E3",
          "midi": 52,
          "time": 3.846150000000015,
          "velocity": 1,
          "duration": 0.019230750000000185
        },
        {
          "name": "E3",
          "midi": 52,
          "time": 3.884611500000015,
          "velocity": 1,
          "duration": 0.019230750000000185
        },
        {
          "name": "E3",
          "midi": 52,
          "time": 3.9230730000000156,
          "velocity": 1,
          "duration": 0.019230750000000185
        },
        {
          "name": "E3",
          "midi": 52,
          "time": 3.961534500000016,
          "velocity": 1,
          "duration": 0.019230750000000185
        },
        {
          "name": "E3",
          "midi": 52,
          "time": 3.9999960000000163,
          "velocity": 1,
          "duration": 0.019230750000000185
        },
        {
          "name": "E3",
          "midi": 52,
          "time": 4.038457500000017,
          "velocity": 1,
          "duration": 0.019230750000000185
        },
        {
          "name": "E3",
          "midi": 52,
          "time": 4.076919000000017,
          "velocity": 1,
          "duration": 0.019230750000000185
        },
        {
          "name": "E3",
          "midi": 52,
          "time": 4.115380500000017,
          "velocity": 1,
          "duration": 0.019230750000000185
        },
        {
          "name": "E3",
          "midi": 52,
          "time": 4.153842000000018,
          "velocity": 1,
          "duration": 0.019230750000000185
        },
        {
          "name": "E3",
          "midi": 52,
          "time": 4.192303500000018,
          "velocity": 1,
          "duration": 0.019230750000000185
        },
        {
          "name": "E3",
          "midi": 52,
          "time": 4.2307650000000185,
          "velocity": 1,
          "duration": 0.019230750000000185
        },
        {
          "name": "E3",
          "midi": 52,
          "time": 4.269226500000019,
          "velocity": 1,
          "duration": 0.019230750000000185
        },
        {
          "name": "E3",
          "midi": 52,
          "time": 4.307688000000019,
          "velocity": 1,
          "duration": 0.019230750000000185
        },
        {
          "name": "E3",
          "midi": 52,
          "time": 4.34614950000002,
          "velocity": 1,
          "duration": 0.019230750000000185
        },
        {
          "name": "E3",
          "midi": 52,
          "time": 4.38461100000002,
          "velocity": 1,
          "duration": 0.019230750000000185
        },
        {
          "name": "E3",
          "midi": 52,
          "time": 4.42307250000002,
          "velocity": 1,
          "duration": 0.019230750000000185
        },
        {
          "name": "E3",
          "midi": 52,
          "time": 4.461534000000021,
          "velocity": 1,
          "duration": 0.019230750000000185
        },
        {
          "name": "E3",
          "midi": 52,
          "time": 4.499995500000021,
          "velocity": 1,
          "duration": 0.019230750000000185
        },
        {
          "name": "E3",
          "midi": 52,
          "time": 4.5384570000000215,
          "velocity": 1,
          "duration": 0.019230750000000185
        },
        {
          "name": "E3",
          "midi": 52,
          "time": 4.576918500000022,
          "velocity": 1,
          "duration": 0.019230750000000185
        },
        {
          "name": "E3",
          "midi": 52,
          "time": 4.615380000000022,
          "velocity": 1,
          "duration": 0.019230750000000185
        },
        {
          "name": "E3",
          "midi": 52,
          "time": 4.653841500000023,
          "velocity": 1,
          "duration": 0.019230750000000185
        },
        {
          "name": "E3",
          "midi": 52,
          "time": 4.692303000000023,
          "velocity": 1,
          "duration": 0.019230750000000185
        },
        {
          "name": "E3",
          "midi": 52,
          "time": 4.730764500000023,
          "velocity": 1,
          "duration": 0.019230750000000185
        },
        {
          "name": "E3",
          "midi": 52,
          "time": 4.769226000000024,
          "velocity": 1,
          "duration": 0.019230750000000185
        },
        {
          "name": "E3",
          "midi": 52,
          "time": 4.807687500000024,
          "velocity": 1,
          "duration": 0.019230750000000185
        },
        {
          "name": "E3",
          "midi": 52,
          "time": 4.8461490000000245,
          "velocity": 1,
          "duration": 0.019230750000000185
        },
        {
          "name": "E3",
          "midi": 52,
          "time": 4.884610500000025,
          "velocity": 1,
          "duration": 0.019230750000000185
        },
        {
          "name": "E3",
          "midi": 52,
          "time": 4.923072000000025,
          "velocity": 1,
          "duration": 0.019230750000000185
        },
        {
          "name": "E3",
          "midi": 52,
          "time": 4.961533500000026,
          "velocity": 1,
          "duration": 0.019230750000000185
        },
        {
          "name": "E3",
          "midi": 52,
          "time": 4.999995000000026,
          "velocity": 1,
          "duration": 0.019230750000000185
        },
        {
          "name": "E3",
          "midi": 52,
          "time": 5.038456500000026,
          "velocity": 1,
          "duration": 0.019230750000000185
        },
        {
          "name": "E3",
          "midi": 52,
          "time": 5.076918000000027,
          "velocity": 1,
          "duration": 0.019230750000000185
        },
        {
          "name": "E3",
          "midi": 52,
          "time": 5.115379500000027,
          "velocity": 1,
          "duration": 0.019230750000000185
        },
        {
          "name": "E3",
          "midi": 52,
          "time": 5.153841000000027,
          "velocity": 1,
          "duration": 0.019230750000000185
        },
        {
          "name": "E3",
          "midi": 52,
          "time": 5.192302500000028,
          "velocity": 1,
          "duration": 0.019230750000000185
        },
        {
          "name": "E3",
          "midi": 52,
          "time": 5.230764000000028,
          "velocity": 1,
          "duration": 0.019230750000000185
        },
        {
          "name": "E3",
          "midi": 52,
          "time": 5.2692255000000285,
          "velocity": 1,
          "duration": 0.019230750000000185
        },
        {
          "name": "E3",
          "midi": 52,
          "time": 5.307687000000029,
          "velocity": 1,
          "duration": 0.019230750000000185
        },
        {
          "name": "E3",
          "midi": 52,
          "time": 5.346148500000029,
          "velocity": 1,
          "duration": 0.019230750000000185
        },
        {
          "name": "E3",
          "midi": 52,
          "time": 5.38461000000003,
          "velocity": 1,
          "duration": 0.019230750000000185
        },
        {
          "name": "E3",
          "midi": 52,
          "time": 5.42307150000003,
          "velocity": 1,
          "duration": 0.019230750000000185
        },
        {
          "name": "E3",
          "midi": 52,
          "time": 5.46153300000003,
          "velocity": 1,
          "duration": 0.019230750000000185
        },
        {
          "name": "E3",
          "midi": 52,
          "time": 5.499994500000031,
          "velocity": 1,
          "duration": 0.019230750000000185
        },
        {
          "name": "E3",
          "midi": 52,
          "time": 5.538456000000031,
          "velocity": 1,
          "duration": 0.019230750000000185
        },
        {
          "name": "E3",
          "midi": 52,
          "time": 5.5769175000000315,
          "velocity": 1,
          "duration": 0.019230750000000185
        },
        {
          "name": "E3",
          "midi": 52,
          "time": 5.615379000000032,
          "velocity": 1,
          "duration": 0.019230750000000185
        },
        {
          "name": "E3",
          "midi": 52,
          "time": 5.653840500000032,
          "velocity": 1,
          "duration": 0.019230750000000185
        },
        {
          "name": "E3",
          "midi": 52,
          "time": 5.692302000000033,
          "velocity": 1,
          "duration": 0.019230750000000185
        },
        {
          "name": "E3",
          "midi": 52,
          "time": 5.730763500000033,
          "velocity": 1,
          "duration": 0.019230750000000185
        },
        {
          "name": "E3",
          "midi": 52,
          "time": 5.769225000000033,
          "velocity": 1,
          "duration": 0.019230750000000185
        },
        {
          "name": "E3",
          "midi": 52,
          "time": 5.807686500000034,
          "velocity": 1,
          "duration": 0.019230750000000185
        },
        {
          "name": "E3",
          "midi": 52,
          "time": 5.846148000000034,
          "velocity": 1,
          "duration": 0.019230750000000185
        },
        {
          "name": "E3",
          "midi": 52,
          "time": 5.8846095000000345,
          "velocity": 1,
          "duration": 0.019230750000000185
        },
        {
          "name": "E3",
          "midi": 52,
          "time": 5.923071000000035,
          "velocity": 1,
          "duration": 0.019230750000000185
        },
        {
          "name": "E3",
          "midi": 52,
          "time": 5.961532500000035,
          "velocity": 1,
          "duration": 0.019230750000000185
        },
        {
          "name": "E3",
          "midi": 52,
          "time": 5.999994000000036,
          "velocity": 1,
          "duration": 0.019230750000000185
        },
        {
          "name": "E3",
          "midi": 52,
          "time": 6.038455500000036,
          "velocity": 1,
          "duration": 0.019230750000000185
        },
        {
          "name": "E3",
          "midi": 52,
          "time": 6.076917000000036,
          "velocity": 1,
          "duration": 0.019230750000000185
        },
        {
          "name": "E3",
          "midi": 52,
          "time": 6.115378500000037,
          "velocity": 1,
          "duration": 0.019230750000000185
        },
        {
          "name": "E3",
          "midi": 52,
          "time": 6.153840000000037,
          "velocity": 1,
          "duration": 0.019230750000000185
        },
        {
          "name": "E3",
          "midi": 52,
          "time": 6.192301500000037,
          "velocity": 1,
          "duration": 0.019230750000000185
        },
        {
          "name": "E3",
          "midi": 52,
          "time": 6.230763000000038,
          "velocity": 1,
          "duration": 0.019230750000000185
        },
        {
          "name": "E3",
          "midi": 52,
          "time": 6.269224500000038,
          "velocity": 1,
          "duration": 0.019230750000000185
        },
        {
          "name": "E3",
          "midi": 52,
          "time": 6.3076860000000385,
          "velocity": 1,
          "duration": 0.019230750000000185
        },
        {
          "name": "E3",
          "midi": 52,
          "time": 6.346147500000039,
          "velocity": 1,
          "duration": 0.019230750000000185
        },
        {
          "name": "E3",
          "midi": 52,
          "time": 6.384609000000039,
          "velocity": 1,
          "duration": 0.019230750000000185
        },
        {
          "name": "E3",
          "midi": 52,
          "time": 6.42307050000004,
          "velocity": 1,
          "duration": 0.019230750000000185
        },
        {
          "name": "E3",
          "midi": 52,
          "time": 6.46153200000004,
          "velocity": 1,
          "duration": 0.019230750000000185
        },
        {
          "name": "E3",
          "midi": 52,
          "time": 6.49999350000004,
          "velocity": 1,
          "duration": 0.019230750000000185
        },
        {
          "name": "E3",
          "midi": 52,
          "time": 6.538455000000041,
          "velocity": 1,
          "duration": 0.019230750000000185
        },
        {
          "name": "E3",
          "midi": 52,
          "time": 6.576916500000041,
          "velocity": 1,
          "duration": 0.019230750000000185
        },
        {
          "name": "E3",
          "midi": 52,
          "time": 6.6153780000000415,
          "velocity": 1,
          "duration": 0.019230750000000185
        },
        {
          "name": "E3",
          "midi": 52,
          "time": 6.653839500000042,
          "velocity": 1,
          "duration": 0.019230750000000185
        },
        {
          "name": "E3",
          "midi": 52,
          "time": 6.692301000000042,
          "velocity": 1,
          "duration": 0.019230750000000185
        },
        {
          "name": "E3",
          "midi": 52,
          "time": 6.730762500000043,
          "velocity": 1,
          "duration": 0.019230750000000185
        },
        {
          "name": "E3",
          "midi": 52,
          "time": 6.769224000000043,
          "velocity": 1,
          "duration": 0.019230750000000185
        },
        {
          "name": "E3",
          "midi": 52,
          "time": 6.807685500000043,
          "velocity": 1,
          "duration": 0.019230750000000185
        },
        {
          "name": "E3",
          "midi": 52,
          "time": 6.846147000000044,
          "velocity": 1,
          "duration": 0.019230750000000185
        },
        {
          "name": "E3",
          "midi": 52,
          "time": 6.884608500000044,
          "velocity": 1,
          "duration": 0.019230750000000185
        },
        {
          "name": "E3",
          "midi": 52,
          "time": 6.9230700000000445,
          "velocity": 1,
          "duration": 0.019230750000000185
        },
        {
          "name": "E3",
          "midi": 52,
          "time": 6.961531500000045,
          "velocity": 1,
          "duration": 0.019230750000000185
        },
        {
          "name": "E3",
          "midi": 52,
          "time": 6.999993000000045,
          "velocity": 1,
          "duration": 0.019230750000000185
        },
        {
          "name": "E3",
          "midi": 52,
          "time": 7.038454500000046,
          "velocity": 1,
          "duration": 0.019230750000000185
        },
        {
          "name": "E3",
          "midi": 52,
          "time": 7.076916000000046,
          "velocity": 1,
          "duration": 0.019230750000000185
        },
        {
          "name": "E3",
          "midi": 52,
          "time": 7.115377500000046,
          "velocity": 1,
          "duration": 0.019230750000000185
        },
        {
          "name": "E3",
          "midi": 52,
          "time": 7.153839000000047,
          "velocity": 1,
          "duration": 0.019230750000000185
        },
        {
          "name": "E3",
          "midi": 52,
          "time": 7.192300500000047,
          "velocity": 1,
          "duration": 0.019230750000000185
        },
        {
          "name": "E3",
          "midi": 52,
          "time": 7.230762000000047,
          "velocity": 1,
          "duration": 0.019230750000000185
        },
        {
          "name": "E3",
          "midi": 52,
          "time": 7.269223500000048,
          "velocity": 1,
          "duration": 0.019230750000000185
        },
        {
          "name": "E3",
          "midi": 52,
          "time": 7.307685000000048,
          "velocity": 1,
          "duration": 0.019230750000000185
        },
        {
          "name": "E3",
          "midi": 52,
          "time": 7.3461465000000485,
          "velocity": 1,
          "duration": 0.019230750000000185
        },
        {
          "name": "E3",
          "midi": 52,
          "time": 7.384608000000049,
          "velocity": 1,
          "duration": 0.019230750000000185
        },
        {
          "name": "E3",
          "midi": 52,
          "time": 7.423069500000049,
          "velocity": 1,
          "duration": 0.019230750000000185
        },
        {
          "name": "E3",
          "midi": 52,
          "time": 7.46153100000005,
          "velocity": 1,
          "duration": 0.019230750000000185
        },
        {
          "name": "E3",
          "midi": 52,
          "time": 7.49999250000005,
          "velocity": 1,
          "duration": 0.019230750000000185
        },
        {
          "name": "E3",
          "midi": 52,
          "time": 7.53845400000005,
          "velocity": 1,
          "duration": 0.019230750000000185
        },
        {
          "name": "E3",
          "midi": 52,
          "time": 7.576915500000051,
          "velocity": 1,
          "duration": 0.019230750000000185
        },
        {
          "name": "E3",
          "midi": 52,
          "time": 7.615377000000051,
          "velocity": 1,
          "duration": 0.019230750000000185
        },
        {
          "name": "E3",
          "midi": 52,
          "time": 7.6538385000000515,
          "velocity": 1,
          "duration": 0.019230750000000185
        },
        {
          "name": "E3",
          "midi": 52,
          "time": 7.692300000000052,
          "velocity": 1,
          "duration": 0.019230750000000185
        },
        {
          "name": "E3",
          "midi": 52,
          "time": 7.730761500000052,
          "velocity": 1,
          "duration": 0.019230750000000185
        },
        {
          "name": "E3",
          "midi": 52,
          "time": 7.769223000000053,
          "velocity": 1,
          "duration": 0.019230750000000185
        },
        {
          "name": "E3",
          "midi": 52,
          "time": 7.807684500000053,
          "velocity": 1,
          "duration": 0.019230750000000185
        },
        {
          "name": "E3",
          "midi": 52,
          "time": 7.846146000000053,
          "velocity": 1,
          "duration": 0.019230750000000185
        },
        {
          "name": "E3",
          "midi": 52,
          "time": 7.884607500000054,
          "velocity": 1,
          "duration": 0.019230750000000185
        },
        {
          "name": "E3",
          "midi": 52,
          "time": 7.923069000000054,
          "velocity": 1,
          "duration": 0.019230750000000185
        },
        {
          "name": "E3",
          "midi": 52,
          "time": 7.9615305000000545,
          "velocity": 1,
          "duration": 0.019230750000000185
        },
        {
          "name": "E3",
          "midi": 52,
          "time": 7.999992000000055,
          "velocity": 1,
          "duration": 0.019230749999999297
        },
        {
          "name": "E3",
          "midi": 52,
          "time": 8.038453500000054,
          "velocity": 1,
          "duration": 0.019230750000000185
        },
        {
          "name": "E3",
          "midi": 52,
          "time": 8.076915000000055,
          "velocity": 1,
          "duration": 0.019230750000000185
        },
        {
          "name": "E3",
          "midi": 52,
          "time": 8.115376500000055,
          "velocity": 1,
          "duration": 0.019230750000000185
        },
        {
          "name": "E3",
          "midi": 52,
          "time": 8.153838000000055,
          "velocity": 1,
          "duration": 0.019230750000000185
        },
        {
          "name": "E3",
          "midi": 52,
          "time": 8.192299500000056,
          "velocity": 1,
          "duration": 0.019230750000000185
        },
        {
          "name": "E3",
          "midi": 52,
          "time": 8.230761000000056,
          "velocity": 1,
          "duration": 0.019230750000000185
        },
        {
          "name": "E3",
          "midi": 52,
          "time": 8.269222500000057,
          "velocity": 1,
          "duration": 0.019230750000000185
        },
        {
          "name": "E3",
          "midi": 52,
          "time": 8.307684000000057,
          "velocity": 1,
          "duration": 0.019230750000000185
        },
        {
          "name": "E3",
          "midi": 52,
          "time": 8.346145500000057,
          "velocity": 1,
          "duration": 0.019230750000000185
        },
        {
          "name": "E3",
          "midi": 52,
          "time": 8.384607000000058,
          "velocity": 1,
          "duration": 0.019230750000000185
        },
        {
          "name": "E3",
          "midi": 52,
          "time": 8.423068500000058,
          "velocity": 1,
          "duration": 0.019230750000000185
        },
        {
          "name": "E3",
          "midi": 52,
          "time": 8.461530000000058,
          "velocity": 1,
          "duration": 0.019230750000000185
        },
        {
          "name": "E3",
          "midi": 52,
          "time": 8.499991500000059,
          "velocity": 1,
          "duration": 0.019230750000000185
        },
        {
          "name": "E3",
          "midi": 52,
          "time": 8.53845300000006,
          "velocity": 1,
          "duration": 0.019230750000000185
        },
        {
          "name": "E3",
          "midi": 52,
          "time": 8.57691450000006,
          "velocity": 1,
          "duration": 0.019230750000000185
        },
        {
          "name": "E3",
          "midi": 52,
          "time": 8.61537600000006,
          "velocity": 1,
          "duration": 0.019230750000000185
        },
        {
          "name": "E3",
          "midi": 52,
          "time": 8.65383750000006,
          "velocity": 1,
          "duration": 0.019230750000000185
        },
        {
          "name": "E3",
          "midi": 52,
          "time": 8.69229900000006,
          "velocity": 1,
          "duration": 0.019230750000000185
        },
        {
          "name": "E3",
          "midi": 52,
          "time": 8.730760500000061,
          "velocity": 1,
          "duration": 0.019230750000000185
        },
        {
          "name": "E3",
          "midi": 52,
          "time": 8.769222000000061,
          "velocity": 1,
          "duration": 0.019230750000000185
        },
        {
          "name": "E3",
          "midi": 52,
          "time": 8.807683500000062,
          "velocity": 1,
          "duration": 0.019230750000000185
        },
        {
          "name": "E3",
          "midi": 52,
          "time": 8.846145000000062,
          "velocity": 1,
          "duration": 0.019230750000000185
        },
        {
          "name": "E3",
          "midi": 52,
          "time": 8.884606500000062,
          "velocity": 1,
          "duration": 0.019230750000000185
        },
        {
          "name": "E3",
          "midi": 52,
          "time": 8.923068000000063,
          "velocity": 1,
          "duration": 0.019230750000000185
        },
        {
          "name": "E3",
          "midi": 52,
          "time": 8.961529500000063,
          "velocity": 1,
          "duration": 0.019230750000000185
        },
        {
          "name": "E3",
          "midi": 52,
          "time": 8.999991000000064,
          "velocity": 1,
          "duration": 0.019230750000000185
        },
        {
          "name": "E3",
          "midi": 52,
          "time": 9.038452500000064,
          "velocity": 1,
          "duration": 0.019230750000000185
        },
        {
          "name": "E3",
          "midi": 52,
          "time": 9.076914000000064,
          "velocity": 1,
          "duration": 0.019230750000000185
        },
        {
          "name": "E3",
          "midi": 52,
          "time": 9.115375500000065,
          "velocity": 1,
          "duration": 0.019230750000000185
        },
        {
          "name": "E3",
          "midi": 52,
          "time": 9.153837000000065,
          "velocity": 1,
          "duration": 0.019230750000000185
        },
        {
          "name": "E3",
          "midi": 52,
          "time": 9.192298500000065,
          "velocity": 1,
          "duration": 0.019230750000000185
        },
        {
          "name": "E3",
          "midi": 52,
          "time": 9.230760000000066,
          "velocity": 1,
          "duration": 0.019230750000000185
        },
        {
          "name": "E3",
          "midi": 52,
          "time": 9.269221500000066,
          "velocity": 1,
          "duration": 0.019230750000000185
        },
        {
          "name": "E3",
          "midi": 52,
          "time": 9.307683000000067,
          "velocity": 1,
          "duration": 0.019230750000000185
        },
        {
          "name": "E3",
          "midi": 52,
          "time": 9.346144500000067,
          "velocity": 1,
          "duration": 0.019230750000000185
        },
        {
          "name": "E3",
          "midi": 52,
          "time": 9.384606000000067,
          "velocity": 1,
          "duration": 0.019230750000000185
        },
        {
          "name": "E3",
          "midi": 52,
          "time": 9.423067500000068,
          "velocity": 1,
          "duration": 0.019230750000000185
        },
        {
          "name": "E3",
          "midi": 52,
          "time": 9.461529000000068,
          "velocity": 1,
          "duration": 0.019230750000000185
        },
        {
          "name": "E3",
          "midi": 52,
          "time": 9.499990500000068,
          "velocity": 1,
          "duration": 0.019230750000000185
        },
        {
          "name": "E3",
          "midi": 52,
          "time": 9.538452000000069,
          "velocity": 1,
          "duration": 0.019230750000000185
        },
        {
          "name": "E3",
          "midi": 52,
          "time": 9.57691350000007,
          "velocity": 1,
          "duration": 0.019230750000000185
        },
        {
          "name": "E3",
          "midi": 52,
          "time": 9.61537500000007,
          "velocity": 1,
          "duration": 0.019230750000000185
        },
        {
          "name": "E3",
          "midi": 52,
          "time": 9.65383650000007,
          "velocity": 1,
          "duration": 0.019230750000000185
        },
        {
          "name": "E3",
          "midi": 52,
          "time": 9.69229800000007,
          "velocity": 1,
          "duration": 0.019230750000000185
        },
        {
          "name": "E3",
          "midi": 52,
          "time": 9.73075950000007,
          "velocity": 1,
          "duration": 0.019230750000000185
        },
        {
          "name": "E3",
          "midi": 52,
          "time": 9.769221000000071,
          "velocity": 1,
          "duration": 0.019230750000000185
        },
        {
          "name": "E3",
          "midi": 52,
          "time": 9.807682500000071,
          "velocity": 1,
          "duration": 0.019230750000000185
        },
        {
          "name": "E3",
          "midi": 52,
          "time": 9.846144000000072,
          "velocity": 1,
          "duration": 0.019230750000000185
        },
        {
          "name": "E3",
          "midi": 52,
          "time": 9.884605500000072,
          "velocity": 1,
          "duration": 0.019230750000000185
        },
        {
          "name": "E3",
          "midi": 52,
          "time": 9.923067000000072,
          "velocity": 1,
          "duration": 0.019230750000000185
        },
        {
          "name": "E3",
          "midi": 52,
          "time": 9.961528500000073,
          "velocity": 1,
          "duration": 0.019230750000000185
        },
        {
          "name": "E3",
          "midi": 52,
          "time": 9.999990000000073,
          "velocity": 1,
          "duration": 0.019230750000000185
        },
        {
          "name": "E3",
          "midi": 52,
          "time": 10.038451500000074,
          "velocity": 1,
          "duration": 0.019230750000000185
        },
        {
          "name": "E3",
          "midi": 52,
          "time": 10.076913000000074,
          "velocity": 1,
          "duration": 0.019230750000000185
        },
        {
          "name": "E3",
          "midi": 52,
          "time": 10.115374500000074,
          "velocity": 1,
          "duration": 0.019230750000000185
        },
        {
          "name": "E3",
          "midi": 52,
          "time": 10.153836000000075,
          "velocity": 1,
          "duration": 0.019230750000000185
        },
        {
          "name": "E3",
          "midi": 52,
          "time": 10.192297500000075,
          "velocity": 1,
          "duration": 0.019230750000000185
        },
        {
          "name": "E3",
          "midi": 52,
          "time": 10.230759000000075,
          "velocity": 1,
          "duration": 0.019230750000000185
        },
        {
          "name": "E3",
          "midi": 52,
          "time": 10.269220500000076,
          "velocity": 1,
          "duration": 0.019230750000000185
        },
        {
          "name": "E3",
          "midi": 52,
          "time": 10.307682000000076,
          "velocity": 1,
          "duration": 0.019230750000000185
        },
        {
          "name": "E3",
          "midi": 52,
          "time": 10.346143500000077,
          "velocity": 1,
          "duration": 0.019230750000000185
        },
        {
          "name": "E3",
          "midi": 52,
          "time": 10.384605000000077,
          "velocity": 1,
          "duration": 0.019230750000000185
        },
        {
          "name": "E3",
          "midi": 52,
          "time": 10.423066500000077,
          "velocity": 1,
          "duration": 0.019230750000000185
        },
        {
          "name": "E3",
          "midi": 52,
          "time": 10.461528000000078,
          "velocity": 1,
          "duration": 0.019230750000000185
        },
        {
          "name": "E3",
          "midi": 52,
          "time": 10.499989500000078,
          "velocity": 1,
          "duration": 0.019230750000000185
        },
        {
          "name": "E3",
          "midi": 52,
          "time": 10.538451000000078,
          "velocity": 1,
          "duration": 0.019230750000000185
        },
        {
          "name": "E3",
          "midi": 52,
          "time": 10.576912500000079,
          "velocity": 1,
          "duration": 0.019230750000000185
        },
        {
          "name": "E3",
          "midi": 52,
          "time": 10.61537400000008,
          "velocity": 1,
          "duration": 0.019230750000000185
        },
        {
          "name": "E3",
          "midi": 52,
          "time": 10.65383550000008,
          "velocity": 1,
          "duration": 0.019230750000000185
        },
        {
          "name": "E3",
          "midi": 52,
          "time": 10.69229700000008,
          "velocity": 1,
          "duration": 0.019230750000000185
        },
        {
          "name": "E3",
          "midi": 52,
          "time": 10.73075850000008,
          "velocity": 1,
          "duration": 0.019230750000000185
        },
        {
          "name": "E3",
          "midi": 52,
          "time": 10.76922000000008,
          "velocity": 1,
          "duration": 0.019230750000000185
        },
        {
          "name": "E3",
          "midi": 52,
          "time": 10.807681500000081,
          "velocity": 1,
          "duration": 0.019230750000000185
        },
        {
          "name": "E3",
          "midi": 52,
          "time": 10.846143000000081,
          "velocity": 1,
          "duration": 0.019230750000000185
        },
        {
          "name": "E3",
          "midi": 52,
          "time": 10.884604500000082,
          "velocity": 1,
          "duration": 0.019230750000000185
        },
        {
          "name": "E3",
          "midi": 52,
          "time": 10.923066000000082,
          "velocity": 1,
          "duration": 0.019230750000000185
        },
        {
          "name": "E3",
          "midi": 52,
          "time": 10.961527500000082,
          "velocity": 1,
          "duration": 0.019230750000000185
        },
        {
          "name": "E3",
          "midi": 52,
          "time": 10.999989000000083,
          "velocity": 1,
          "duration": 0.019230750000000185
        },
        {
          "name": "E3",
          "midi": 52,
          "time": 11.038450500000083,
          "velocity": 1,
          "duration": 0.019230750000000185
        },
        {
          "name": "E3",
          "midi": 52,
          "time": 11.076912000000084,
          "velocity": 1,
          "duration": 0.019230750000000185
        },
        {
          "name": "E3",
          "midi": 52,
          "time": 11.115373500000084,
          "velocity": 1,
          "duration": 0.019230750000000185
        },
        {
          "name": "E3",
          "midi": 52,
          "time": 11.153835000000084,
          "velocity": 1,
          "duration": 0.019230750000000185
        },
        {
          "name": "E3",
          "midi": 52,
          "time": 11.192296500000085,
          "velocity": 1,
          "duration": 0.019230750000000185
        },
        {
          "name": "E3",
          "midi": 52,
          "time": 11.230758000000085,
          "velocity": 1,
          "duration": 0.019230750000000185
        },
        {
          "name": "E3",
          "midi": 52,
          "time": 11.269219500000085,
          "velocity": 1,
          "duration": 0.019230750000000185
        },
        {
          "name": "E3",
          "midi": 52,
          "time": 11.307681000000086,
          "velocity": 1,
          "duration": 0.019230750000000185
        },
        {
          "name": "E3",
          "midi": 52,
          "time": 11.346142500000086,
          "velocity": 1,
          "duration": 0.019230750000000185
        },
        {
          "name": "E3",
          "midi": 52,
          "time": 11.384604000000087,
          "velocity": 1,
          "duration": 0.019230750000000185
        },
        {
          "name": "E3",
          "midi": 52,
          "time": 11.423065500000087,
          "velocity": 1,
          "duration": 0.019230750000000185
        },
        {
          "name": "E3",
          "midi": 52,
          "time": 11.461527000000087,
          "velocity": 1,
          "duration": 0.019230750000000185
        },
        {
          "name": "E3",
          "midi": 52,
          "time": 11.499988500000088,
          "velocity": 1,
          "duration": 0.019230750000000185
        },
        {
          "name": "E3",
          "midi": 52,
          "time": 11.538450000000088,
          "velocity": 1,
          "duration": 0.019230750000000185
        },
        {
          "name": "E3",
          "midi": 52,
          "time": 11.576911500000088,
          "velocity": 1,
          "duration": 0.019230750000000185
        },
        {
          "name": "E3",
          "midi": 52,
          "time": 11.615373000000089,
          "velocity": 1,
          "duration": 0.019230750000000185
        },
        {
          "name": "E3",
          "midi": 52,
          "time": 11.65383450000009,
          "velocity": 1,
          "duration": 0.019230750000000185
        },
        {
          "name": "E3",
          "midi": 52,
          "time": 11.69229600000009,
          "velocity": 1,
          "duration": 0.019230750000000185
        },
        {
          "name": "E3",
          "midi": 52,
          "time": 11.73075750000009,
          "velocity": 1,
          "duration": 0.019230750000000185
        },
        {
          "name": "E3",
          "midi": 52,
          "time": 11.76921900000009,
          "velocity": 1,
          "duration": 0.019230750000000185
        },
        {
          "name": "E3",
          "midi": 52,
          "time": 11.80768050000009,
          "velocity": 1,
          "duration": 0.019230750000000185
        },
        {
          "name": "E3",
          "midi": 52,
          "time": 11.846142000000091,
          "velocity": 1,
          "duration": 0.019230750000000185
        },
        {
          "name": "E3",
          "midi": 52,
          "time": 11.884603500000091,
          "velocity": 1,
          "duration": 0.019230750000000185
        },
        {
          "name": "E3",
          "midi": 52,
          "time": 11.923065000000092,
          "velocity": 1,
          "duration": 0.019230750000000185
        },
        {
          "name": "E3",
          "midi": 52,
          "time": 11.961526500000092,
          "velocity": 1,
          "duration": 0.019230750000000185
        },
        {
          "name": "E3",
          "midi": 52,
          "time": 11.999988000000092,
          "velocity": 1,
          "duration": 0.019230750000000185
        },
        {
          "name": "E3",
          "midi": 52,
          "time": 12.038449500000093,
          "velocity": 1,
          "duration": 0.019230750000000185
        },
        {
          "name": "E3",
          "midi": 52,
          "time": 12.076911000000093,
          "velocity": 1,
          "duration": 0.019230750000000185
        },
        {
          "name": "E3",
          "midi": 52,
          "time": 12.115372500000094,
          "velocity": 1,
          "duration": 0.019230750000000185
        },
        {
          "name": "E3",
          "midi": 52,
          "time": 12.153834000000094,
          "velocity": 1,
          "duration": 0.019230750000000185
        },
        {
          "name": "E3",
          "midi": 52,
          "time": 12.192295500000094,
          "velocity": 1,
          "duration": 0.019230750000000185
        },
        {
          "name": "E3",
          "midi": 52,
          "time": 12.230757000000095,
          "velocity": 1,
          "duration": 0.019230750000000185
        },
        {
          "name": "E3",
          "midi": 52,
          "time": 12.269218500000095,
          "velocity": 1,
          "duration": 0.019230750000000185
        },
        {
          "name": "E3",
          "midi": 52,
          "time": 12.307680000000095,
          "velocity": 1,
          "duration": 0.019230750000000185
        },
        {
          "name": "E3",
          "midi": 52,
          "time": 12.346141500000096,
          "velocity": 1,
          "duration": 0.019230750000000185
        },
        {
          "name": "E3",
          "midi": 52,
          "time": 12.384603000000096,
          "velocity": 1,
          "duration": 0.019230750000000185
        },
        {
          "name": "E3",
          "midi": 52,
          "time": 12.423064500000097,
          "velocity": 1,
          "duration": 0.019230750000000185
        },
        {
          "name": "E3",
          "midi": 52,
          "time": 12.461526000000097,
          "velocity": 1,
          "duration": 0.019230750000000185
        },
        {
          "name": "E3",
          "midi": 52,
          "time": 12.499987500000097,
          "velocity": 1,
          "duration": 0.019230750000000185
        },
        {
          "name": "E3",
          "midi": 52,
          "time": 12.538449000000098,
          "velocity": 1,
          "duration": 0.019230750000000185
        },
        {
          "name": "E3",
          "midi": 52,
          "time": 12.576910500000098,
          "velocity": 1,
          "duration": 0.019230750000000185
        },
        {
          "name": "E3",
          "midi": 52,
          "time": 12.615372000000098,
          "velocity": 1,
          "duration": 0.019230750000000185
        },
        {
          "name": "E3",
          "midi": 52,
          "time": 12.653833500000099,
          "velocity": 1,
          "duration": 0.019230750000000185
        },
        {
          "name": "E3",
          "midi": 52,
          "time": 12.6922950000001,
          "velocity": 1,
          "duration": 0.019230750000000185
        },
        {
          "name": "E3",
          "midi": 52,
          "time": 12.7307565000001,
          "velocity": 1,
          "duration": 0.019230750000000185
        },
        {
          "name": "E3",
          "midi": 52,
          "time": 12.7692180000001,
          "velocity": 1,
          "duration": 0.019230750000000185
        },
        {
          "name": "E3",
          "midi": 52,
          "time": 12.8076795000001,
          "velocity": 1,
          "duration": 0.019230750000000185
        },
        {
          "name": "E3",
          "midi": 52,
          "time": 12.8461410000001,
          "velocity": 1,
          "duration": 0.019230750000000185
        },
        {
          "name": "E3",
          "midi": 52,
          "time": 12.884602500000101,
          "velocity": 1,
          "duration": 0.019230750000000185
        },
        {
          "name": "E3",
          "midi": 52,
          "time": 12.923064000000101,
          "velocity": 1,
          "duration": 0.019230750000000185
        },
        {
          "name": "E3",
          "midi": 52,
          "time": 12.961525500000102,
          "velocity": 1,
          "duration": 0.019230750000000185
        },
        {
          "name": "E3",
          "midi": 52,
          "time": 12.999987000000102,
          "velocity": 1,
          "duration": 0.019230750000000185
        },
        {
          "name": "E3",
          "midi": 52,
          "time": 13.038448500000102,
          "velocity": 1,
          "duration": 0.019230750000000185
        },
        {
          "name": "E3",
          "midi": 52,
          "time": 13.076910000000103,
          "velocity": 1,
          "duration": 0.019230750000000185
        },
        {
          "name": "E3",
          "midi": 52,
          "time": 13.115371500000103,
          "velocity": 1,
          "duration": 0.019230750000000185
        },
        {
          "name": "E3",
          "midi": 52,
          "time": 13.153833000000104,
          "velocity": 1,
          "duration": 0.019230750000000185
        },
        {
          "name": "E3",
          "midi": 52,
          "time": 13.192294500000104,
          "velocity": 1,
          "duration": 0.019230750000000185
        },
        {
          "name": "E3",
          "midi": 52,
          "time": 13.230756000000104,
          "velocity": 1,
          "duration": 0.019230750000000185
        },
        {
          "name": "E3",
          "midi": 52,
          "time": 13.269217500000105,
          "velocity": 1,
          "duration": 0.019230750000000185
        },
        {
          "name": "E3",
          "midi": 52,
          "time": 13.307679000000105,
          "velocity": 1,
          "duration": 0.019230750000000185
        },
        {
          "name": "E3",
          "midi": 52,
          "time": 13.346140500000105,
          "velocity": 1,
          "duration": 0.019230750000000185
        },
        {
          "name": "E3",
          "midi": 52,
          "time": 13.384602000000106,
          "velocity": 1,
          "duration": 0.019230750000000185
        },
        {
          "name": "E3",
          "midi": 52,
          "time": 13.423063500000106,
          "velocity": 1,
          "duration": 0.019230750000000185
        },
        {
          "name": "E3",
          "midi": 52,
          "time": 13.461525000000107,
          "velocity": 1,
          "duration": 0.019230750000000185
        },
        {
          "name": "E3",
          "midi": 52,
          "time": 13.499986500000107,
          "velocity": 1,
          "duration": 0.019230750000000185
        },
        {
          "name": "E3",
          "midi": 52,
          "time": 13.538448000000107,
          "velocity": 1,
          "duration": 0.019230750000000185
        },
        {
          "name": "E3",
          "midi": 52,
          "time": 13.576909500000108,
          "velocity": 1,
          "duration": 0.019230750000000185
        },
        {
          "name": "E3",
          "midi": 52,
          "time": 13.615371000000108,
          "velocity": 1,
          "duration": 0.019230750000000185
        },
        {
          "name": "E3",
          "midi": 52,
          "time": 13.653832500000108,
          "velocity": 1,
          "duration": 0.019230750000000185
        },
        {
          "name": "E3",
          "midi": 52,
          "time": 13.692294000000109,
          "velocity": 1,
          "duration": 0.019230750000000185
        },
        {
          "name": "E3",
          "midi": 52,
          "time": 13.73075550000011,
          "velocity": 1,
          "duration": 0.019230750000000185
        },
        {
          "name": "E3",
          "midi": 52,
          "time": 13.76921700000011,
          "velocity": 1,
          "duration": 0.019230750000000185
        },
        {
          "name": "E3",
          "midi": 52,
          "time": 13.80767850000011,
          "velocity": 1,
          "duration": 0.019230750000000185
        },
        {
          "name": "E3",
          "midi": 52,
          "time": 13.84614000000011,
          "velocity": 1,
          "duration": 0.019230750000000185
        },
        {
          "name": "E3",
          "midi": 52,
          "time": 13.88460150000011,
          "velocity": 1,
          "duration": 0.019230750000000185
        },
        {
          "name": "E3",
          "midi": 52,
          "time": 13.923063000000111,
          "velocity": 1,
          "duration": 0.019230750000000185
        },
        {
          "name": "E3",
          "midi": 52,
          "time": 13.961524500000111,
          "velocity": 1,
          "duration": 0.019230750000000185
        },
        {
          "name": "E3",
          "midi": 52,
          "time": 13.999986000000112,
          "velocity": 1,
          "duration": 0.019230750000000185
        },
        {
          "name": "E3",
          "midi": 52,
          "time": 14.038447500000112,
          "velocity": 1,
          "duration": 0.019230750000000185
        },
        {
          "name": "E3",
          "midi": 52,
          "time": 14.076909000000112,
          "velocity": 1,
          "duration": 0.019230750000000185
        },
        {
          "name": "E3",
          "midi": 52,
          "time": 14.115370500000113,
          "velocity": 1,
          "duration": 0.019230750000000185
        },
        {
          "name": "E3",
          "midi": 52,
          "time": 14.153832000000113,
          "velocity": 1,
          "duration": 0.019230750000000185
        },
        {
          "name": "E3",
          "midi": 52,
          "time": 14.192293500000114,
          "velocity": 1,
          "duration": 0.019230750000000185
        },
        {
          "name": "E3",
          "midi": 52,
          "time": 14.230755000000114,
          "velocity": 1,
          "duration": 0.019230750000000185
        },
        {
          "name": "E3",
          "midi": 52,
          "time": 14.269216500000114,
          "velocity": 1,
          "duration": 0.019230750000000185
        },
        {
          "name": "E3",
          "midi": 52,
          "time": 14.307678000000115,
          "velocity": 1,
          "duration": 0.019230750000000185
        },
        {
          "name": "E3",
          "midi": 52,
          "time": 14.346139500000115,
          "velocity": 1,
          "duration": 0.019230750000000185
        },
        {
          "name": "E3",
          "midi": 52,
          "time": 14.384601000000115,
          "velocity": 1,
          "duration": 0.019230750000000185
        },
        {
          "name": "E3",
          "midi": 52,
          "time": 14.423062500000116,
          "velocity": 1,
          "duration": 0.019230750000000185
        },
        {
          "name": "E3",
          "midi": 52,
          "time": 14.461524000000116,
          "velocity": 1,
          "duration": 0.019230750000000185
        },
        {
          "name": "E3",
          "midi": 52,
          "time": 14.499985500000117,
          "velocity": 1,
          "duration": 0.019230750000000185
        },
        {
          "name": "E3",
          "midi": 52,
          "time": 14.538447000000117,
          "velocity": 1,
          "duration": 0.019230750000000185
        },
        {
          "name": "E3",
          "midi": 52,
          "time": 14.576908500000117,
          "velocity": 1,
          "duration": 0.019230750000000185
        },
        {
          "name": "E3",
          "midi": 52,
          "time": 14.615370000000118,
          "velocity": 1,
          "duration": 0.019230750000000185
        },
        {
          "name": "E3",
          "midi": 52,
          "time": 14.653831500000118,
          "velocity": 1,
          "duration": 0.019230750000000185
        },
        {
          "name": "E3",
          "midi": 52,
          "time": 14.692293000000118,
          "velocity": 1,
          "duration": 0.019230750000000185
        },
        {
          "name": "E3",
          "midi": 52,
          "time": 14.730754500000119,
          "velocity": 1,
          "duration": 0.019230750000000185
        }
      ]
    }
  ]
}